<svg height="688.10669" viewBox="0 0 1360.5732 688.10669" width="1360.5732" xmlns="http://www.w3.org/2000/svg"><g transform="matrix(.13333333 0 0 -.13333333 0 688.10667)"><path d="m3595.24 2949.75 1202.16 1202.16c152.53 152.53 399.83 152.53 552.36 0l1202.16-1202.16c152.53-152.53 152.53-399.83 0-552.36l-1202.16-1202.16c-152.53-152.52-399.83-152.52-552.36 0l-1202.16 1202.16c-152.53 152.53-152.53 399.83 0 552.36" fill="#2a883b"/><path d="m3595.24 2949.75 1202.16 1202.16c152.53 152.53 399.83 152.53 552.36 0l1202.16-1202.16c152.53-152.53 152.53-399.83 0-552.36l-1202.16-1202.16c-152.53-152.52-399.83-152.52-552.36 0l-1202.16 1202.16c-152.53 152.53-152.53 399.83 0 552.36z" fill="none" stroke="#040606" stroke-width=".813819"/><g fill="#fff"><path d="m6281.78 3051.28c7.09-.22 14.33-3.27 19.67-8.79 10.67-11.04 10.15-26.63-.84-36.82-10.99-10.2-28.66-9.79-39.34 1.25s-10.15 26.63.83 36.83c5.5 5.09 12.58 7.75 19.68 7.53zm1.67 47.29c-19.11.58-38.61-5.79-53.56-19.67-29.92-27.75-30.89-75.7-2.51-105.04 22-22.76 55.03-28.13 82.86-16.74l175.34-174.51 33.49 33.9-173.68 172c15.74 27.58 13.12 63.09-10.04 87.04-14.19 14.68-32.79 22.44-51.9 23.02"/><path d="m3735.7 2731.2h215.35c15.21-2.14 22.82-9.74 22.82-22.82v-74.16c0-17.11-11.88-25.67-35.65-25.67h-34.23c-23.77 0-35.66 10.93-35.66 32.8v44.21h-79.86v-121.22h161.15c16.17-2.62 24.25-10.7 24.25-24.25v-1.42c0-13.55-8.56-21.63-25.67-24.25h-235.32c-19.97 0-29.95 11.41-29.95 34.23v132.64c16.64 33.27 34.23 49.91 52.77 49.91"/><path d="m4360.36 2732.63h395.05c22.11 0 41.12-16.64 57.05-49.92v-132.64c0-22.81-8.56-34.22-25.67-34.22h-54.19c-18.07 0-27.1 13.31-27.1 39.93v131.21h-79.87l1.43-7.13v-134.06c0-17.12-7.61-27.1-22.82-29.95h-57.05c-17.11 3.33-25.67 11.88-25.67 25.67v145.47h-79.87v-145.47c0-18.07-10.45-27.1-31.37-27.1h-47.06c-18.07 3.09-27.1 11.65-27.1 25.67v169.72c0 13.07 8.08 20.67 24.24 22.82"/><path d="m5197.52 2900.91h5.72c11.88 0 19.48-8.55 22.81-25.66v-89.85h25.67c18.07-.01 27.1-10.94 27.1-32.81v-39.93l38.51-152.6h1.42l38.51 148.32v158.31c0 22.81 8.55 34.22 25.67 34.22h55.62c16.16-2.61 24.25-10.69 24.25-24.24v-165.44c-.96-9.51-16.16-67.98-45.64-175.42-8.56-14.26-20.45-21.39-35.65-21.39h-129.79c-16.4 0-28.29 9.99-35.65 29.95l-42.78 164.01v168.29c2.85 16.16 10.92 24.24 24.23 24.24"/><path d="m5524.13 2900.91h5.7c15.2-4.27 22.81-12.83 22.81-25.66v-88.43h25.67c12.84 0 21.4-7.6 25.68-22.82v-32.8h58.47c15.21-2.14 22.82-9.74 22.82-22.82v-2.85c-3.8-13.31-10.46-19.97-19.96-19.97h-61.33v-125.5h165.43c13.32-3.8 19.97-10.46 19.97-19.97v-2.85c0-13.31-8.09-20.92-24.25-22.82h-235.31c-20.92 0-31.38 11.89-31.38 35.65v316.62c0 22.81 8.56 34.22 25.68 34.22"/><path d="m6204.41 2731.2h215.35c15.21-2.14 22.81-9.74 22.82-22.82v-72.73c-.01-18.07-11.89-27.1-35.66-27.1h-34.22c-23.78 0-35.66 10.46-35.66 31.37v45.64h-79.87v-144.04c-3.56-17.11-12.12-25.67-25.66-25.67h-52.78c-18.06 0-27.09 10.93-27.09 32.8v129.78c14.73 35.18 32.33 52.77 52.77 52.77"/><path d="m5090.75 4147.32c14.85-2.37 25.43-16.37 23.01-32.23-2.41-15.86-16.11-25.8-30.97-23.43-14.86 2.36-25 16.36-22.6 32.22 2.42 15.86 15.7 25.8 30.56 23.44zm7.53 46.87c-40.52 6.45-78.57-22.24-84.96-62.78v-.42c-2.53-16.69 1.81-32.45 9.21-46.45l-1273.47-1273.47 33.47-33.49 1274.32 1273.9c5.93-2.72 11.67-5.62 18.41-6.69 40.65-6.48 79.18 22.44 85.37 63.18 6.2 40.76-21.7 79.74-62.35 86.22"/><path d="m5230.52 4017.58c14.46-2.3 24.54-15.87 22.18-31.38-2.36-15.52-15.67-24.9-30.13-22.6-14.46 2.29-24.54 15.87-22.18 31.38 2.37 15.51 15.67 24.9 30.13 22.6zm7.53 46.87c-40.28 6.4-78.38-21.98-84.53-62.35-2.21-14.52 1.19-28.36 6.7-41.01l-1151.28-1150.86 33.9-33.48 1148.77 1148.76c7.2-3.99 14.85-7.42 23.42-8.79 40.3-6.39 78.39 21.99 84.54 62.36 6.16 40.37-21.23 78.98-61.52 85.37"/><path d="m4382.66 2906.48c6.59.38 13.25-2.02 18.83-7.11 11.16-10.19 12.13-27.88 2.09-39.34s-25.67-12.28-36.83-2.09-12.13 27.88-2.09 39.34c5.02 5.72 11.4 8.82 18 9.2zm430.21 440.25c6.6.26 13.33-2.33 18.83-7.52 10.99-10.4 11.48-27.66 1.25-38.93-10.22-11.26-25.83-12.07-36.82-1.67-11 10.4-11.91 28.07-1.68 39.34 5.11 5.63 11.81 8.53 18.42 8.78zm-1.68 46.88c-19.05-.74-37.76-8.75-51.47-23.86-21.83-24.04-24.52-58.43-10.05-85.79l-336.88-337.3c-28.41 12.15-62.71 6.44-84.12-18-26.9-30.7-24.28-77.95 5.86-105.46 30.14-27.52 77.73-24.84 104.62 5.86 21.34 24.36 23.6 58.72 8.79 85.79l336.47 336.47c28.1-12.36 61.99-6.76 83.69 17.16 27.44 30.22 25.89 77.42-3.76 105.46-14.83 14.02-34.09 20.41-53.15 19.67"/><path d="m5479.53 3524.18c6.58.39 13.47-1.96 19.24-7.12 11.56-10.32 12.59-27.63 2.93-38.91-9.64-11.3-25.27-12.42-36.82-2.1-11.56 10.32-12.58 27.63-2.93 38.92 4.82 5.65 10.99 8.82 17.58 9.21zm-2.93 46.87c-19.04-1.18-37.81-9.6-51.06-25.11-21.02-24.6-22.33-58.89-7.12-85.79l-302.57-302.57-7.11-6.7v-10.04-153.59h47.71v143.96l297.55 297.55c28.55-11.99 62.59-6.28 83.7 18.41 26.51 31.01 22.91 78.27-7.54 105.47-15.22 13.6-34.53 19.58-53.56 18.41"/><path d="m5700.91 3258.85c14.46-2.29 24.54-15.87 22.18-31.38-2.36-15.52-15.67-25.32-30.14-23.02-14.45 2.29-24.54 15.87-22.17 31.39 2.36 15.51 15.67 25.31 30.13 23.01zm7.53 46.87c-40.28 6.4-78.39-22.4-84.53-62.77-2.41-15.83 1.7-30.47 8.37-43.94l-189.58-189.16 33.48-33.48 189.16 188.74c6.41-3.18 12.67-6.35 20.08-7.53 40.29-6.4 78.39 22.4 84.54 62.77s-21.24 78.98-61.52 85.37"/><path d="m5383.28 3873.62c6.53.24 13.39-1.94 18.82-7.11 10.87-10.34 11.42-27.79 1.26-38.93-10.16-11.13-25.96-11.59-36.83-1.25-10.86 10.34-11.42 27.37-1.25 38.5 5.08 5.57 11.45 8.56 18 8.79zm-1.68 46.87c-19-.68-37.77-8.41-51.48-23.43-27.42-30.05-25.7-77.42 3.77-105.46 22.92-21.81 56.47-24.82 83.28-11.31l649.5-649.5v-315.96h47.29v325.59 10.05l-6.69 6.69-657.46 657.45c13.28 28.53 8.79 63.52-15.06 86.21-14.74 14.02-34.16 20.35-53.15 19.67"/><path d="m5888.39 3077.23c6.6.26 13.34-2.34 18.84-7.54 10.99-10.39 11.48-28.07 1.25-39.33-10.22-11.27-25.83-11.66-36.83-1.26-10.99 10.4-11.9 28.07-1.68 39.34 5.12 5.63 11.82 8.53 18.42 8.79zm-1.67 46.87c-19.06-.74-38.18-8.74-51.89-23.85-21.89-24.12-24.25-58.82-9.63-86.22l-102.53-102.52 33.48-33.49 103.79 103.79c28.1-12.38 61.98-7.19 83.7 16.74 27.43 30.23 25.89 77.42-3.77 105.46-14.83 14.02-34.09 20.83-53.15 20.09"/><path d="m4363.82 2243.59c6.6.26 13.34-1.92 18.84-7.11 10.99-10.4 11.48-28.08 1.25-39.34-10.23-11.27-25.83-12.08-36.83-1.68-10.99 10.4-11.9 28.07-1.67 39.34 5.11 5.63 11.81 8.53 18.41 8.79zm-23.85 195.85v-154c-10.96-3.92-21.41-9.68-29.72-18.84-27.42-30.22-25.47-77.42 4.19-105.46 29.65-28.03 77.2-26.03 104.62 4.19 27.43 30.23 25.47 77.42-4.18 105.46-8.07 7.63-17.23 12.67-27.2 15.9v152.75z"/><path d="m4152.06 2069.91c6.61.26 13.34-2.33 18.84-7.53 10.99-10.4 11.48-27.65 1.25-38.92s-25.83-12.07-36.83-1.67c-10.99 10.39-11.9 28.06-1.67 39.33 5.11 5.64 11.81 8.53 18.41 8.79zm-257.37 366.61v-171.59l6.7-7.12 185.39-184.97c-12.89-28.55-7.94-62.83 15.9-85.37 29.65-28.04 77.2-26.46 104.62 3.76 27.44 30.23 25.89 77.84-3.76 105.88-23.3 22.03-57.55 24.61-84.54 10.47l-177.02 177.02v151.92z"/><path d="m4489.79 1815.05c14.46-2.29 24.13-15.88 21.76-31.39-2.36-15.5-15.25-25.31-29.71-23.01-14.46 2.29-24.55 16.29-22.18 31.8 2.36 15.51 15.67 24.9 30.13 22.6zm181.21 530.65c6.6.26 13.33-2.33 18.83-7.53 10.99-10.4 11.48-27.65 1.25-38.92-10.22-11.27-25.83-12.07-36.82-1.68-11 10.4-11.9 28.08-1.68 39.35 5.11 5.63 11.81 8.52 18.42 8.78zm-2.09 46.87c-19.06-.74-37.77-8.74-51.48-23.85-27.43-30.22-25.47-77.42 4.19-105.47 7.62-7.2 16.16-12.19 25.52-15.48v-272.44l-123.87-123.45c-7.88 4.79-16.75 8.51-26.37 10.05-40.28 6.39-77.97-22-84.11-62.37-6.14-40.23 21.03-79.2 61.1-85.79h.41c40.29-6.39 78.39 22.41 84.54 62.78 2.06 13.5-1.18 26.11-5.86 38.08l134.34 133.92 7.11 6.7v10.04 282.48c11.77 3.8 22.97 9.52 31.8 19.25 27.44 30.23 25.47 77.84-4.18 105.88-14.82 14.03-34.09 20.41-53.15 19.67z"/><path d="m4704.06 1574c14.46-2.3 24.12-15.87 21.76-31.39-2.36-15.51-15.25-25.31-29.71-23.02-14.47 2.3-24.55 16.3-22.18 31.81 2.36 15.52 15.67 24.89 30.13 22.6zm181.2 771.7c6.61.26 13.34-2.33 18.84-7.53 10.99-10.4 11.48-27.65 1.25-38.92-10.22-11.27-25.83-12.07-36.83-1.68-10.99 10.4-11.89 28.08-1.67 39.35 5.11 5.63 11.81 8.52 18.41 8.78zm-2.09 46.87c-19.05-.74-37.76-8.74-51.47-23.85-27.43-30.22-25.47-77.42 4.18-105.47 8.07-7.62 17.24-12.66 27.21-15.9l-2.51-513.49-123.04-123.04c-7.88 4.8-16.75 8.52-26.37 10.05-40.29 6.4-77.96-21.98-84.11-62.35-6.13-40.19 21.11-78.71 61.09-85.37l.42-.42c40.29-6.4 78.39 22.4 84.54 62.77 2.06 13.5-1.18 26.1-5.86 38.09l133.92 133.91 7.11 6.69v10.05l2.1 523.95c11.13 3.89 21.7 9.56 30.13 18.83 27.42 30.23 25.47 77.84-4.19 105.88-14.83 14.03-34.09 20.41-53.15 19.67z"/><path d="m5046.8 1626.73c6.61.25 13.34-1.91 18.83-7.12v-.41c10.71-10.43 11.4-27.76 1.26-38.93-10.23-11.26-26.25-12.07-37.25-1.67-10.99 10.4-11.48 28.07-1.25 39.34 5.11 5.64 11.81 8.53 18.41 8.79zm201.72 652.43c14.56 1.36 27.47-9.46 28.88-25.11 1.39-15.65-9.72-28.36-24.28-29.71-14.56-1.36-27.06 9.04-28.46 24.68-1.39 15.66 9.3 28.78 23.86 30.14zm-4.61 46.87c-40.61-3.78-70.18-40.51-66.53-81.18.82-9.27 3.66-17.99 7.53-25.95l-153.59-153.18-6.7-7.11v-9.62-379.99c-11.59-3.83-22.66-9.64-31.38-19.25-27.43-30.23-25.47-77.42 4.18-105.46 29.65-28.05 77.19-26.05 104.63 4.18 27.43 30.22 25.46 77.42-4.19 105.46-7.74 7.31-16.44 12.21-25.95 15.49v369.95l146.89 146.46c11.86-6.02 24.8-10.1 38.93-8.78 40.61 3.78 70.16 40.51 66.53 81.18-3.63 40.69-39.73 71.59-80.35 67.8"/><path d="m5526.4 1993.75c6.6.26 13.33-2.33 18.83-7.54 10.99-10.39 11.48-27.64 1.26-38.91-10.24-11.27-25.84-12.07-36.84-1.68-10.98 10.4-11.89 28.07-1.67 39.34 5.12 5.64 11.81 8.53 18.42 8.79zm-241.05 0c6.6.26 13.33-2.33 18.82-7.54 11-10.39 11.49-27.64 1.26-38.91-10.22-11.27-25.83-12.07-36.82-1.68-11 10.4-11.91 28.07-1.68 39.34 5.12 5.64 11.81 8.53 18.42 8.79zm-1.68 46.87c-19.06-.75-38.18-8.74-51.89-23.85-27.43-30.23-25.47-77.42 4.18-105.47 29.66-28.04 77.2-26.45 104.63 3.77 5.86 6.45 9.76 14.1 12.97 21.76h105.88c3.91-9.46 9.71-18.1 17.58-25.53 29.64-28.04 77.19-26.45 104.62 3.77s25.88 77.84-3.76 105.88c-29.66 28.04-77.62 26.04-105.05-4.18-8.61-9.48-13.42-20.93-16.32-32.65h-100.02c-3.36 13.47-8.94 26.68-19.67 36.83-14.82 14.02-34.09 20.41-53.15 19.67"/><path d="m5685.84 2239.83c6.58.71 13.44-1.08 19.25-5.86 11.62-9.59 13.26-27.36 3.77-39.35-9.49-11.98-25.21-13.35-36.82-3.76-11.63 9.58-13.27 26.93-3.77 38.92 4.74 5.99 11 9.32 17.57 10.05zm-21.34 195.85v-154.43c-12.63-4.44-24.62-10.99-33.48-22.18-25.34-32-20.6-79.07 10.88-105.04 31.47-25.97 78.87-20.7 104.21 11.3s20.59 79.07-10.88 105.04c-6.97 5.74-14.9 9.4-23.02 12.14v153.17z"/><path d="m5183.24 1341.73c14.45-2.3 24.54-15.87 22.17-31.39-2.36-15.5-15.67-25.31-30.13-23.01s-24.54 15.87-22.18 31.39c2.36 15.51 15.67 25.31 30.14 23.01zm895.57 1102.73-151.08-151.07-7.11-7.12v-205.48l-702.66-702.22c-8.02 5.01-17.31 8.46-27.19 10.03-40.29 6.4-78.39-22.4-84.55-62.77-6.14-40.37 21.25-78.97 61.53-85.37s78.39 22.4 84.53 62.77c2.01 13.2-.58 25.48-5.02 37.25l713.96 713.95 6.68 6.69v10.05 195.01l144.39 144.81z"/><path d="m6312.37 2406.37c11.05-9.12 12.7-25 3.77-36.28-8.94-11.28-24.5-12.96-35.54-3.85-11.04 9.12-12.7 25-3.77 36.28 8.94 11.28 24.49 12.96 35.54 3.85zm31.26 39.47c-32.04 26.44-79.89 21.55-105.78-11.15-25.9-32.71-20.8-81.81 11.24-108.24 32.04-26.44 79.82-20.98 105.72 11.73s20.86 81.22-11.18 107.66"/><path d="m5184.07 3643.87c6.6.26 13.34-1.92 18.83-7.12 11-10.4 11.9-28.07 1.67-39.34-10.22-11.26-26.25-11.65-37.24-1.25-11 10.4-11.49 27.65-1.25 38.92 5.11 5.63 11.39 8.53 17.99 8.79zm-1.67 47.29c-19.06-.74-37.77-9.16-51.48-24.27-27.43-30.23-25.89-77.43 3.77-105.47 8.19-7.74 17.9-12.68 28.04-15.9v-105.04l-478.34-478.34-6.7-6.69v-10.05-112.57h47.29v102.53l478.34 478.75 7.11 6.7v10.05 116.33c10.78 3.93 20.7 9.4 28.88 18.42 27.43 30.22 25.89 77.42-3.77 105.46-14.82 14.02-34.09 20.83-53.14 20.09"/><path d="m4140.47 2729.77h-108.13s-20.29 2.69-22.81-22.82v-169.71s-3.24-24.25 29.94-24.25h101l.18 49.92h-25.59v121.23h25.59z"/><path d="m4168.57 2729.77h108.12s20.3 2.69 22.83-22.82v-169.71s3.23-24.25-29.96-24.25h-100.99l-.18 49.92h25.59v121.23h-25.59z"/><path d="m4953.65 2749.74v-201.09c0-23.77-10.93-35.66-32.8-35.66h-41.36c-20.92 1.67-31.38 10.22-31.38 25.68v339.43c1.9 15.21 9.51 22.81 22.82 22.81h243.88c15.21-1.89 22.82-9.5 22.82-22.81v-168.29c-3.33-16.17-10.94-24.25-22.82-24.25h-132.3v45.64h49.58v121.22h-131.21v-67.02h25.67s27.1 3.41 27.1-35.66"/><path d="m5932.01 2658.46v-94.12h159.73c16.16-3.33 24.24-10.46 24.24-21.39v-4.28c0-13.55-8.55-21.63-25.66-24.25h-235.33c-19.97 0-29.95 11.41-29.95 34.23v132.64c16.88 33.27 34.47 49.91 52.78 49.91h215.35c15.2-2.85 22.81-9.51 22.81-19.97v-78.44c0-16.16-12.35-24.24-37.08-24.24h-118.28l.09 49.91h49.73v27.1h-78.43z"/></g></g></svg>