<svg height="825" viewBox="0 0 825 825" width="825" xmlns="http://www.w3.org/2000/svg"><g fill-rule="evenodd"><path d="m622.37496 249.125c25.75 62.125 46.875 113.125 46.875 113.375s-9.75.5-21.75.5h-21.75l-5.625-13.5-5.625-13.375h-57.74996-57.75l-5.375 13.125-5.375 13.125-22.125.375c-17.5.25-22 0-21.5-1.25.375-.875 21.25-51.375 46.5-112.25s46.125-111.375 46.5-112.25c.5-1.125 5.125-1.5 19.375-1.25l18.625.375zm-85.24996-3.875c-10.5 25.25-19.375 46.875-19.875 48-.75 2.125 1.625 2.25 39.5 2.25 32.25 0 40.12496-.375 39.74996-1.625-.875-3.5-39.12496-94.625-39.74996-94.625-.375 0-9.125 20.75-19.625 46z"/><path d="m0 0h824.995741v362.298984l-49.281226 49.915702 49.281226 48.945469v363.269218h-824.995741v-363.269218l49.5560468-49.563216-49.5560468-49.297955zm40.5880561 39.3983123v306.4330577l66.5489249 66.476305-66.5489249 66.9224v305.491301h744.9334499v-305.491301l-66.784076-66.9224 66.784076-66.476305v-306.4330577z"/><path d="m553.125 544 56.74996 81.125.375-81.125.25-81h20 20v113.75 113.75h-22.75-22.875l-50.62496-73.625-50.625-73.5-.375 73.625-.25 73.5h-21.25-21.25v-113.75-113.75h17.875 17.875z"/><path d="m348 482.875v19.875l-59.375 73.625-59.25 73.5 59.25.375 59.375.25v20 20h-86.25-86.25v-20.375l.125-20.25 59.75-73.125 59.75-73.125-59.875-.375-59.75-.25v-20-20h86.25 86.25z"/><path d="m339.5 161.375 26 26v61.875 61.875l-25.875 25.875-26 26h-69-69.125v-113.75-113.75h69 69.125zm-124 87.875v73.75h40.5 40.5l13.25-14.25 13.25-14.125v-45.25-45.375l-13.375-14.25-13.375-14.25h-40.375-40.375z"/></g></svg>