<svg enable-background="new 0 0 144.1 26.2" viewBox="0 0 144.1 26.2" xmlns="http://www.w3.org/2000/svg"><g fill="#80cbb4"><path d="m40.5 13.2c-.3-.3-.6-.5-1-.7s-.7-.3-1.1-.5c-.4-.1-.7-.3-1.1-.4s-.7-.3-1-.4-.5-.3-.7-.5-.3-.5-.3-.8c0-.2 0-.5.1-.7s.2-.4.4-.5.4-.3.6-.3c.3-.1.5-.1.9-.1.8 0 1.4.1 1.8.2l.2 1.6c0 .3.3.5.6.5h1.1v-.2-3.4c-1.2-.5-2.5-.7-3.8-.7-.7 0-1.3.1-1.8.3s-1 .5-1.3.8c-.4.3-.7.8-.8 1.2-.2.5-.3.9-.3 1.4 0 .6.1 1.1.3 1.5s.4.7.7 1 .6.5 1 .7.7.3 1.1.4.7.2 1.1.3.7.2 1 .4c.3.1.5.3.7.5s.3.5.3.9c0 .6-.2 1.1-.6 1.4s-.9.5-1.6.5c-.9 0-1.7-.1-2.2-.2l-.2-1.6c0-.3-.3-.5-.6-.5h-1.1v.2 2.4.1.9c1.3.5 2.6.7 3.8.7h.3c.7 0 1.4-.1 1.9-.3.6-.2 1.1-.5 1.4-.9.4-.4.7-.8.9-1.4.2-.5.3-1.1.3-1.7 0-.5-.1-1-.3-1.4-.2-.1-.4-.4-.7-.7z"/><path d="m44.5 7.3v.1 1.1 1.5h1.1c.3 0 .5-.2.6-.5l.1-1h2.4v9.4l-.9.1c-.3 0-.5.3-.5.6v1.1h1.4 1.2.1 1.2 1.4v-1.1c0-.3-.2-.5-.5-.6l-.9-.1v-9.3h2.4l.1.9c0 .3.3.5.6.5h1.1v-1.4-1.1-.1-.8h-11z"/><path d="m70.6 18-.9-.1-4.5-11.4h-2.5l-4.5 11.4-.9.1c-.3 0-.5.3-.5.6v1.1h2.6.1 2.6v-1.1c0-.3-.2-.5-.5-.6l-.9-.1.6-1.7h5.3l.6 1.7-.9.1c-.3 0-.5.3-.5.6v1.1h2.6.1 2.6v-1.1c-.1-.3-.3-.6-.5-.6zm-8.6-3.6s1.8-5.1 2-5.7c.2.6 2 5.7 2 5.7z"/><path d="m82.9 16.6c-.1 0-.1 0-.2 0s-.1.1-.2.1c-.2.2-.4.3-.6.5s-.4.2-.6.3-.5.1-.7.2c-.3 0-.6.1-.9.1-.6 0-1.1-.1-1.6-.3s-.9-.5-1.3-.9-.6-.9-.8-1.5-.3-1.2-.3-2c0-.7.1-1.4.3-2s.5-1.1.9-1.5.8-.7 1.3-.9 1.1-.3 1.7-.3 1.4.1 2.3.4l.2 1.4c0 .3.3.5.6.5h1.1v-3.4c-1.7-.6-3-.9-4.1-.9-1 0-1.9.2-2.8.5-.8.3-1.5.8-2.1 1.4s-1.1 1.3-1.4 2.1-.5 1.8-.5 2.7c0 1 .1 1.9.4 2.7s.7 1.5 1.3 2.1c.5.6 1.2 1.1 2 1.4s1.6.5 2.6.5c1.1 0 2-.2 2.8-.5s1.4-.9 2-1.5l-1-1.1c-.1-.1-.2-.1-.4-.1z"/><path d="m99.8 18-.7-.1-3.3-4.4c-.1-.2-.3-.4-.5-.5s-.3-.2-.5-.3c.1-.1.3-.2.4-.3s.3-.3.4-.4l2.9-3.7.8-.1c.3 0 .5-.3.5-.6v-1.1h-2.4-.1-2.6v1.1c0 .3.2.5.5.6l.7.1-2.6 3.3c-.1.1-.3.2-.4.3s-.3.1-.6.1h-.6v-3.7l.9-.1c.3 0 .5-.3.5-.6v-1.1h-2.6-.1-2.6v1.1c0 .3.2.5.5.6l.9.1v9.6l-.9.1c-.3 0-.5.3-.5.6v1.1h2.6.1 2.6v-1.1c0-.3-.2-.5-.5-.6l-.9-.1v-4h.8c.3 0 .5 0 .6.1s.3.2.4.3l2.7 3.6-.7.1c-.3 0-.5.3-.5.6v1.1h2.6.1 2.6v-1.1c0-.3-.2-.6-.5-.6z"/><path d="m107 6.5h-.1-1.2-1.4v1.1c0 .3.2.5.5.6l.9.1v9.6l-.9.1c-.3 0-.5.3-.5.6v1.1h1.4 1.2.1 2.6 4.5v-.8-.2-1-1.5h-1.1c-.3 0-.5.2-.6.5l-.2 1h-4v-3.7h4.5v-1.9h-4.5v-3.6h4l.2 1c0 .3.3.5.6.5h1.1v-1.5-1-.1-.8h-4.5-2.6z"/><path d="m129.7 18-1-.2-2.1-3c-.2-.3-.5-.6-.8-.8.5-.1.9-.3 1.2-.6.4-.2.7-.5.9-.8s.4-.7.6-1.1c.1-.4.2-.8.2-1.3 0-.6-.1-1.1-.3-1.5-.2-.5-.5-.9-.9-1.2s-.9-.6-1.6-.8c-.6-.2-1.4-.3-2.3-.3h-.1-2.6-.1-1.2-1.2v1.1c0 .3.2.5.5.6l.9.1v9.6l-.9.1c-.3 0-.5.3-.5.6v1.1h1.4 1.2.1 1.2 1.4v-1.1c0-.3-.2-.5-.5-.6l-.9-.1v-3.3h.9c.2 0 .4 0 .5.1s.2.2.3.3l2.8 4.2c.1.2.2.3.4.4.1.1.3.1.5.1h.1 2.5v-1.1c-.1-.2-.3-.5-.6-.5zm-4.8-5.4c-.3.1-.7.2-1.2.2h-1.4v-4.4h1.4c.9 0 1.6.2 2 .5.4.4.7.9.7 1.6 0 .3-.1.6-.2.9s-.3.5-.5.7-.5.4-.8.5z"/><path d="m142.8 6.5h-1.2-.1-1.3-1.3v1.1c0 .3.2.5.5.6l.8.1-2.4 4.2-2.4-4.2.8-.1c.3 0 .5-.3.5-.6v-1.1h-1.3-1.3-.1-1.2-1.4v1.1c0 .3.2.5.5.6l.9.1 3.7 6.2v3.3l-.9.1c-.3 0-.5.3-.5.6v1.1h1.4 1.2.1 1.2 1.4v-1.1c0-.3-.2-.5-.5-.6l-.9-.1v-3.3l3.7-6.2.9-.1c.3 0 .5-.3.5-.6v-1.1z"/><path d="m25.5 18.8c0-.1 0-.2-.1-.2 0-.1-.1-.1-.1-.2-.1-.1-.1-.1-.2-.1l-10.2-5.1c-.3-.1-.6-.1-.8 0-.2.2-.4.4-.4.7v4.2h-.6l-11.7-5.8c-.3-.1-.6-.1-.8 0-.2.2-.4.4-.4.7v8.5c0 .4.2.7.6.8l11.9 3.9h.3s.2 0 .3 0l11.9-3.9c.3-.1.6-.4.6-.8v-2.7c-.2 0-.2 0-.3 0zm-10.2-3.7 5.9 2.9h-5.9zm-13.5-.7 10.2 5v4.9l-10.2-3.4zm22.1 6.5-10.2 3.4v-4.6h.8 9.4z"/><path d="m25 3.9-11.9-3.9s0 0-.1 0h-.1-.1-.1-.1s0 0-.1 0l-11.9 3.9c-.3.1-.6.4-.6.8v2.7.1.1s0 .2.1.2c0 .1.1.1.1.2.1.1.1.1.2.1l10.2 5.1c.1.1.2.1.4.1s.3 0 .4-.1c.2-.2.4-.4.4-.7v-4.2h.6l11.7 5.8c.1.1.2.1.4.1s.3 0 .4-.1c.2-.2.4-.4.4-.7v-8.5c.3-.6 0-.9-.3-1zm-23.2 1.3 10.2-3.4v4.6h-.8-9.4zm8.6 5.8-5.9-2.9h5.9zm13.5.8-10.2-5v-4.9l10.2 3.4z"/></g></svg>