<?xml version="1.0" encoding="utf-8"?>
<!-- Generator: Adobe Illustrator 16.0.4, SVG Export Plug-In . SVG Version: 6.00 Build 0)  -->
<!DOCTYPE svg PUBLIC "-//W3C//DTD SVG 1.1//EN" "http://www.w3.org/Graphics/SVG/1.1/DTD/svg11.dtd">
<svg version="1.1" id="Layer_1" xmlns="http://www.w3.org/2000/svg" xmlns:xlink="http://www.w3.org/1999/xlink" x="0px" y="0px"
	 width="292.047px" height="120.218px" viewBox="0 0 292.047 120.218" enable-background="new 0 0 292.047 120.218"
	 xml:space="preserve">
<g>
	<defs>
		<rect id="SVGID_1_" width="292.047" height="120.218"/>
	</defs>
	<clipPath id="SVGID_2_">
		<use xlink:href="#SVGID_1_"  overflow="visible"/>
	</clipPath>
	<path clip-path="url(#SVGID_2_)" d="M285.724,50.784c-4.389-4.705-12.953-8.167-21.142-5.57c2.007-10.114-8.1-17.922-17.343-13.926
		c-0.982,0.424-1.639,1.175-2.659,1.519c-4.245-9.582-11.902-17.217-24.688-18.104c-6.789-0.47-12.688,1.686-16.964,4.432
		c-4.464,2.866-7.85,6.634-10.129,11.393c-2.921-2.714-10.153-3.56-14.305-1.772c-3.201-9.342-9.824-16.529-19.623-19.623
		c-11.649-3.678-23.647,0.4-29.877,6.457c-6.606-8.46-16.998-16.146-32.662-15.065C87.69,1.12,80.919,4.543,75.824,8.626
		c-1.824,1.461-3.278,3.096-4.938,4.304c-7.735-3.823-17.704-0.853-22.787,3.671c-3.835,3.413-6.151,8.375-6.837,14.053
		c-10.717-6.109-23.838,2.777-21.015,15.318c-5.552,0.566-9.788,2.605-12.913,5.824c-3.054,3.145-5.399,7.84-5.444,13.419
		C1.803,76.044,9.939,84.079,20.12,84.712c2.85,0.178,5.988-0.315,8.339-1.185c0.353-0.097,0.614-0.418,0.614-0.801
		c0-0.459-0.375-0.831-0.838-0.831c-0.093,0-0.182,0.016-0.266,0.044l-0.082,0.035c-2.28,0.924-4.76,1.371-7.514,1.219
		c-9.539-0.529-17.546-8.216-16.964-18.738c0.289-5.21,2.595-9.29,5.697-12.153c3.091-2.852,7.301-4.957,13.04-4.811
		c-2.754-8.636,2.479-16.741,10.887-17.344c3.936-0.281,7.293,1.363,9.748,3.672c-0.418-11.974,7.776-20.542,18.61-21.142
		c3.827-0.212,7.124,0.721,10.002,2.279C78.225,7.581,87.226,1.12,101.65,2.042c12.872,0.824,21.489,7.928,27.219,15.825
		c5.818-6.292,17.631-11.158,29.498-7.342c9.774,3.143,16.454,10.455,19.115,20.382c4.638-2.858,12.868-1.566,15.825,1.899
		c4.311-9.046,12.701-17.484,26.586-16.458c13.069,0.967,20.245,8.711,24.055,19.117c3.644-4.47,12.145-4.876,16.457-0.253
		c2.655,2.846,4.074,8.212,1.772,12.532c-0.024,0.103-0.127,0.127-0.127,0.254c2.798-1.319,5.65-2.379,9.748-2.152
		c5.59,0.31,9.591,2.768,12.533,5.823c3.05,3.167,5.317,7.365,5.317,13.041c0.001,10.293-7.583,18.232-17.724,18.863
		c-0.782,0.047-1.546,0.05-2.289,0.011l-0.002,0.005c-0.037-0.006-0.075-0.01-0.114-0.01c-0.447,0-0.811,0.329-0.811,0.734
		c0,0.312,0.229,0.589,0.52,0.684c0.172,0.057,0.363,0.084,0.544,0.095c12.189,0.676,20.81-8.796,21.396-19.369
		C291.509,59.562,288.938,54.229,285.724,50.784"/>
	<path clip-path="url(#SVGID_2_)" d="M33.014,82.749V39.94c0-0.637,0.276-0.955,0.828-0.955c0.17,0,0.34,0.106,0.51,0.318
		c0.17,0.213,0.255,0.425,0.255,0.637v21.022c1.274-2.589,3.11-4.671,5.51-6.243c2.399-1.571,5.043-2.357,7.931-2.357
		c4.205,0,7.782,1.519,10.734,4.555c2.951,3.037,4.428,6.699,4.428,10.989c0,4.289-1.477,7.974-4.428,11.052
		c-2.952,3.08-6.529,4.619-10.734,4.619c-2.888,0-5.532-0.786-7.931-2.357c-2.4-1.571-4.236-3.631-5.51-6.18v7.709
		c0,0.213-0.075,0.402-0.223,0.572c-0.15,0.171-0.329,0.256-0.542,0.256C33.29,83.577,33.014,83.301,33.014,82.749 M34.607,67.332
		v0.574c0,3.863,1.316,7.177,3.949,9.938c2.634,2.76,5.807,4.14,9.524,4.14c3.716,0,6.901-1.38,9.556-4.14
		c2.653-2.761,3.981-6.074,3.981-9.938c0-3.864-1.328-7.156-3.981-9.875c-2.655-2.718-5.808-4.077-9.46-4.077
		c-3.653,0-6.796,1.306-9.428,3.918C36.114,60.483,34.734,63.638,34.607,67.332"/>
	<path clip-path="url(#SVGID_2_)" d="M96.144,66.758v0.256c-0.086,0.51-0.341,0.765-0.765,0.765H67.605v0.191
		c0,3.822,1.326,7.103,3.981,9.842c2.653,2.738,5.85,4.131,9.588,4.173c2.335,0,4.491-0.573,6.465-1.72
		c1.975-1.147,3.557-2.696,4.746-4.65c0.297-0.424,0.669-0.488,1.115-0.192c0.446,0.299,0.52,0.66,0.223,1.083
		c-1.36,2.124-3.153,3.833-5.383,5.128c-2.229,1.297-4.619,1.944-7.166,1.944c-4.164-0.042-7.709-1.582-10.639-4.619
		c-2.93-3.036-4.438-6.699-4.523-10.988c0.085-4.332,1.593-8.016,4.523-11.052c2.93-3.036,6.423-4.555,10.479-4.555
		c4.055,0,7.517,1.38,10.384,4.14C94.264,59.264,95.846,62.682,96.144,66.758 M90.092,57.522c-2.548-2.335-5.532-3.504-8.95-3.504
		c-3.42,0-6.414,1.169-8.983,3.504c-2.569,2.336-4.067,5.245-4.491,8.728h26.883C94.126,62.768,92.64,59.858,90.092,57.522"/>
	<path clip-path="url(#SVGID_2_)" d="M127.039,70.008c0-3.228-3.737-5.542-11.212-6.943H115.7c-3.313-0.637-6.179-1.53-8.6-2.676
		c-2.421-1.147-4.194-2.622-5.319-4.427c-1.126-1.805-1.688-3.663-1.688-5.574c0-3.695,1.624-6.731,4.873-9.11
		c3.249-2.378,6.996-3.567,11.244-3.567c1.868,0,3.779,0.318,5.733,0.955c1.953,0.637,3.408,1.233,4.364,1.784
		c0.955,0.552,2.218,1.338,3.79,2.357c0.722,0.51,1.178,1.21,1.369,2.102c0.192,0.892,0.042,1.71-0.446,2.453
		c-0.488,0.743-1.178,1.21-2.07,1.401s-1.72,0.032-2.484-0.478c-1.997-1.359-3.77-2.378-5.32-3.057
		c-1.55-0.679-3.195-1.019-4.936-1.019c-2.803,0-5.097,0.658-6.88,1.974c-1.784,1.317-2.676,2.719-2.676,4.205
		c0,0.723,0.169,1.337,0.51,1.847c1.188,1.954,4.395,3.419,9.619,4.396h0.127c3.567,0.722,6.498,1.614,8.792,2.675
		c5.265,2.591,7.899,6.158,7.899,10.702c0,3.95-1.742,7.188-5.224,9.715c-3.483,2.527-7.496,3.79-12.04,3.79
		c-5.564-0.041-11-2.165-16.308-6.37c-0.68-0.551-1.073-1.295-1.178-2.23c-0.107-0.933,0.116-1.74,0.668-2.421
		c0.552-0.678,1.295-1.07,2.23-1.177c0.934-0.105,1.741,0.137,2.42,0.732c4.078,3.312,8.133,4.946,12.168,4.904
		c3.185,0,5.765-0.732,7.74-2.197C126.052,73.288,127.039,71.707,127.039,70.008"/>
	<path clip-path="url(#SVGID_2_)" d="M141.914,82.558c-0.701,0.68-1.529,1.02-2.485,1.02c-0.955,0-1.783-0.34-2.484-1.02
		s-1.051-1.507-1.051-2.484V42.488c0-0.977,0.339-1.805,1.019-2.485c0.679-0.678,1.507-1.019,2.484-1.019s1.816,0.341,2.517,1.019
		c0.701,0.68,1.051,1.508,1.051,2.485v11.084c2.335-1.231,4.608-1.848,6.817-1.848c3.82,0,7.091,1.37,9.809,4.109
		c2.718,2.74,4.077,6.021,4.077,9.842v14.397c0,0.978-0.339,1.805-1.02,2.484c-0.68,0.68-1.507,1.02-2.484,1.02
		s-1.806-0.34-2.483-1.02c-0.681-0.68-1.02-1.507-1.02-2.484V65.676c0-1.868-0.668-3.473-2.006-4.81
		c-1.339-1.338-2.963-2.028-4.873-2.07c-1.87,0.042-3.464,0.732-4.779,2.07c-1.317,1.337-1.996,2.941-2.038,4.81v14.397
		C142.965,81.051,142.615,81.878,141.914,82.558"/>
	<path clip-path="url(#SVGID_2_)" d="M169.114,78.927c-2.908-3.1-4.363-6.849-4.363-11.244c0-4.396,1.455-8.154,4.363-11.275
		c2.908-3.122,6.509-4.683,10.798-4.683c3.015,0,5.84,0.935,8.473,2.804c0.212-0.807,0.616-1.476,1.21-2.007
		c0.595-0.531,1.327-0.797,2.199-0.797c0.868,0,1.633,0.341,2.293,1.02c0.657,0.68,0.986,1.487,0.986,2.42V80.2
		c0,0.935-0.329,1.731-0.986,2.39c-0.66,0.657-1.425,0.987-2.293,0.987c-0.872,0-1.604-0.255-2.199-0.765
		c-0.594-0.51-0.998-1.168-1.21-1.976c-2.59,1.826-5.415,2.74-8.473,2.74C175.623,83.577,172.022,82.027,169.114,78.927
		 M171.566,67.683c0,2.569,0.774,4.726,2.325,6.466c1.55,1.742,3.546,2.612,5.988,2.612c2.441,0,4.459-0.87,6.052-2.612
		c1.593-1.74,2.389-3.886,2.389-6.434c0-2.549-0.807-4.715-2.42-6.498c-1.615-1.784-3.621-2.675-6.021-2.675
		s-4.386,0.882-5.956,2.643C172.353,62.948,171.566,65.114,171.566,67.683"/>
	<path clip-path="url(#SVGID_2_)" d="M207.622,55.547c0.978-1.146,2.314-2.07,4.015-2.771c1.696-0.701,3.248-1.04,4.649-1.019
		c1.401,0.022,2.431,0.35,3.089,0.987c0.658,0.637,0.987,1.413,0.987,2.325c0,0.914-0.329,1.71-0.987,2.389
		c-0.658,0.68-1.455,1.02-2.389,1.02c-3.949,0-7.071,3.207-9.364,9.618V80.2c0,0.934-0.341,1.731-1.02,2.389
		c-0.68,0.659-1.497,0.988-2.452,0.988c-0.956,0-1.762-0.329-2.421-0.988c-0.659-0.657-0.987-1.455-0.987-2.389V55.101
		c0-0.933,0.328-1.72,0.987-2.357c0.659-0.637,1.465-0.955,2.421-0.955c0.955,0,1.772,0.318,2.452,0.955
		c0.679,0.637,1.02,1.424,1.02,2.357V55.547z"/>
	<path clip-path="url(#SVGID_2_)" d="M227.848,94.502c-0.699,0.699-1.528,1.051-2.484,1.051c-0.955,0-1.773-0.352-2.452-1.051
		c-0.679-0.7-1.02-1.497-1.02-2.389V55.102c0-0.934,0.328-1.73,0.987-2.389c0.658-0.658,1.443-0.988,2.357-0.988
		c0.913,0,1.698,0.255,2.356,0.765c0.658,0.51,1.051,1.126,1.18,1.847c2.675-1.741,5.562-2.612,8.663-2.612
		c4.246,0,7.878,1.572,10.893,4.715c3.016,3.143,4.523,6.901,4.523,11.275s-1.508,8.102-4.523,11.18
		c-3.015,3.08-6.646,4.618-10.893,4.618c-3.271,0-6.116-0.869-8.535-2.611v11.212C228.9,93.005,228.549,93.802,227.848,94.502
		 M243.423,61.28c-1.656-1.741-3.674-2.612-6.052-2.612c-2.379,0-4.385,0.882-6.02,2.644c-1.636,1.762-2.451,3.96-2.451,6.593
		c0,2.635,0.826,4.693,2.482,6.18c1.614,1.783,3.601,2.676,5.957,2.676s4.373-0.893,6.052-2.676c1.678-1.783,2.517-3.896,2.517-6.34
		C245.908,65.305,245.079,63.15,243.423,61.28"/>
	<path clip-path="url(#SVGID_2_)" d="M257.787,82.653c-0.913-0.913-1.369-2.027-1.369-3.346c0-1.314,0.456-2.44,1.369-3.376
		c0.913-0.933,2.028-1.4,3.345-1.4c1.315,0,2.441,0.468,3.376,1.4c0.934,0.936,1.402,2.062,1.402,3.376
		c0,1.318-0.469,2.433-1.402,3.346c-0.935,0.914-2.061,1.369-3.376,1.369C259.815,84.022,258.7,83.567,257.787,82.653"/>
	<path clip-path="url(#SVGID_2_)" d="M62.311,107.328c0-0.225,0.116-0.415,0.35-0.573c0.233-0.159,0.481-0.239,0.742-0.239
		c0.336,0,0.551,0.141,0.644,0.42l3.584,9.969l2.884-9.1c0.079-0.271,0.283-0.408,0.613-0.408c0.33,0,0.535,0.16,0.613,0.477
		l2.772,9.213l3.669-10.147c0.055-0.281,0.26-0.423,0.615-0.423c0.262,0,0.509,0.075,0.743,0.225c0.232,0.149,0.35,0.346,0.35,0.588
		c0,0.168-0.038,0.309-0.113,0.42l-4.367,11.845c-0.094,0.298-0.337,0.447-0.728,0.447c-0.279,0-0.469-0.136-0.572-0.406
		l-2.923-9.131l-2.87,8.964c-0.106,0.382-0.362,0.573-0.77,0.573c-0.392,0-0.644-0.188-0.756-0.561l-4.368-11.731
		C62.348,107.599,62.311,107.459,62.311,107.328"/>
	<path clip-path="url(#SVGID_2_)" d="M81.995,114.692v-3.136c0-1.4,0.522-2.608,1.568-3.626c1.045-1.018,2.305-1.526,3.78-1.526
		c1.418,0,2.646,0.486,3.682,1.458c1.036,0.971,1.554,2.186,1.554,3.643c0,0.522-0.061,0.941-0.182,1.258
		c-0.122,0.317-0.318,0.54-0.588,0.671c-0.271,0.13-0.518,0.214-0.742,0.251c-0.224,0.037-0.532,0.056-0.924,0.056h-6.328v1.036
		c0,1.101,0.396,1.982,1.19,2.646c0.793,0.662,1.815,0.994,3.066,0.994c0.634,0,1.19-0.093,1.666-0.279
		c0.476-0.187,0.84-0.373,1.092-0.561c0.252-0.187,0.452-0.28,0.602-0.28c0.205,0,0.387,0.099,0.546,0.294
		c0.158,0.196,0.238,0.389,0.238,0.574c0,0.393-0.401,0.798-1.204,1.218c-0.803,0.421-1.801,0.631-2.996,0.631
		c-1.774,0-3.22-0.49-4.34-1.471C82.555,117.562,81.995,116.279,81.995,114.692 M83.815,112.396h5.6c0.56,0,0.933-0.061,1.12-0.182
		c0.186-0.12,0.28-0.376,0.28-0.765c0-0.927-0.332-1.743-0.994-2.449c-0.663-0.705-1.498-1.057-2.506-1.057
		c-0.971,0-1.797,0.334-2.478,1.002c-0.682,0.668-1.022,1.465-1.022,2.392V112.396z"/>
	<path clip-path="url(#SVGID_2_)" d="M101.259,119.089v-11.845c0-0.187,0.084-0.345,0.252-0.476
		c0.168-0.131,0.382-0.197,0.644-0.197c0.242,0,0.448,0.067,0.616,0.2c0.168,0.131,0.252,0.293,0.252,0.482v1.306
		c0.336-0.624,0.826-1.139,1.47-1.545c0.644-0.407,1.395-0.611,2.254-0.611c0.896,0,1.698,0.26,2.408,0.778
		c0.709,0.517,1.232,1.201,1.568,2.048c0.466-0.923,1.082-1.624,1.848-2.104c0.765-0.48,1.568-0.722,2.408-0.722
		c1.269,0,2.37,0.478,3.304,1.429c0.933,0.951,1.4,2.222,1.4,3.809v7.448c0,0.187-0.089,0.354-0.266,0.504
		c-0.178,0.148-0.397,0.224-0.658,0.224c-0.243,0-0.453-0.075-0.63-0.224c-0.178-0.149-0.266-0.317-0.266-0.503v-7.43
		c0-1.099-0.322-1.966-0.966-2.598c-0.644-0.634-1.386-0.951-2.226-0.951c-0.859,0-1.62,0.322-2.282,0.964
		c-0.663,0.644-0.994,1.468-0.994,2.473v7.569c0,0.467-0.308,0.699-0.924,0.699c-0.598,0-0.896-0.232-0.896-0.699v-7.542
		c0-0.986-0.313-1.81-0.938-2.471c-0.626-0.662-1.377-0.993-2.254-0.993c-0.878,0-1.648,0.322-2.31,0.964
		c-0.663,0.644-0.994,1.505-0.994,2.585v7.43c0,0.186-0.094,0.354-0.28,0.503c-0.187,0.148-0.402,0.224-0.644,0.224
		c-0.243,0-0.453-0.075-0.63-0.224C101.347,119.442,101.259,119.275,101.259,119.089"/>
	<path clip-path="url(#SVGID_2_)" d="M122.343,116.316c0-1.469,0.555-2.489,1.666-3.062c1.11-0.571,2.73-0.857,4.858-0.857h1.428
		v-0.659c0-1.008-0.271-1.882-0.812-2.624c-0.542-0.742-1.372-1.113-2.492-1.113c-0.747,0-1.424,0.133-2.03,0.399
		c-0.607,0.265-0.929,0.396-0.966,0.396c-0.224,0-0.402-0.1-0.532-0.302c-0.131-0.202-0.196-0.423-0.196-0.662
		c0-0.354,0.401-0.681,1.204-0.979c0.802-0.299,1.661-0.448,2.576-0.448c1.754,0,3.038,0.509,3.85,1.526s1.218,2.31,1.218,3.878
		v7.279c0,0.206-0.084,0.378-0.252,0.519c-0.168,0.14-0.383,0.21-0.644,0.21c-0.243,0-0.444-0.07-0.602-0.21
		c-0.159-0.141-0.238-0.312-0.238-0.519v-1.231c-1.251,1.438-2.66,2.156-4.228,2.156c-1.12,0-2.035-0.312-2.744-0.938
		C122.697,118.449,122.343,117.53,122.343,116.316 M124.163,116.148c0,0.784,0.224,1.367,0.672,1.75
		c0.448,0.383,1.036,0.574,1.764,0.574c0.877,0,1.712-0.326,2.506-0.98c0.793-0.654,1.19-1.307,1.19-1.96v-1.792h-1.176
		c-0.747,0-1.377,0.028-1.89,0.084c-0.514,0.056-1.022,0.159-1.526,0.308c-0.504,0.15-0.887,0.393-1.148,0.729
		C124.293,115.196,124.163,115.626,124.163,116.148"/>
	<path clip-path="url(#SVGID_2_)" d="M135.698,119.089V99.124c0-0.186,0.084-0.346,0.252-0.476c0.168-0.131,0.382-0.196,0.644-0.196
		c0.261,0,0.48,0.065,0.658,0.196c0.177,0.13,0.266,0.29,0.266,0.476v13.637l6.832-6.076c0.186-0.113,0.326-0.168,0.42-0.168
		c0.224,0,0.434,0.089,0.63,0.265c0.196,0.179,0.294,0.379,0.294,0.604c0,0.224-0.066,0.391-0.196,0.504l-4.116,3.611l4.844,7.084
		c0.074,0.15,0.112,0.279,0.112,0.393c0,0.205-0.104,0.411-0.309,0.616c-0.206,0.205-0.43,0.308-0.672,0.308
		c-0.224,0-0.411-0.112-0.56-0.336l-4.704-6.916l-2.576,2.268v4.173c0,0.187-0.089,0.354-0.266,0.504
		c-0.178,0.148-0.397,0.224-0.658,0.224c-0.243,0-0.453-0.075-0.63-0.224C135.787,119.442,135.698,119.275,135.698,119.089"/>
	<path clip-path="url(#SVGID_2_)" d="M147.739,114.692v-3.136c0-1.4,0.521-2.608,1.567-3.626c1.045-1.018,2.305-1.526,3.78-1.526
		c1.418,0,2.646,0.486,3.682,1.458c1.036,0.971,1.555,2.186,1.555,3.643c0,0.522-0.062,0.941-0.183,1.258
		c-0.122,0.317-0.316,0.54-0.588,0.671c-0.271,0.13-0.518,0.214-0.742,0.251c-0.224,0.037-0.532,0.056-0.924,0.056h-6.328v1.036
		c0,1.101,0.396,1.982,1.189,2.646c0.794,0.662,1.815,0.994,3.066,0.994c0.636,0,1.19-0.093,1.666-0.279s0.84-0.373,1.093-0.561
		c0.252-0.187,0.451-0.28,0.602-0.28c0.205,0,0.387,0.099,0.546,0.294c0.158,0.196,0.238,0.389,0.238,0.574
		c0,0.393-0.402,0.798-1.204,1.218c-0.802,0.421-1.801,0.631-2.996,0.631c-1.773,0-3.221-0.49-4.34-1.471
		C148.299,117.562,147.739,116.279,147.739,114.692 M149.559,112.396h5.601c0.56,0,0.933-0.061,1.119-0.182
		c0.187-0.12,0.28-0.376,0.28-0.765c0-0.927-0.332-1.743-0.994-2.449c-0.663-0.705-1.498-1.057-2.506-1.057
		c-0.971,0-1.797,0.334-2.479,1.002s-1.021,1.465-1.021,2.392V112.396z"/>
	<path clip-path="url(#SVGID_2_)" d="M167.366,119.089v-19.068c0-0.449,0.309-0.672,0.924-0.672c0.616,0,0.925,0.223,0.925,0.672
		v19.068c0,0.224-0.094,0.4-0.28,0.531c-0.188,0.131-0.402,0.196-0.645,0.196c-0.262,0-0.48-0.065-0.657-0.196
		C167.455,119.489,167.366,119.312,167.366,119.089"/>
	<path clip-path="url(#SVGID_2_)" d="M171.93,100.202c0-0.221,0.062-0.418,0.183-0.592c0.122-0.176,0.295-0.263,0.518-0.263h11.228
		c0.225,0,0.396,0.083,0.519,0.249c0.121,0.165,0.182,0.357,0.182,0.578c0,0.239-0.061,0.446-0.182,0.62
		c-0.122,0.175-0.294,0.261-0.519,0.261h-4.676v18.032c0,0.223-0.094,0.401-0.279,0.532c-0.188,0.131-0.402,0.196-0.645,0.196
		c-0.262,0-0.479-0.065-0.658-0.196c-0.178-0.131-0.266-0.31-0.266-0.532v-18.032h-4.704c-0.206,0-0.374-0.082-0.504-0.248
		C171.995,100.643,171.93,100.441,171.93,100.202"/>
	<path clip-path="url(#SVGID_2_)" d="M192.677,119.089v-11.845c0-0.187,0.084-0.345,0.252-0.476s0.383-0.197,0.645-0.197
		c0.243,0,0.449,0.067,0.617,0.2c0.168,0.131,0.252,0.293,0.252,0.481v1.391c0.336-0.623,0.83-1.153,1.482-1.587
		c0.653-0.435,1.409-0.653,2.27-0.653h0.979c0.188,0,0.355,0.086,0.504,0.258c0.149,0.17,0.226,0.369,0.226,0.598
		c0,0.227-0.076,0.427-0.226,0.598c-0.148,0.17-0.316,0.255-0.504,0.255h-0.979c-0.972,0-1.83,0.377-2.577,1.133
		c-0.747,0.754-1.12,1.736-1.12,2.946v6.899c0,0.186-0.089,0.354-0.265,0.503c-0.179,0.148-0.398,0.224-0.659,0.224
		c-0.243,0-0.453-0.075-0.629-0.224C192.766,119.442,192.677,119.275,192.677,119.089"/>
	<path clip-path="url(#SVGID_2_)" d="M201.973,114.748v-7.477c0-0.168,0.088-0.325,0.267-0.475c0.177-0.15,0.396-0.225,0.657-0.225
		c0.225,0,0.431,0.074,0.616,0.224c0.188,0.149,0.28,0.307,0.28,0.474v7.459c0,0.932,0.345,1.761,1.036,2.486
		c0.689,0.726,1.512,1.09,2.464,1.09s1.772-0.364,2.464-1.09s1.036-1.555,1.036-2.486v-7.486c0-0.186,0.093-0.345,0.28-0.475
		c0.186-0.13,0.4-0.195,0.644-0.195c0.242,0,0.452,0.065,0.63,0.196c0.177,0.13,0.267,0.289,0.267,0.476v7.504
		c0,1.399-0.528,2.628-1.582,3.683c-1.056,1.055-2.302,1.582-3.738,1.582c-1.456,0-2.707-0.527-3.752-1.582
		C202.495,117.376,201.973,116.147,201.973,114.748"/>
	<path clip-path="url(#SVGID_2_)" d="M216.168,119.089v-11.845c0-0.205,0.084-0.368,0.252-0.489
		c0.168-0.122,0.383-0.184,0.645-0.184c0.224,0,0.42,0.067,0.588,0.2c0.168,0.131,0.252,0.293,0.252,0.482v1.306
		c0.318-0.604,0.803-1.116,1.456-1.532c0.654-0.416,1.418-0.624,2.296-0.624c1.344,0,2.511,0.515,3.5,1.54
		c0.99,1.028,1.485,2.26,1.485,3.697v7.448c0,0.224-0.095,0.4-0.281,0.531s-0.401,0.196-0.645,0.196
		c-0.224,0-0.429-0.065-0.614-0.195c-0.188-0.132-0.281-0.308-0.281-0.531v-7.43c0-0.913-0.345-1.732-1.036-2.458
		c-0.69-0.727-1.512-1.091-2.464-1.091c-0.878,0-1.652,0.327-2.324,0.979s-1.008,1.509-1.008,2.57v7.43
		c0,0.186-0.093,0.354-0.28,0.503c-0.186,0.148-0.4,0.224-0.644,0.224c-0.262,0-0.477-0.075-0.645-0.224
		C216.252,119.442,216.168,119.275,216.168,119.089"/>
	<path clip-path="url(#SVGID_2_)" d="M229.58,118.6c0-0.401,0.117-0.737,0.353-1.009c0.233-0.271,0.531-0.406,0.893-0.406
		c0.325,0,0.609,0.141,0.854,0.422c0.243,0.28,0.365,0.611,0.365,0.993c0,0.36-0.122,0.683-0.365,0.964
		c-0.244,0.28-0.528,0.421-0.854,0.421c-0.361,0-0.659-0.136-0.893-0.406C229.697,119.308,229.58,118.98,229.58,118.6"/>
</g>
</svg>
