<svg enable-background="new 0 0 292.047 120.218" height="120.218" viewBox="0 0 292.047 120.218" width="292.047" xmlns="http://www.w3.org/2000/svg" xmlns:xlink="http://www.w3.org/1999/xlink"><clipPath id="a"><path d="m0 0h292.047v120.218h-292.047z"/></clipPath><path clip-path="url(#a)" d="m285.724 50.784c-4.389-4.705-12.953-8.167-21.142-5.57 2.007-10.114-8.1-17.922-17.343-13.926-.982.424-1.639 1.175-2.659 1.519-4.245-9.582-11.902-17.217-24.688-18.104-6.789-.47-12.688 1.686-16.964 4.432-4.464 2.866-7.85 6.634-10.129 11.393-2.921-2.714-10.153-3.56-14.305-1.772-3.201-9.342-9.824-16.529-19.623-19.623-11.649-3.678-23.647.4-29.877 6.457-6.606-8.46-16.998-16.146-32.662-15.065-8.642.595-15.413 4.018-20.508 8.101-1.824 1.461-3.278 3.096-4.938 4.304-7.735-3.823-17.704-.853-22.787 3.671-3.835 3.413-6.151 8.375-6.837 14.053-10.717-6.109-23.838 2.777-21.015 15.318-5.552.566-9.788 2.605-12.913 5.824-3.054 3.145-5.399 7.84-5.444 13.419-.087 10.829 8.049 18.864 18.23 19.497 2.85.178 5.988-.315 8.339-1.185.353-.097.614-.418.614-.801 0-.459-.375-.831-.838-.831-.093 0-.182.016-.266.044l-.082.035c-2.28.924-4.76 1.371-7.514 1.219-9.539-.529-17.546-8.216-16.964-18.738.289-5.21 2.595-9.29 5.697-12.153 3.091-2.852 7.301-4.957 13.04-4.811-2.754-8.636 2.479-16.741 10.887-17.344 3.936-.281 7.293 1.363 9.748 3.672-.418-11.974 7.776-20.542 18.61-21.142 3.827-.212 7.124.721 10.002 2.279 6.832-7.375 15.833-13.836 30.257-12.914 12.872.824 21.489 7.928 27.219 15.825 5.818-6.292 17.631-11.158 29.498-7.342 9.774 3.143 16.454 10.455 19.115 20.382 4.638-2.858 12.868-1.566 15.825 1.899 4.311-9.046 12.701-17.484 26.586-16.458 13.069.967 20.245 8.711 24.055 19.117 3.644-4.47 12.145-4.876 16.457-.253 2.655 2.846 4.074 8.212 1.772 12.532-.024.103-.127.127-.127.254 2.798-1.319 5.65-2.379 9.748-2.152 5.59.31 9.591 2.768 12.533 5.823 3.05 3.167 5.317 7.365 5.317 13.041.001 10.293-7.583 18.232-17.724 18.863-.782.047-1.546.05-2.289.011l-.002.005c-.037-.006-.075-.01-.114-.01-.447 0-.811.329-.811.734 0 .312.229.589.52.684.172.057.363.084.544.095 12.189.676 20.81-8.796 21.396-19.369.341-6.161-2.23-11.494-5.444-14.939"/><path clip-path="url(#a)" d="m33.014 82.749v-42.809c0-.637.276-.955.828-.955.17 0 .34.106.51.318.17.213.255.425.255.637v21.022c1.274-2.589 3.11-4.671 5.51-6.243 2.399-1.571 5.043-2.357 7.931-2.357 4.205 0 7.782 1.519 10.734 4.555 2.951 3.037 4.428 6.699 4.428 10.989 0 4.289-1.477 7.974-4.428 11.052-2.952 3.08-6.529 4.619-10.734 4.619-2.888 0-5.532-.786-7.931-2.357-2.4-1.571-4.236-3.631-5.51-6.18v7.709c0 .213-.075.402-.223.572-.15.171-.329.256-.542.256-.552 0-.828-.276-.828-.828m1.593-15.417v.574c0 3.863 1.316 7.177 3.949 9.938 2.634 2.76 5.807 4.14 9.524 4.14 3.716 0 6.901-1.38 9.556-4.14 2.653-2.761 3.981-6.074 3.981-9.938s-1.328-7.156-3.981-9.875c-2.655-2.718-5.808-4.077-9.46-4.077-3.653 0-6.796 1.306-9.428 3.918-2.634 2.611-4.014 5.766-4.141 9.46"/><path clip-path="url(#a)" d="m96.144 66.758v.256c-.086.51-.341.765-.765.765h-27.774v.191c0 3.822 1.326 7.103 3.981 9.842 2.653 2.738 5.85 4.131 9.588 4.173 2.335 0 4.491-.573 6.465-1.72 1.975-1.147 3.557-2.696 4.746-4.65.297-.424.669-.488 1.115-.192.446.299.52.66.223 1.083-1.36 2.124-3.153 3.833-5.383 5.128-2.229 1.297-4.619 1.944-7.166 1.944-4.164-.042-7.709-1.582-10.639-4.619-2.93-3.036-4.438-6.699-4.523-10.988.085-4.332 1.593-8.016 4.523-11.052s6.423-4.555 10.479-4.555c4.055 0 7.517 1.38 10.384 4.14 2.866 2.76 4.448 6.178 4.746 10.254m-6.052-9.236c-2.548-2.335-5.532-3.504-8.95-3.504-3.42 0-6.414 1.169-8.983 3.504-2.569 2.336-4.067 5.245-4.491 8.728h26.883c-.425-3.482-1.911-6.392-4.459-8.728"/><path clip-path="url(#a)" d="m127.039 70.008c0-3.228-3.737-5.542-11.212-6.943h-.127c-3.313-.637-6.179-1.53-8.6-2.676-2.421-1.147-4.194-2.622-5.319-4.427-1.126-1.805-1.688-3.663-1.688-5.574 0-3.695 1.624-6.731 4.873-9.11 3.249-2.378 6.996-3.567 11.244-3.567 1.868 0 3.779.318 5.733.955 1.953.637 3.408 1.233 4.364 1.784.955.552 2.218 1.338 3.79 2.357.722.51 1.178 1.21 1.369 2.102.192.892.042 1.71-.446 2.453s-1.178 1.21-2.07 1.401-1.72.032-2.484-.478c-1.997-1.359-3.77-2.378-5.32-3.057s-3.195-1.019-4.936-1.019c-2.803 0-5.097.658-6.88 1.974-1.784 1.317-2.676 2.719-2.676 4.205 0 .723.169 1.337.51 1.847 1.188 1.954 4.395 3.419 9.619 4.396h.127c3.567.722 6.498 1.614 8.792 2.675 5.265 2.591 7.899 6.158 7.899 10.702 0 3.95-1.742 7.188-5.224 9.715-3.483 2.527-7.496 3.79-12.04 3.79-5.564-.041-11-2.165-16.308-6.37-.68-.551-1.073-1.295-1.178-2.23-.107-.933.116-1.74.668-2.421.552-.678 1.295-1.07 2.23-1.177.934-.105 1.741.137 2.42.732 4.078 3.312 8.133 4.946 12.168 4.904 3.185 0 5.765-.732 7.74-2.197 1.975-1.466 2.962-3.047 2.962-4.746"/><path clip-path="url(#a)" d="m141.914 82.558c-.701.68-1.529 1.02-2.485 1.02-.955 0-1.783-.34-2.484-1.02s-1.051-1.507-1.051-2.484v-37.586c0-.977.339-1.805 1.019-2.485.679-.678 1.507-1.019 2.484-1.019s1.816.341 2.517 1.019c.701.68 1.051 1.508 1.051 2.485v11.084c2.335-1.231 4.608-1.848 6.817-1.848 3.82 0 7.091 1.37 9.809 4.109 2.718 2.74 4.077 6.021 4.077 9.842v14.397c0 .978-.339 1.805-1.02 2.484-.68.68-1.507 1.02-2.484 1.02s-1.806-.34-2.483-1.02c-.681-.68-1.02-1.507-1.02-2.484v-14.396c0-1.868-.668-3.473-2.006-4.81-1.339-1.338-2.963-2.028-4.873-2.07-1.87.042-3.464.732-4.779 2.07-1.317 1.337-1.996 2.941-2.038 4.81v14.397c0 .978-.35 1.805-1.051 2.485"/><path clip-path="url(#a)" d="m169.114 78.927c-2.908-3.1-4.363-6.849-4.363-11.244 0-4.396 1.455-8.154 4.363-11.275 2.908-3.122 6.509-4.683 10.798-4.683 3.015 0 5.84.935 8.473 2.804.212-.807.616-1.476 1.21-2.007.595-.531 1.327-.797 2.199-.797.868 0 1.633.341 2.293 1.02.657.68.986 1.487.986 2.42v25.035c0 .935-.329 1.731-.986 2.39-.66.657-1.425.987-2.293.987-.872 0-1.604-.255-2.199-.765-.594-.51-.998-1.168-1.21-1.976-2.59 1.826-5.415 2.74-8.473 2.74-4.289.001-7.89-1.549-10.798-4.649m2.452-11.244c0 2.569.774 4.726 2.325 6.466 1.55 1.742 3.546 2.612 5.988 2.612 2.441 0 4.459-.87 6.052-2.612 1.593-1.74 2.389-3.886 2.389-6.434 0-2.549-.807-4.715-2.42-6.498-1.615-1.784-3.621-2.675-6.021-2.675s-4.386.882-5.956 2.643c-1.57 1.763-2.357 3.929-2.357 6.498"/><path clip-path="url(#a)" d="m207.622 55.547c.978-1.146 2.314-2.07 4.015-2.771 1.696-.701 3.248-1.04 4.649-1.019 1.401.022 2.431.35 3.089.987s.987 1.413.987 2.325c0 .914-.329 1.71-.987 2.389-.658.68-1.455 1.02-2.389 1.02-3.949 0-7.071 3.207-9.364 9.618v12.104c0 .934-.341 1.731-1.02 2.389-.68.659-1.497.988-2.452.988-.956 0-1.762-.329-2.421-.988-.659-.657-.987-1.455-.987-2.389v-25.099c0-.933.328-1.72.987-2.357s1.465-.955 2.421-.955c.955 0 1.772.318 2.452.955.679.637 1.02 1.424 1.02 2.357z"/><path clip-path="url(#a)" d="m227.848 94.502c-.699.699-1.528 1.051-2.484 1.051-.955 0-1.773-.352-2.452-1.051-.679-.7-1.02-1.497-1.02-2.389v-37.011c0-.934.328-1.73.987-2.389.658-.658 1.443-.988 2.357-.988.913 0 1.698.255 2.356.765s1.051 1.126 1.18 1.847c2.675-1.741 5.562-2.612 8.663-2.612 4.246 0 7.878 1.572 10.893 4.715 3.016 3.143 4.523 6.901 4.523 11.275s-1.508 8.102-4.523 11.18c-3.015 3.08-6.646 4.618-10.893 4.618-3.271 0-6.116-.869-8.535-2.611v11.212c0 .891-.351 1.688-1.052 2.388m15.575-33.222c-1.656-1.741-3.674-2.612-6.052-2.612-2.379 0-4.385.882-6.02 2.644-1.636 1.762-2.451 3.96-2.451 6.593 0 2.635.826 4.693 2.482 6.18 1.614 1.783 3.601 2.676 5.957 2.676s4.373-.893 6.052-2.676c1.678-1.783 2.517-3.896 2.517-6.34 0-2.44-.829-4.595-2.485-6.465"/><path clip-path="url(#a)" d="m257.787 82.653c-.913-.913-1.369-2.027-1.369-3.346 0-1.314.456-2.44 1.369-3.376.913-.933 2.028-1.4 3.345-1.4 1.315 0 2.441.468 3.376 1.4.934.936 1.402 2.062 1.402 3.376 0 1.318-.469 2.433-1.402 3.346-.935.914-2.061 1.369-3.376 1.369-1.317 0-2.432-.455-3.345-1.369"/><path clip-path="url(#a)" d="m62.311 107.328c0-.225.116-.415.35-.573.233-.159.481-.239.742-.239.336 0 .551.141.644.42l3.584 9.969 2.884-9.1c.079-.271.283-.408.613-.408s.535.16.613.477l2.772 9.213 3.669-10.147c.055-.281.26-.423.615-.423.262 0 .509.075.743.225.232.149.35.346.35.588 0 .168-.038.309-.113.42l-4.367 11.845c-.094.298-.337.447-.728.447-.279 0-.469-.136-.572-.406l-2.923-9.131-2.87 8.964c-.106.382-.362.573-.77.573-.392 0-.644-.188-.756-.561l-4.368-11.731c-.075-.151-.112-.291-.112-.422"/><path clip-path="url(#a)" d="m81.995 114.692v-3.136c0-1.4.522-2.608 1.568-3.626 1.045-1.018 2.305-1.526 3.78-1.526 1.418 0 2.646.486 3.682 1.458 1.036.971 1.554 2.186 1.554 3.643 0 .522-.061.941-.182 1.258-.122.317-.318.54-.588.671-.271.13-.518.214-.742.251s-.532.056-.924.056h-6.328v1.036c0 1.101.396 1.982 1.19 2.646.793.662 1.815.994 3.066.994.634 0 1.19-.093 1.666-.279.476-.187.84-.373 1.092-.561.252-.187.452-.28.602-.28.205 0 .387.099.546.294.158.196.238.389.238.574 0 .393-.401.798-1.204 1.218-.803.421-1.801.631-2.996.631-1.774 0-3.22-.49-4.34-1.471s-1.68-2.264-1.68-3.851m1.82-2.296h5.6c.56 0 .933-.061 1.12-.182.186-.12.28-.376.28-.765 0-.927-.332-1.743-.994-2.449-.663-.705-1.498-1.057-2.506-1.057-.971 0-1.797.334-2.478 1.002-.682.668-1.022 1.465-1.022 2.392z"/><path clip-path="url(#a)" d="m101.259 119.089v-11.845c0-.187.084-.345.252-.476s.382-.197.644-.197c.242 0 .448.067.616.2.168.131.252.293.252.482v1.306c.336-.624.826-1.139 1.47-1.545.644-.407 1.395-.611 2.254-.611.896 0 1.698.26 2.408.778.709.517 1.232 1.201 1.568 2.048.466-.923 1.082-1.624 1.848-2.104.765-.48 1.568-.722 2.408-.722 1.269 0 2.37.478 3.304 1.429.933.951 1.4 2.222 1.4 3.809v7.448c0 .187-.089.354-.266.504-.178.148-.397.224-.658.224-.243 0-.453-.075-.63-.224-.178-.149-.266-.317-.266-.503v-7.43c0-1.099-.322-1.966-.966-2.598-.644-.634-1.386-.951-2.226-.951-.859 0-1.62.322-2.282.964-.663.644-.994 1.468-.994 2.473v7.569c0 .467-.308.699-.924.699-.598 0-.896-.232-.896-.699v-7.542c0-.986-.313-1.81-.938-2.471-.626-.662-1.377-.993-2.254-.993-.878 0-1.648.322-2.31.964-.663.644-.994 1.505-.994 2.585v7.43c0 .186-.094.354-.28.503-.187.148-.402.224-.644.224-.243 0-.453-.075-.63-.224-.178-.151-.266-.318-.266-.504"/><path clip-path="url(#a)" d="m122.343 116.316c0-1.469.555-2.489 1.666-3.062 1.11-.571 2.73-.857 4.858-.857h1.428v-.659c0-1.008-.271-1.882-.812-2.624-.542-.742-1.372-1.113-2.492-1.113-.747 0-1.424.133-2.03.399-.607.265-.929.396-.966.396-.224 0-.402-.1-.532-.302-.131-.202-.196-.423-.196-.662 0-.354.401-.681 1.204-.979.802-.299 1.661-.448 2.576-.448 1.754 0 3.038.509 3.85 1.526s1.218 2.31 1.218 3.878v7.279c0 .206-.084.378-.252.519-.168.14-.383.21-.644.21-.243 0-.444-.07-.602-.21-.159-.141-.238-.312-.238-.519v-1.231c-1.251 1.438-2.66 2.156-4.228 2.156-1.12 0-2.035-.312-2.744-.938-.71-.626-1.064-1.545-1.064-2.759m1.82-.168c0 .784.224 1.367.672 1.75s1.036.574 1.764.574c.877 0 1.712-.326 2.506-.98.793-.654 1.19-1.307 1.19-1.96v-1.792h-1.176c-.747 0-1.377.028-1.89.084-.514.056-1.022.159-1.526.308-.504.15-.887.393-1.148.729-.262.335-.392.765-.392 1.287"/><path clip-path="url(#a)" d="m135.698 119.089v-19.965c0-.186.084-.346.252-.476.168-.131.382-.196.644-.196.261 0 .48.065.658.196.177.13.266.29.266.476v13.637l6.832-6.076c.186-.113.326-.168.42-.168.224 0 .434.089.63.265.196.179.294.379.294.604 0 .224-.066.391-.196.504l-4.116 3.611 4.844 7.084c.074.15.112.279.112.393 0 .205-.104.411-.309.616-.206.205-.43.308-.672.308-.224 0-.411-.112-.56-.336l-4.704-6.916-2.576 2.268v4.173c0 .187-.089.354-.266.504-.178.148-.397.224-.658.224-.243 0-.453-.075-.63-.224-.176-.153-.265-.32-.265-.506"/><path clip-path="url(#a)" d="m147.739 114.692v-3.136c0-1.4.521-2.608 1.567-3.626 1.045-1.018 2.305-1.526 3.78-1.526 1.418 0 2.646.486 3.682 1.458 1.036.971 1.555 2.186 1.555 3.643 0 .522-.062.941-.183 1.258-.122.317-.316.54-.588.671-.271.13-.518.214-.742.251s-.532.056-.924.056h-6.328v1.036c0 1.101.396 1.982 1.189 2.646.794.662 1.815.994 3.066.994.636 0 1.19-.093 1.666-.279s.84-.373 1.093-.561c.252-.187.451-.28.602-.28.205 0 .387.099.546.294.158.196.238.389.238.574 0 .393-.402.798-1.204 1.218-.802.421-1.801.631-2.996.631-1.773 0-3.221-.49-4.34-1.471s-1.679-2.264-1.679-3.851m1.82-2.296h5.601c.56 0 .933-.061 1.119-.182.187-.12.28-.376.28-.765 0-.927-.332-1.743-.994-2.449-.663-.705-1.498-1.057-2.506-1.057-.971 0-1.797.334-2.479 1.002s-1.021 1.465-1.021 2.392z"/><path clip-path="url(#a)" d="m167.366 119.089v-19.068c0-.449.309-.672.924-.672.616 0 .925.223.925.672v19.068c0 .224-.094.4-.28.531-.188.131-.402.196-.645.196-.262 0-.48-.065-.657-.196-.178-.131-.267-.308-.267-.531"/><path clip-path="url(#a)" d="m171.93 100.202c0-.221.062-.418.183-.592.122-.176.295-.263.518-.263h11.228c.225 0 .396.083.519.249.121.165.182.357.182.578 0 .239-.061.446-.182.62-.122.175-.294.261-.519.261h-4.676v18.032c0 .223-.094.401-.279.532-.188.131-.402.196-.645.196-.262 0-.479-.065-.658-.196-.178-.131-.266-.31-.266-.532v-18.032h-4.704c-.206 0-.374-.082-.504-.248-.132-.164-.197-.366-.197-.605"/><path clip-path="url(#a)" d="m192.677 119.089v-11.845c0-.187.084-.345.252-.476s.383-.197.645-.197c.243 0 .449.067.617.2.168.131.252.293.252.481v1.391c.336-.623.83-1.153 1.482-1.587.653-.435 1.409-.653 2.27-.653h.979c.188 0 .355.086.504.258.149.17.226.369.226.598 0 .227-.076.427-.226.598-.148.17-.316.255-.504.255h-.979c-.972 0-1.83.377-2.577 1.133-.747.754-1.12 1.736-1.12 2.946v6.899c0 .186-.089.354-.265.503-.179.148-.398.224-.659.224-.243 0-.453-.075-.629-.224-.179-.151-.268-.318-.268-.504"/><path clip-path="url(#a)" d="m201.973 114.748v-7.477c0-.168.088-.325.267-.475.177-.15.396-.225.657-.225.225 0 .431.074.616.224.188.149.28.307.28.474v7.459c0 .932.345 1.761 1.036 2.486.689.726 1.512 1.09 2.464 1.09s1.772-.364 2.464-1.09 1.036-1.555 1.036-2.486v-7.486c0-.186.093-.345.28-.475.186-.13.4-.195.644-.195.242 0 .452.065.63.196.177.13.267.289.267.476v7.504c0 1.399-.528 2.628-1.582 3.683-1.056 1.055-2.302 1.582-3.738 1.582-1.456 0-2.707-.527-3.752-1.582-1.047-1.055-1.569-2.284-1.569-3.683"/><path clip-path="url(#a)" d="m216.168 119.089v-11.845c0-.205.084-.368.252-.489.168-.122.383-.184.645-.184.224 0 .42.067.588.2.168.131.252.293.252.482v1.306c.318-.604.803-1.116 1.456-1.532.654-.416 1.418-.624 2.296-.624 1.344 0 2.511.515 3.5 1.54.99 1.028 1.485 2.26 1.485 3.697v7.448c0 .224-.095.4-.281.531s-.401.196-.645.196c-.224 0-.429-.065-.614-.195-.188-.132-.281-.308-.281-.531v-7.43c0-.913-.345-1.732-1.036-2.458-.69-.727-1.512-1.091-2.464-1.091-.878 0-1.652.327-2.324.979s-1.008 1.509-1.008 2.57v7.43c0 .186-.093.354-.28.503-.186.148-.4.224-.644.224-.262 0-.477-.075-.645-.224-.168-.15-.252-.317-.252-.503"/><path clip-path="url(#a)" d="m229.58 118.6c0-.401.117-.737.353-1.009.233-.271.531-.406.893-.406.325 0 .609.141.854.422.243.28.365.611.365.993 0 .36-.122.683-.365.964-.244.28-.528.421-.854.421-.361 0-.659-.136-.893-.406-.236-.271-.353-.599-.353-.979"/></svg>