<?xml version="1.0" encoding="UTF-8" standalone="no"?>
<svg
   xmlns:dc="http://purl.org/dc/elements/1.1/"
   xmlns:cc="http://creativecommons.org/ns#"
   xmlns:rdf="http://www.w3.org/1999/02/22-rdf-syntax-ns#"
   xmlns:svg="http://www.w3.org/2000/svg"
   xmlns="http://www.w3.org/2000/svg"
   viewBox="0 0 1360.5732 688.10669"
   height="688.10669"
   width="1360.5732"
   xml:space="preserve"
   id="svg2"
   version="1.1"><metadata
     id="metadata8"><rdf:RDF><cc:Work
         rdf:about=""><dc:format>image/svg+xml</dc:format><dc:type
           rdf:resource="http://purl.org/dc/dcmitype/StillImage" /></cc:Work></rdf:RDF></metadata><defs
     id="defs6" /><g
     transform="matrix(1.3333333,0,0,-1.3333333,0,688.10667)"
     id="g10"><g
       transform="scale(0.1)"
       id="g12"><path
         id="path14"
         style="fill:#2a883b;fill-opacity:1;fill-rule:nonzero;stroke:none"
         d="M 3595.24,2949.75 4797.4,4151.91 c 152.53,152.53 399.83,152.53 552.36,0 L 6551.92,2949.75 c 152.53,-152.53 152.53,-399.83 0,-552.36 L 5349.76,1195.23 c -152.53,-152.52 -399.83,-152.52 -552.36,0 L 3595.24,2397.39 c -152.53,152.53 -152.53,399.83 0,552.36" /><path
         id="path16"
         style="fill:none;stroke:#040606;stroke-width:0.81381899;stroke-linecap:butt;stroke-linejoin:miter;stroke-miterlimit:4;stroke-dasharray:none;stroke-opacity:1"
         d="M 3595.24,2949.75 4797.4,4151.91 c 152.53,152.53 399.83,152.53 552.36,0 L 6551.92,2949.75 c 152.53,-152.53 152.53,-399.83 0,-552.36 L 5349.76,1195.23 c -152.53,-152.52 -399.83,-152.52 -552.36,0 L 3595.24,2397.39 c -152.53,152.53 -152.53,399.83 0,552.36 z" /><path
         id="path18"
         style="fill:#ffffff;fill-opacity:1;fill-rule:nonzero;stroke:none"
         d="m 6281.78,3051.28 c 7.09,-0.22 14.33,-3.27 19.67,-8.79 10.67,-11.04 10.15,-26.63 -0.84,-36.82 -10.99,-10.2 -28.66,-9.79 -39.34,1.25 -10.68,11.04 -10.15,26.63 0.83,36.83 5.5,5.09 12.58,7.75 19.68,7.53 z m 1.67,47.29 c -19.11,0.58 -38.61,-5.79 -53.56,-19.67 -29.92,-27.75 -30.89,-75.7 -2.51,-105.04 22,-22.76 55.03,-28.13 82.86,-16.74 l 175.34,-174.51 33.49,33.9 -173.68,172 c 15.74,27.58 13.12,63.09 -10.04,87.04 -14.19,14.68 -32.79,22.44 -51.9,23.02" /><path
         id="path20"
         style="fill:#ffffff;fill-opacity:1;fill-rule:nonzero;stroke:none"
         d="m 3735.7,2731.2 h 215.35 c 15.21,-2.14 22.82,-9.74 22.82,-22.82 v -74.16 c 0,-17.11 -11.88,-25.67 -35.65,-25.67 h -34.23 c -23.77,0 -35.66,10.93 -35.66,32.8 v 44.21 h -79.86 v -121.22 h 161.15 c 16.17,-2.62 24.25,-10.7 24.25,-24.25 v -1.42 c 0,-13.55 -8.56,-21.63 -25.67,-24.25 h -235.32 c -19.97,0 -29.95,11.41 -29.95,34.23 v 132.64 c 16.64,33.27 34.23,49.91 52.77,49.91" /><path
         id="path22"
         style="fill:#ffffff;fill-opacity:1;fill-rule:nonzero;stroke:none"
         d="m 4360.36,2732.63 h 395.05 c 22.11,0 41.12,-16.64 57.05,-49.92 v -132.64 c 0,-22.81 -8.56,-34.22 -25.67,-34.22 h -54.19 c -18.07,0 -27.1,13.31 -27.1,39.93 v 131.21 h -79.87 l 1.43,-7.13 V 2545.8 c 0,-17.12 -7.61,-27.1 -22.82,-29.95 h -57.05 c -17.11,3.33 -25.67,11.88 -25.67,25.67 v 145.47 h -79.87 v -145.47 c 0,-18.07 -10.45,-27.1 -31.37,-27.1 h -47.06 c -18.07,3.09 -27.1,11.65 -27.1,25.67 v 169.72 c 0,13.07 8.08,20.67 24.24,22.82" /><path
         id="path24"
         style="fill:#ffffff;fill-opacity:1;fill-rule:nonzero;stroke:none"
         d="m 5197.52,2900.91 h 5.72 c 11.88,0 19.48,-8.55 22.81,-25.66 v -89.85 h 25.67 c 18.07,-0.01 27.1,-10.94 27.1,-32.81 v -39.93 l 38.51,-152.6 h 1.42 l 38.51,148.32 v 158.31 c 0,22.81 8.55,34.22 25.67,34.22 h 55.62 c 16.16,-2.61 24.25,-10.69 24.25,-24.24 v -165.44 c -0.96,-9.51 -16.16,-67.98 -45.64,-175.42 -8.56,-14.26 -20.45,-21.39 -35.65,-21.39 h -129.79 c -16.4,0 -28.29,9.99 -35.65,29.95 l -42.78,164.01 v 168.29 c 2.85,16.16 10.92,24.24 24.23,24.24" /><path
         id="path26"
         style="fill:#ffffff;fill-opacity:1;fill-rule:nonzero;stroke:none"
         d="m 5524.13,2900.91 h 5.7 c 15.2,-4.27 22.81,-12.83 22.81,-25.66 v -88.43 h 25.67 c 12.84,0 21.4,-7.6 25.68,-22.82 v -32.8 h 58.47 c 15.21,-2.14 22.82,-9.74 22.82,-22.82 v -2.85 c -3.8,-13.31 -10.46,-19.97 -19.96,-19.97 h -61.33 v -125.5 h 165.43 c 13.32,-3.8 19.97,-10.46 19.97,-19.97 v -2.85 c 0,-13.31 -8.09,-20.92 -24.25,-22.82 h -235.31 c -20.92,0 -31.38,11.89 -31.38,35.65 v 316.62 c 0,22.81 8.56,34.22 25.68,34.22" /><path
         id="path28"
         style="fill:#ffffff;fill-opacity:1;fill-rule:nonzero;stroke:none"
         d="m 6204.41,2731.2 h 215.35 c 15.21,-2.14 22.81,-9.74 22.82,-22.82 v -72.73 c -0.01,-18.07 -11.89,-27.1 -35.66,-27.1 h -34.22 c -23.78,0 -35.66,10.46 -35.66,31.37 v 45.64 h -79.87 v -144.04 c -3.56,-17.11 -12.12,-25.67 -25.66,-25.67 h -52.78 c -18.06,0 -27.09,10.93 -27.09,32.8 v 129.78 c 14.73,35.18 32.33,52.77 52.77,52.77" /><path
         id="path30"
         style="fill:#ffffff;fill-opacity:1;fill-rule:nonzero;stroke:none"
         d="m 5090.75,4147.32 c 14.85,-2.37 25.43,-16.37 23.01,-32.23 -2.41,-15.86 -16.11,-25.8 -30.97,-23.43 -14.86,2.36 -25,16.36 -22.6,32.22 2.42,15.86 15.7,25.8 30.56,23.44 z m 7.53,46.87 c -40.52,6.45 -78.57,-22.24 -84.96,-62.78 v -0.42 c -2.53,-16.69 1.81,-32.45 9.21,-46.45 l -1273.47,-1273.47 33.47,-33.49 1274.32,1273.9 c 5.93,-2.72 11.67,-5.62 18.41,-6.69 40.65,-6.48 79.18,22.44 85.37,63.18 6.2,40.76 -21.7,79.74 -62.35,86.22" /><path
         id="path32"
         style="fill:#ffffff;fill-opacity:1;fill-rule:nonzero;stroke:none"
         d="m 5230.52,4017.58 c 14.46,-2.3 24.54,-15.87 22.18,-31.38 -2.36,-15.52 -15.67,-24.9 -30.13,-22.6 -14.46,2.29 -24.54,15.87 -22.18,31.38 2.37,15.51 15.67,24.9 30.13,22.6 z m 7.53,46.87 c -40.28,6.4 -78.38,-21.98 -84.53,-62.35 -2.21,-14.52 1.19,-28.36 6.7,-41.01 l -1151.28,-1150.86 33.9,-33.48 1148.77,1148.76 c 7.2,-3.99 14.85,-7.42 23.42,-8.79 40.3,-6.39 78.39,21.99 84.54,62.36 6.16,40.37 -21.23,78.98 -61.52,85.37" /><path
         id="path34"
         style="fill:#ffffff;fill-opacity:1;fill-rule:nonzero;stroke:none"
         d="m 4382.66,2906.48 c 6.59,0.38 13.25,-2.02 18.83,-7.11 11.16,-10.19 12.13,-27.88 2.09,-39.34 -10.04,-11.46 -25.67,-12.28 -36.83,-2.09 -11.16,10.19 -12.13,27.88 -2.09,39.34 5.02,5.72 11.4,8.82 18,9.2 z m 430.21,440.25 c 6.6,0.26 13.33,-2.33 18.83,-7.52 10.99,-10.4 11.48,-27.66 1.25,-38.93 -10.22,-11.26 -25.83,-12.07 -36.82,-1.67 -11,10.4 -11.91,28.07 -1.68,39.34 5.11,5.63 11.81,8.53 18.42,8.78 z m -1.68,46.88 c -19.05,-0.74 -37.76,-8.75 -51.47,-23.86 -21.83,-24.04 -24.52,-58.43 -10.05,-85.79 l -336.88,-337.3 c -28.41,12.15 -62.71,6.44 -84.12,-18 -26.9,-30.7 -24.28,-77.95 5.86,-105.46 30.14,-27.52 77.73,-24.84 104.62,5.86 21.34,24.36 23.6,58.72 8.79,85.79 l 336.47,336.47 c 28.1,-12.36 61.99,-6.76 83.69,17.16 27.44,30.22 25.89,77.42 -3.76,105.46 -14.83,14.02 -34.09,20.41 -53.15,19.67" /><path
         id="path36"
         style="fill:#ffffff;fill-opacity:1;fill-rule:nonzero;stroke:none"
         d="m 5479.53,3524.18 c 6.58,0.39 13.47,-1.96 19.24,-7.12 11.56,-10.32 12.59,-27.63 2.93,-38.91 -9.64,-11.3 -25.27,-12.42 -36.82,-2.1 -11.56,10.32 -12.58,27.63 -2.93,38.92 4.82,5.65 10.99,8.82 17.58,9.21 z m -2.93,46.87 c -19.04,-1.18 -37.81,-9.6 -51.06,-25.11 -21.02,-24.6 -22.33,-58.89 -7.12,-85.79 l -302.57,-302.57 -7.11,-6.7 v -10.04 -153.59 h 47.71 v 143.96 L 5454,3428.76 c 28.55,-11.99 62.59,-6.28 83.7,18.41 26.51,31.01 22.91,78.27 -7.54,105.47 -15.22,13.6 -34.53,19.58 -53.56,18.41" /><path
         id="path38"
         style="fill:#ffffff;fill-opacity:1;fill-rule:nonzero;stroke:none"
         d="m 5700.91,3258.85 c 14.46,-2.29 24.54,-15.87 22.18,-31.38 -2.36,-15.52 -15.67,-25.32 -30.14,-23.02 -14.45,2.29 -24.54,15.87 -22.17,31.39 2.36,15.51 15.67,25.31 30.13,23.01 z m 7.53,46.87 c -40.28,6.4 -78.39,-22.4 -84.53,-62.77 -2.41,-15.83 1.7,-30.47 8.37,-43.94 l -189.58,-189.16 33.48,-33.48 189.16,188.74 c 6.41,-3.18 12.67,-6.35 20.08,-7.53 40.29,-6.4 78.39,22.4 84.54,62.77 6.15,40.37 -21.24,78.98 -61.52,85.37" /><path
         id="path40"
         style="fill:#ffffff;fill-opacity:1;fill-rule:nonzero;stroke:none"
         d="m 5383.28,3873.62 c 6.53,0.24 13.39,-1.94 18.82,-7.11 10.87,-10.34 11.42,-27.79 1.26,-38.93 -10.16,-11.13 -25.96,-11.59 -36.83,-1.25 -10.86,10.34 -11.42,27.37 -1.25,38.5 5.08,5.57 11.45,8.56 18,8.79 z m -1.68,46.87 c -19,-0.68 -37.77,-8.41 -51.48,-23.43 -27.42,-30.05 -25.7,-77.42 3.77,-105.46 22.92,-21.81 56.47,-24.82 83.28,-11.31 l 649.5,-649.5 v -315.96 h 47.29 v 325.59 10.05 l -6.69,6.69 -657.46,657.45 c 13.28,28.53 8.79,63.52 -15.06,86.21 -14.74,14.02 -34.16,20.35 -53.15,19.67" /><path
         id="path42"
         style="fill:#ffffff;fill-opacity:1;fill-rule:nonzero;stroke:none"
         d="m 5888.39,3077.23 c 6.6,0.26 13.34,-2.34 18.84,-7.54 10.99,-10.39 11.48,-28.07 1.25,-39.33 -10.22,-11.27 -25.83,-11.66 -36.83,-1.26 -10.99,10.4 -11.9,28.07 -1.68,39.34 5.12,5.63 11.82,8.53 18.42,8.79 z m -1.67,46.87 c -19.06,-0.74 -38.18,-8.74 -51.89,-23.85 -21.89,-24.12 -24.25,-58.82 -9.63,-86.22 l -102.53,-102.52 33.48,-33.49 103.79,103.79 c 28.1,-12.38 61.98,-7.19 83.7,16.74 27.43,30.23 25.89,77.42 -3.77,105.46 -14.83,14.02 -34.09,20.83 -53.15,20.09" /><path
         id="path44"
         style="fill:#ffffff;fill-opacity:1;fill-rule:nonzero;stroke:none"
         d="m 4363.82,2243.59 c 6.6,0.26 13.34,-1.92 18.84,-7.11 10.99,-10.4 11.48,-28.08 1.25,-39.34 -10.23,-11.27 -25.83,-12.08 -36.83,-1.68 -10.99,10.4 -11.9,28.07 -1.67,39.34 5.11,5.63 11.81,8.53 18.41,8.79 z m -23.85,195.85 v -154 c -10.96,-3.92 -21.41,-9.68 -29.72,-18.84 -27.42,-30.22 -25.47,-77.42 4.19,-105.46 29.65,-28.03 77.2,-26.03 104.62,4.19 27.43,30.23 25.47,77.42 -4.18,105.46 -8.07,7.63 -17.23,12.67 -27.2,15.9 v 152.75 h -47.71" /><path
         id="path46"
         style="fill:#ffffff;fill-opacity:1;fill-rule:nonzero;stroke:none"
         d="m 4152.06,2069.91 c 6.61,0.26 13.34,-2.33 18.84,-7.53 10.99,-10.4 11.48,-27.65 1.25,-38.92 -10.23,-11.27 -25.83,-12.07 -36.83,-1.67 -10.99,10.39 -11.9,28.06 -1.67,39.33 5.11,5.64 11.81,8.53 18.41,8.79 z m -257.37,366.61 v -171.59 l 6.7,-7.12 185.39,-184.97 c -12.89,-28.55 -7.94,-62.83 15.9,-85.37 29.65,-28.04 77.2,-26.46 104.62,3.76 27.44,30.23 25.89,77.84 -3.76,105.88 -23.3,22.03 -57.55,24.61 -84.54,10.47 l -177.02,177.02 v 151.92 h -47.29" /><path
         id="path48"
         style="fill:#ffffff;fill-opacity:1;fill-rule:nonzero;stroke:none"
         d="m 4489.79,1815.05 c 14.46,-2.29 24.13,-15.88 21.76,-31.39 -2.36,-15.5 -15.25,-25.31 -29.71,-23.01 -14.46,2.29 -24.55,16.29 -22.18,31.8 2.36,15.51 15.67,24.9 30.13,22.6 z M 4671,2345.7 c 6.6,0.26 13.33,-2.33 18.83,-7.53 10.99,-10.4 11.48,-27.65 1.25,-38.92 -10.22,-11.27 -25.83,-12.07 -36.82,-1.68 -11,10.4 -11.9,28.08 -1.68,39.35 5.11,5.63 11.81,8.52 18.42,8.78 z m -2.09,46.87 c -19.06,-0.74 -37.77,-8.74 -51.48,-23.85 -27.43,-30.22 -25.47,-77.42 4.19,-105.47 7.62,-7.2 16.16,-12.19 25.52,-15.48 v -272.44 l -123.87,-123.45 c -7.88,4.79 -16.75,8.51 -26.37,10.05 -40.28,6.39 -77.97,-22 -84.11,-62.37 -6.14,-40.23 21.03,-79.2 61.1,-85.79 h 0.41 c 40.29,-6.39 78.39,22.41 84.54,62.78 2.06,13.5 -1.18,26.11 -5.86,38.08 l 134.34,133.92 7.11,6.7 v 10.04 282.48 c 11.77,3.8 22.97,9.52 31.8,19.25 27.44,30.23 25.47,77.84 -4.18,105.88 -14.82,14.03 -34.09,20.41 -53.15,19.67 h 0.01" /><path
         id="path50"
         style="fill:#ffffff;fill-opacity:1;fill-rule:nonzero;stroke:none"
         d="m 4704.06,1574 c 14.46,-2.3 24.12,-15.87 21.76,-31.39 -2.36,-15.51 -15.25,-25.31 -29.71,-23.02 -14.47,2.3 -24.55,16.3 -22.18,31.81 2.36,15.52 15.67,24.89 30.13,22.6 z m 181.2,771.7 c 6.61,0.26 13.34,-2.33 18.84,-7.53 10.99,-10.4 11.48,-27.65 1.25,-38.92 -10.22,-11.27 -25.83,-12.07 -36.83,-1.68 -10.99,10.4 -11.89,28.08 -1.67,39.35 5.11,5.63 11.81,8.52 18.41,8.78 z m -2.09,46.87 c -19.05,-0.74 -37.76,-8.74 -51.47,-23.85 -27.43,-30.22 -25.47,-77.42 4.18,-105.47 8.07,-7.62 17.24,-12.66 27.21,-15.9 l -2.51,-513.49 -123.04,-123.04 c -7.88,4.8 -16.75,8.52 -26.37,10.05 -40.29,6.4 -77.96,-21.98 -84.11,-62.35 -6.13,-40.19 21.11,-78.71 61.09,-85.37 l 0.42,-0.42 c 40.29,-6.4 78.39,22.4 84.54,62.77 2.06,13.5 -1.18,26.1 -5.86,38.09 l 133.92,133.91 7.11,6.69 v 10.05 l 2.1,523.95 c 11.13,3.89 21.7,9.56 30.13,18.83 27.42,30.23 25.47,77.84 -4.19,105.88 -14.83,14.03 -34.09,20.41 -53.15,19.67 v 0" /><path
         id="path52"
         style="fill:#ffffff;fill-opacity:1;fill-rule:nonzero;stroke:none"
         d="m 5046.8,1626.73 c 6.61,0.25 13.34,-1.91 18.83,-7.12 v -0.41 c 10.71,-10.43 11.4,-27.76 1.26,-38.93 -10.23,-11.26 -26.25,-12.07 -37.25,-1.67 -10.99,10.4 -11.48,28.07 -1.25,39.34 5.11,5.64 11.81,8.53 18.41,8.79 z m 201.72,652.43 c 14.56,1.36 27.47,-9.46 28.88,-25.11 1.39,-15.65 -9.72,-28.36 -24.28,-29.71 -14.56,-1.36 -27.06,9.04 -28.46,24.68 -1.39,15.66 9.3,28.78 23.86,30.14 z m -4.61,46.87 c -40.61,-3.78 -70.18,-40.51 -66.53,-81.18 0.82,-9.27 3.66,-17.99 7.53,-25.95 l -153.59,-153.18 -6.7,-7.11 V 2048.99 1669 c -11.59,-3.83 -22.66,-9.64 -31.38,-19.25 -27.43,-30.23 -25.47,-77.42 4.18,-105.46 29.65,-28.05 77.19,-26.05 104.63,4.18 27.43,30.22 25.46,77.42 -4.19,105.46 -7.74,7.31 -16.44,12.21 -25.95,15.49 v 369.95 l 146.89,146.46 c 11.86,-6.02 24.8,-10.1 38.93,-8.78 40.61,3.78 70.16,40.51 66.53,81.18 -3.63,40.69 -39.73,71.59 -80.35,67.8" /><path
         id="path54"
         style="fill:#ffffff;fill-opacity:1;fill-rule:nonzero;stroke:none"
         d="m 5526.4,1993.75 c 6.6,0.26 13.33,-2.33 18.83,-7.54 10.99,-10.39 11.48,-27.64 1.26,-38.91 -10.24,-11.27 -25.84,-12.07 -36.84,-1.68 -10.98,10.4 -11.89,28.07 -1.67,39.34 5.12,5.64 11.81,8.53 18.42,8.79 z m -241.05,0 c 6.6,0.26 13.33,-2.33 18.82,-7.54 11,-10.39 11.49,-27.64 1.26,-38.91 -10.22,-11.27 -25.83,-12.07 -36.82,-1.68 -11,10.4 -11.91,28.07 -1.68,39.34 5.12,5.64 11.81,8.53 18.42,8.79 z m -1.68,46.87 c -19.06,-0.75 -38.18,-8.74 -51.89,-23.85 -27.43,-30.23 -25.47,-77.42 4.18,-105.47 29.66,-28.04 77.2,-26.45 104.63,3.77 5.86,6.45 9.76,14.1 12.97,21.76 h 105.88 c 3.91,-9.46 9.71,-18.1 17.58,-25.53 29.64,-28.04 77.19,-26.45 104.62,3.77 27.43,30.22 25.88,77.84 -3.76,105.88 -29.66,28.04 -77.62,26.04 -105.05,-4.18 -8.61,-9.48 -13.42,-20.93 -16.32,-32.65 h -100.02 c -3.36,13.47 -8.94,26.68 -19.67,36.83 -14.82,14.02 -34.09,20.41 -53.15,19.67" /><path
         id="path56"
         style="fill:#ffffff;fill-opacity:1;fill-rule:nonzero;stroke:none"
         d="m 5685.84,2239.83 c 6.58,0.71 13.44,-1.08 19.25,-5.86 11.62,-9.59 13.26,-27.36 3.77,-39.35 -9.49,-11.98 -25.21,-13.35 -36.82,-3.76 -11.63,9.58 -13.27,26.93 -3.77,38.92 4.74,5.99 11,9.32 17.57,10.05 z m -21.34,195.85 v -154.43 c -12.63,-4.44 -24.62,-10.99 -33.48,-22.18 -25.34,-32 -20.6,-79.07 10.88,-105.04 31.47,-25.97 78.87,-20.7 104.21,11.3 25.34,32 20.59,79.07 -10.88,105.04 -6.97,5.74 -14.9,9.4 -23.02,12.14 v 153.17 h -47.71" /><path
         id="path58"
         style="fill:#ffffff;fill-opacity:1;fill-rule:nonzero;stroke:none"
         d="m 5183.24,1341.73 c 14.45,-2.3 24.54,-15.87 22.17,-31.39 -2.36,-15.5 -15.67,-25.31 -30.13,-23.01 -14.46,2.3 -24.54,15.87 -22.18,31.39 2.36,15.51 15.67,25.31 30.14,23.01 z m 895.57,1102.73 -151.08,-151.07 -7.11,-7.12 v -205.48 l -702.66,-702.22 c -8.02,5.01 -17.31,8.46 -27.19,10.03 -40.29,6.4 -78.39,-22.4 -84.55,-62.77 -6.14,-40.37 21.25,-78.97 61.53,-85.37 40.28,-6.4 78.39,22.4 84.53,62.77 2.01,13.2 -0.58,25.48 -5.02,37.25 l 713.96,713.95 6.68,6.69 v 10.05 195.01 l 144.39,144.81 -33.48,33.47" /><path
         id="path60"
         style="fill:#ffffff;fill-opacity:1;fill-rule:nonzero;stroke:none"
         d="m 6312.37,2406.37 c 11.05,-9.12 12.7,-25 3.77,-36.28 -8.94,-11.28 -24.5,-12.96 -35.54,-3.85 -11.04,9.12 -12.7,25 -3.77,36.28 8.94,11.28 24.49,12.96 35.54,3.85 z m 31.26,39.47 c -32.04,26.44 -79.89,21.55 -105.78,-11.15 -25.9,-32.71 -20.8,-81.81 11.24,-108.24 32.04,-26.44 79.82,-20.98 105.72,11.73 25.9,32.71 20.86,81.22 -11.18,107.66" /><path
         id="path62"
         style="fill:#ffffff;fill-opacity:1;fill-rule:nonzero;stroke:none"
         d="m 5184.07,3643.87 c 6.6,0.26 13.34,-1.92 18.83,-7.12 11,-10.4 11.9,-28.07 1.67,-39.34 -10.22,-11.26 -26.25,-11.65 -37.24,-1.25 -11,10.4 -11.49,27.65 -1.25,38.92 5.11,5.63 11.39,8.53 17.99,8.79 z m -1.67,47.29 c -19.06,-0.74 -37.77,-9.16 -51.48,-24.27 -27.43,-30.23 -25.89,-77.43 3.77,-105.47 8.19,-7.74 17.9,-12.68 28.04,-15.9 v -105.04 l -478.34,-478.34 -6.7,-6.69 v -10.05 -112.57 h 47.29 v 102.53 l 478.34,478.75 7.11,6.7 v 10.05 116.33 c 10.78,3.93 20.7,9.4 28.88,18.42 27.43,30.22 25.89,77.42 -3.77,105.46 -14.82,14.02 -34.09,20.83 -53.14,20.09" /><path
         id="path64"
         style="fill:#ffffff;fill-opacity:1;fill-rule:nonzero;stroke:none"
         d="m 4140.47,2729.77 h -108.13 c 0,0 -20.29,2.69 -22.81,-22.82 v -169.71 c 0,0 -3.24,-24.25 29.94,-24.25 h 101 l 0.18,49.92 h -25.59 v 121.23 h 25.59 l -0.18,45.63" /><path
         id="path66"
         style="fill:#ffffff;fill-opacity:1;fill-rule:nonzero;stroke:none"
         d="m 4168.57,2729.77 h 108.12 c 0,0 20.3,2.69 22.83,-22.82 v -169.71 c 0,0 3.23,-24.25 -29.96,-24.25 h -100.99 l -0.18,49.92 h 25.59 v 121.23 h -25.59 l 0.18,45.63" /><path
         id="path68"
         style="fill:#ffffff;fill-opacity:1;fill-rule:nonzero;stroke:none"
         d="m 4953.65,2749.74 v -201.09 c 0,-23.77 -10.93,-35.66 -32.8,-35.66 h -41.36 c -20.92,1.67 -31.38,10.22 -31.38,25.68 v 339.43 c 1.9,15.21 9.51,22.81 22.82,22.81 h 243.88 c 15.21,-1.89 22.82,-9.5 22.82,-22.81 v -168.29 c -3.33,-16.17 -10.94,-24.25 -22.82,-24.25 h -132.3 v 0 45.64 h 49.58 v 121.22 h -131.21 v -67.02 h 25.67 c 0,0 27.1,3.41 27.1,-35.66" /><path
         id="path70"
         style="fill:#ffffff;fill-opacity:1;fill-rule:nonzero;stroke:none"
         d="m 5932.01,2658.46 v -94.12 h 159.73 c 16.16,-3.33 24.24,-10.46 24.24,-21.39 v -4.28 c 0,-13.55 -8.55,-21.63 -25.66,-24.25 h -235.33 c -19.97,0 -29.95,11.41 -29.95,34.23 v 132.64 c 16.88,33.27 34.47,49.91 52.78,49.91 h 215.35 c 15.2,-2.85 22.81,-9.51 22.81,-19.97 v -78.44 c 0,-16.16 -12.35,-24.24 -37.08,-24.24 h -118.28 l 0.09,49.91 h 49.73 v 27.1 h -78.43 v -27.1" /></g></g></svg>