<?xml version="1.0" encoding="UTF-8"?>
<!-- Generator: Adobe Illustrator 22.0.1, SVG Export Plug-In . SVG Version: 6.00 Build 0)  -->
<svg version="1.1" xmlns="http://www.w3.org/2000/svg" xmlns:xlink="http://www.w3.org/1999/xlink" x="0px" y="0px" viewBox="0 0 1180.8 405" style="enable-background:new 0 0 1180.8 405;" xml:space="preserve">
<style type="text/css">
	.st0{fill:#FFFFFF;}
	.st1{opacity:0.77;fill:#A1BEFF;}
	.st2{opacity:0.74;fill:#A1BEFF;}
	.st3{opacity:0.79;fill:#A1BEFF;}
	.st4{opacity:0.7;fill:#A1BEFF;}
	.st5{opacity:0.37;fill:#A1BEFF;}
	.st6{fill:#A1BEFF;}
	.st7{opacity:0.29;fill:#A1BEFF;}
	.st8{filter:url(#Adobe_OpacityMaskFilter);}
	.st9{opacity:0.46;mask:url(#SVGID_1_);fill:#A1BEFF;}
	.st10{filter:url(#Adobe_OpacityMaskFilter_1_);}
	.st11{mask:url(#SVGID_2_);fill:#A1BEFF;}
	.st12{opacity:0.22;fill:#A1BEFF;}
	.st13{opacity:0.28;}
	.st14{fill:url(#SVGID_3_);}
	.st15{fill:url(#SVGID_4_);}
	.st16{fill:url(#SVGID_5_);}
	.st17{fill:url(#SVGID_6_);}
	.st18{display:none;fill:url(#SVGID_7_);}
</style>
<g id="Layer_6">
</g>
<g id="Layer_8">
	<g>
		<g>
			<path d="M406.5,225.9c0-0.1,0-0.4,0-0.7c0-0.3,0-0.6,0-0.8c0-36.5,15.5-54.8,46.5-54.8c6.5,0,12.4,1,17.6,3.1     c5.3,2,9.5,4.5,12.6,7.2c3.1,2.8,5.8,6.4,8.2,10.9c2.3,4.5,4,8.3,5,11.4c1,3.1,1.8,6.9,2.3,11.3c0.6,4.3,0.8,7,0.8,8.1v4.6     l-0.4,7.5h-77.3c1,10.7,4.2,18.4,9.8,23.2c5.6,4.8,13.8,7.2,24.7,7.2c15.4,0,27.5-2.6,36.4-7.9v15.8c-10.2,4.9-22.6,7.4-37.2,7.4     c-0.2,0-0.4,0-0.6,0c-6.2,0-11.9-0.7-17.1-2.2c-5.2-1.5-10.3-4.1-15.3-7.7c-5-3.7-8.9-9.2-11.8-16.6     C408,245.4,406.5,236.4,406.5,225.9z M421.9,220h62.3c0-2.4-0.3-5.1-0.9-8.1c-0.6-3-1.8-6.8-3.5-11.5c-1.8-4.7-5-8.6-9.6-11.7     c-4.6-3.1-10.3-4.7-17.1-4.7c-10.6,0-18.2,2.7-23,8.2C425.4,197.7,422.6,206.9,421.9,220z"/>
			<path d="M524.9,317.1v-114c0-2.8,0.4-5.8,1.3-8.7c0.9-3,2.6-6.6,5.2-10.8c2.6-4.2,7.1-7.6,13.5-10.2s14.3-3.9,23.7-3.9     c4,0,7.8,0.3,11.6,1c3.8,0.7,7.9,2.2,12.3,4.7c4.4,2.4,8.2,5.6,11.4,9.5c3.2,3.9,5.9,9.4,8.1,16.5c2.2,7,3.3,15.2,3.3,24.5     c0,10.6-1.4,19.5-4.3,26.9c-2.8,7.4-6.8,12.9-11.8,16.6c-5,3.7-10.1,6.3-15.4,7.8c-5.2,1.5-10.9,2.2-17.2,2.2     c-8.7,0-17.4-1.4-26.4-4.1v41.9H524.9z M540.3,259.6c8.1,3.5,16.9,5.3,26.4,5.3c11.6,0,20.1-3.1,25.3-9.2     c5.3-6.2,7.9-16.2,7.9-30.1c0-8.9-1-16.4-2.9-22.3c-1.9-5.9-4.6-10.3-8-13c-3.4-2.7-6.7-4.5-9.8-5.4c-3.1-0.9-6.6-1.3-10.6-1.3     c-18.8,0-28.3,6.3-28.3,18.9V259.6z"/>
			<path d="M635.5,200.2c0-8.5,3.1-15.7,9.3-21.7c6.2-6,15.7-9,28.4-9c9.1,0,18.2,2.2,27.2,6.5v15.3c-8.1-4.9-16.6-7.3-25.6-7.3     c-16,0-24,5.4-24,16.3c0,3.7,1.9,6.7,5.8,8.9c3.9,2.3,8.6,4.1,14.2,5.6c5.6,1.5,11.2,3.3,16.8,5.4c5.6,2.1,10.4,5.6,14.3,10.6     c3.9,5,5.9,11.3,5.9,19c0,9.2-3.5,16.5-10.3,21.7c-6.9,5.2-16.4,7.9-28.7,7.9c-11.8,0-22.5-2.7-32.1-8v-16.2     c10.2,6.3,20.7,9.4,31.5,9.4c16.2,0,24.2-4.9,24.2-14.7c0-5.3-1.9-9.4-5.8-12.4c-3.9-3-8.6-5.2-14.2-6.7     c-5.6-1.5-11.2-3.1-16.8-4.9c-5.6-1.8-10.4-4.8-14.3-9C637.5,212.6,635.5,207,635.5,200.2z"/>
			<path d="M727.4,245c0-4.8,0.9-9.1,2.7-12.8c1.8-3.8,3.9-6.9,6.5-9.2c2.6-2.4,5.8-4.4,9.8-6s7.5-2.9,10.5-3.7     c3-0.8,6.7-1.4,10.9-1.8c4.2-0.4,7.2-0.6,8.9-0.7c1.8-0.1,3.9-0.1,6.3-0.1l17.1,1c0-9.6-2.6-16.5-7.8-20.7     c-5.2-4.1-13-6.2-23.2-6.2c-11.5,0-21.9,1.7-31.1,5.1V175c10.5-3.7,21.1-5.5,31.9-5.5c14.9,0,26.2,3.8,34.1,11.3     c7.8,7.5,11.7,18.5,11.7,33v31.9c0,6.8-1.6,12.6-4.7,17.4c-3.2,4.8-7.2,8.3-12.2,10.5c-5,2.1-9.6,3.6-13.9,4.5     c-4.3,0.8-8.6,1.2-12.8,1.2c-3.3,0-6.6-0.2-10-0.6c-3.4-0.4-7.3-1.4-11.7-2.9c-4.3-1.5-8.1-3.4-11.3-5.7c-3.2-2.3-5.9-5.7-8.2-10     C728.5,255.7,727.4,250.7,727.4,245z M742.8,245c0,13.2,9.6,19.9,28.9,19.9c0.1,0,0.2,0,0.3,0c18.8,0,28.2-6.4,28.2-19.2v-20.4     c-4.7-0.8-11-1.2-18.9-1.2C755.6,224,742.8,231,742.8,245z"/>
			<path d="M838.9,224.1c0-11.1,1.5-20.5,4.5-28.3c3-7.7,7-13.4,12-16.9c5-3.5,9.8-6,14.4-7.3c4.5-1.4,9.3-2,14.3-2     c9.1,0,16.7,1.3,22.9,3.8c6.2,2.5,10.5,5.8,13,9.8c2.5,4,4.2,7.4,5,10.3c0.9,2.9,1.3,5.8,1.3,8.6v80.1c0,4.7-0.7,9-2,13     c-1.4,4-3.6,7.8-6.7,11.6c-3.1,3.8-7.9,6.7-14.3,8.8c-6.4,2.1-14.1,3.2-23.2,3.2c-9.9,0-20-1.3-30.2-3.8v-14.5     c9.1,2.6,18.6,3.8,28.6,3.8c6.8,0,12.5-0.6,17.1-1.8c4.6-1.2,7.9-2.9,10-5.2c2.1-2.2,3.5-4.5,4.3-6.7c0.8-2.2,1.1-4.9,1.1-8V272     c-8,2.6-16.3,3.9-24.9,3.9c-4.7,0-9.1-0.4-13.2-1.2c-4.1-0.8-8.3-2.4-12.5-4.7c-4.3-2.4-7.9-5.4-11-9.2c-3.1-3.7-5.5-8.7-7.4-15     C839.8,239.6,838.9,232.3,838.9,224.1z M854.3,224c0,8,0.8,14.5,2.5,19.7c1.7,5.2,4.2,9,7.5,11.5c3.3,2.5,6.6,4.2,9.9,5     c3.3,0.8,7.2,1.2,11.7,1.2c8.5,0,16.8-1.6,24.9-4.9v-55.1c0-11.9-8.9-17.9-26.8-17.9c-3.8,0-7.2,0.5-10.2,1.4     c-3,0.9-6.1,2.6-9.3,5.2c-3.3,2.6-5.8,6.7-7.6,12.5C855.1,208.3,854.3,215.5,854.3,224z"/>
			<path d="M953,252c-3-7.6-4.5-16.8-4.5-27.6s1.5-20,4.5-27.6c3-7.6,7-13.3,12.2-17c5.1-3.7,10.3-6.4,15.7-8     c5.3-1.6,11.2-2.3,17.6-2.3c6.4,0,12.3,0.8,17.7,2.3c5.4,1.6,10.6,4.2,15.8,8c5.1,3.7,9.2,9.4,12.2,17c3,7.6,4.5,16.8,4.5,27.6     s-1.5,20-4.5,27.6c-3,7.6-7,13.3-12.2,17c-5.1,3.7-10.4,6.4-15.8,8c-5.4,1.6-11.3,2.3-17.7,2.3c-6.4,0-12.3-0.8-17.6-2.3     c-5.3-1.6-10.5-4.2-15.7-8C960.1,265.3,956,259.6,953,252z M972.2,193.3c-5.5,6.5-8.2,16.9-8.2,31.1c0,14.2,2.7,24.6,8.2,31.1     c5.5,6.5,14.2,9.8,26.3,9.8s20.9-3.2,26.4-9.7c5.5-6.4,8.3-16.8,8.3-31.2s-2.8-24.8-8.3-31.2c-5.5-6.4-14.3-9.7-26.4-9.7     S977.7,186.8,972.2,193.3z"/>
			<path d="M1073,277.7v-97.8c13.9-6.9,28.9-10.4,45-10.4c13.4,0,23.7,3.4,31.1,10.2c7.4,6.8,11.1,16.4,11.1,28.7v69.3h-15.4v-69.3     c0-3-0.3-5.6-0.9-8c-0.6-2.3-1.8-4.8-3.6-7.4c-1.8-2.6-4.7-4.7-8.7-6.1c-4-1.4-9.1-2.1-15.2-2.1c-8.9,0-18.2,1.4-27.9,4.3v88.6     H1073z"/>
		</g>
		<g>
			<polygon class="st0" points="334,267.8 326,273.9 327.2,283.9 336.5,287.8 344.5,281.7 343.2,271.7    "/>
			<polygon class="st0" points="28.5,201.6 15.2,211.7 17.3,228.3 32.7,234.8 46,224.6 43.9,208    "/>
			<polygon class="st0" points="85.9,176.1 84.4,164.5 72,159.3 61.2,167.5 62.4,176.3 52.8,183.5 55.7,205.9 76.5,214.6      94.5,200.9 91.6,178.6    "/>
			<path class="st0" d="M328.1,170.5l10.4-27.8l-1.4-28.1l-1.3-14.9l-10.4-0.2l-9.2,14l-0.1-9l-6.7-3.9l-8,6.6l-4.9,25.7l4.9,32.7     c0,0-6.6,3-7.7,3.5c-0.5,0.2-1.9,0.9-3.3,1.6l-1-7.8l-37.7-15.8l-2.2,1.7l-0.9-7.2l-44.3-18.6l-12.7,9.6l-11.8-4.9l-13.2,10.1     l-12.3-5.1l14.8-11.3l-3.5-27.1l-25.2-10.6l-21.7,16.6l2.8,22l-15.9,12.1l1.9,14.9l-5.2,4l5.7,44.8l41.6,17.4l22.3-17l0.2,1.3     l12.3,5.2l2.6,20.5l36,15.1l5.5-4.2l14.9,7.6l-1.4,15.6l28.7,31.6l0,0.2l0.2,0.1l0.7,0.8l0.6-0.2l6,2.5l6.5-4.9l-1-8.1l-7.3-3     l-0.5-0.5l-5.9-16.7l6.9-19.4l0.8-0.2l-0.1,0.1l2,15.9l13.6,5.7l0.9,6.9l12.6,5.3l10.9-8.3l-1.7-13.5l-9.2-3.8l-1.5-11.7     l-4.4-1.8l5.2-1.2h27.5l13.9-9.3v-35.3L328.1,170.5z"/>
		</g>
		<g>
			<polygon class="st1" points="289.5,162.8 251.8,147.1 219.3,171.8 224.5,212.3 262.1,228.1 294.6,203.3    "/>
			<polygon class="st2" points="248.6,141.6 204.3,123.1 166.1,152.2 172.2,199.8 216.5,218.4 254.7,189.3    "/>
			<polygon class="st3" points="179.9,143.4 138.3,125.9 102.4,153.3 108.1,198.1 149.7,215.5 185.7,188.2    "/>
			<polygon class="st4" points="142.9,129.6 122.9,121.3 105.7,134.4 108.5,155.8 128.4,164.2 145.6,151.1    "/>
			<polygon class="st5" points="202.3,137.2 179.9,127.8 160.6,142.5 163.6,166.6 186,176 205.4,161.3    "/>
			<polygon class="st4" points="316.2,253.7 307,249.9 305.5,238.2 290.7,232 277.9,241.8 279.9,257.7 293.6,263.4 294.5,270.3      307,275.5 317.9,267.3    "/>
			<polygon class="st6" points="283.9,281.5 276.4,278.3 269.9,283.3 270.9,291.3 278.4,294.5 284.9,289.6    "/>
			<polygon class="st6" points="343.2,271.7 334,267.8 326,273.9 327.2,283.9 336.5,287.8 344.5,281.7    "/>
			<polygon class="st6" points="43.9,208 28.5,201.6 15.2,211.7 17.3,228.3 32.7,234.8 46,224.6    "/>
			<polygon class="st7" points="91.6,178.6 70.8,169.8 52.8,183.5 55.7,205.9 76.5,214.6 94.5,200.9    "/>
			<defs>
				<filter id="Adobe_OpacityMaskFilter" filterUnits="userSpaceOnUse" x="218.2" y="99.5" width="129.6" height="192.7">
					<feFlood style="flood-color:white;flood-opacity:1" result="back"/>
					<feBlend in="SourceGraphic" in2="back" mode="normal"/>
				</filter>
			</defs>
			<mask maskUnits="userSpaceOnUse" x="218.2" y="99.5" width="129.6" height="192.7" id="SVGID_1_">
			</mask>
			<path class="st9" d="M283,175.2c1-1,9.7-5.7,10.8-6.1c1.1-0.5,7.7-3.5,7.7-3.5l-4.9-32.7l4.9-25.7l8-6.6l6.7,3.9l0.1,9l9.2-14     l10.4,0.2l1.3,14.9l1.4,28.1l-10.4,27.8l19.6,20v35.3l-13.9,9.3h-27.5l-29.2,6.7l-6.9,19.4l5.9,16.7l8.4,9.3l-12.7,5l-29.7-32.7     l1.4-15.6l-19.7-10.1l-5.7-43.3l32.9-24.1L283,175.2z"/>
			<defs>
				<filter id="Adobe_OpacityMaskFilter_1_" filterUnits="userSpaceOnUse" x="218.2" y="99.5" width="129.6" height="192.7">
					<feFlood style="flood-color:white;flood-opacity:1" result="back"/>
					<feBlend in="SourceGraphic" in2="back" mode="normal"/>
				</filter>
			</defs>
			<mask maskUnits="userSpaceOnUse" x="218.2" y="99.5" width="129.6" height="192.7" id="SVGID_2_">
				<g class="st10">
					
						<image style="overflow:visible;" width="141" height="246" xlink:href="6E04503FA1AD6ADF.png" transform="matrix(1 0 0 1 218.8885 69.7478)"/>
				</g>
			</mask>
			<path class="st11" d="M287,172.7c1-1,5.7-3.1,6.7-3.6c1.1-0.5,7.7-3.5,7.7-3.5l-4.9-32.7l4.9-25.7l8-6.6l6.7,3.9l0.1,9l9.2-14     l10.4,0.2l1.3,14.9l1.4,28.1l-10.4,27.8l19.6,20v35.3l-13.9,9.3h-27.5l-29.2,6.7l-6.9,19.4l5.9,16.7l8.4,9.3l-12.7,5l-29.7-32.7     l1.4-15.6l-19.7-10.1l-5.7-43.3l36.5-31.8L287,172.7z"/>
			<polygon class="st4" points="84.4,164.5 72,159.3 61.2,167.5 63,180.8 75.4,186 86.1,177.9    "/>
			<polygon class="st12" points="249.2,178.1 213.2,163 182.2,186.7 187.1,225.4 223.1,240.5 254.2,216.9    "/>
			<polygon class="st12" points="259.9,174.3 232.6,162.8 209,180.8 212.8,210.2 240.1,221.6 263.7,203.7    "/>
			<polygon class="st6" points="165.8,94.3 140.6,83.7 118.8,100.3 122.3,127.4 147.5,137.9 169.2,121.4    "/>
			<g class="st13">
				<linearGradient id="SVGID_3_" gradientUnits="userSpaceOnUse" x1="57.2969" y1="178.9735" x2="327.2969" y2="274.9735">
					<stop offset="0" style="stop-color:#5CCD53"/>
					<stop offset="0.9904" style="stop-color:#0000F3"/>
				</linearGradient>
				<polygon class="st14" points="334,267.8 326,273.9 327.2,283.9 336.5,287.8 344.5,281.7 343.2,271.7     "/>
				<linearGradient id="SVGID_4_" gradientUnits="userSpaceOnUse" x1="41.9236" y1="222.2108" x2="311.9236" y2="318.2108">
					<stop offset="0" style="stop-color:#5CCD53"/>
					<stop offset="0.9904" style="stop-color:#0000F3"/>
				</linearGradient>
				<polygon class="st15" points="28.5,201.6 15.2,211.7 17.3,228.3 32.7,234.8 46,224.6 43.9,208     "/>
				<linearGradient id="SVGID_5_" gradientUnits="userSpaceOnUse" x1="56.6767" y1="180.7179" x2="326.6767" y2="276.7179">
					<stop offset="0" style="stop-color:#5CCD53"/>
					<stop offset="0.9904" style="stop-color:#0000F3"/>
				</linearGradient>
				<polygon class="st16" points="85.9,176.1 84.4,164.5 72,159.3 61.2,167.5 62.4,176.3 52.8,183.5 55.7,205.9 76.5,214.6       94.5,200.9 91.6,178.6     "/>
				<linearGradient id="SVGID_6_" gradientUnits="userSpaceOnUse" x1="79.6108" y1="116.2157" x2="349.6108" y2="212.2157">
					<stop offset="0" style="stop-color:#5CCD53"/>
					<stop offset="0.9904" style="stop-color:#0000F3"/>
				</linearGradient>
				<path class="st17" d="M328.1,170.5l10.4-27.8l-1.4-28.1l-1.3-14.9l-10.4-0.2l-9.2,14l-0.1-9l-6.7-3.9l-8,6.6l-4.9,25.7l4.9,32.7      c0,0-6.6,3-7.7,3.5c-0.5,0.2-1.9,0.9-3.3,1.6l-1-7.8l-37.7-15.8l-2.2,1.7l-0.9-7.2l-44.3-18.6l-12.7,9.6l-11.8-4.9l-13.2,10.1      l-12.3-5.1l14.8-11.3l-3.5-27.1l-25.2-10.6l-21.7,16.6l2.8,22l-15.9,12.1l1.9,14.9l-5.2,4l5.7,44.8l41.6,17.4l22.3-17l0.2,1.3      l12.3,5.2l2.6,20.5l36,15.1l5.5-4.2l14.9,7.6l-1.4,15.6l28.7,31.6l0,0.2l0.2,0.1l0.7,0.8l0.6-0.2l6,2.5l6.5-4.9l-1-8.1l-7.3-3      l-0.5-0.5l-5.9-16.7l6.9-19.4l0.8-0.2l-0.1,0.1l2,15.9l13.6,5.7l0.9,6.9l12.6,5.3l10.9-8.3l-1.7-13.5l-9.2-3.8l-1.5-11.7      l-4.4-1.8l5.2-1.2h27.5l13.9-9.3v-35.3L328.1,170.5z"/>
			</g>
			<linearGradient id="SVGID_7_" gradientUnits="userSpaceOnUse" x1="56.6767" y1="180.7179" x2="326.6767" y2="276.7179">
				<stop offset="0" style="stop-color:#5CCD53"/>
				<stop offset="0.9904" style="stop-color:#0000F3"/>
			</linearGradient>
			<polygon class="st18" points="85.9,176.1 84.4,164.5 72,159.3 61.2,167.5 62.4,176.3 52.8,183.5 55.7,205.9 76.5,214.6      94.5,200.9 91.6,178.6    "/>
		</g>
	</g>
</g>
<g id="Layer_7">
</g>
<g id="Layer_3">
</g>
<g id="Layer_5">
</g>
</svg>