<?xml version="1.0" encoding="utf-8"?>
<!-- Generator: Adobe Illustrator 16.0.0, SVG Export Plug-In . SVG Version: 6.00 Build 0)  -->
<!DOCTYPE svg PUBLIC "-//W3C//DTD SVG 1.1//EN" "http://www.w3.org/Graphics/SVG/1.1/DTD/svg11.dtd">
<svg version="1.1" id="Layer_1" xmlns="http://www.w3.org/2000/svg" xmlns:xlink="http://www.w3.org/1999/xlink" x="0px" y="0px"
	 width="400px" height="405px" viewBox="0 0 400 405" enable-background="new 0 0 400 405" xml:space="preserve">
<g>
	<g>
		<path fill="#333333" d="M382.732,185.854c-3.865-19.5-12.174-36.586-23.09-49.618L320.275,1l-29.838,102.498
			c-31.436-5.734-59.223-5.614-59.223-5.614c-34.821,0.72-63.002,6.493-85.025,13.785H1l54.35,72.726
			c-1.728,5.314-2.66,10.758-2.66,16.277c0,23.674,15.386,51.738,38.046,67.541c23.526,16.4,61.331,20.229,91.606,20.314
			c13.773,11.193,38.988,18.695,67.818,18.695c29.09,0,54.49-7.639,68.184-19c5.148,0.545,10.361,0.35,15.564-0.682
			C370.566,280.27,392.43,234.738,382.732,185.854z"/>
		<path fill="#7F72B1" d="M374.039,184.44c-4.381-23.007-15.541-43.485-30.607-56.196l-0.379-0.319l-0.199-0.21
			c-0.846-0.701-2.645-1.812-4.859-3.066c-5.822,12.935-18.043,18.48-18.043,18.48c-0.645-10.41-10.928-23.6-18.607-32.085
			c-5.078-1.157-10.131-2.132-15.047-2.955c1.643,29.426-16.428,51.001-16.428,51.001c-13.027-23.275-63.301-42.814-83.305-49.83
			c-7.93,1.651-15.275,3.582-22.045,5.689c10.608,17.943,7.248,37.257,7.248,37.257c-9.469-5.62-25.838-6.264-41.246-5.215
			c-10.664,19.054-16.697,40.67-16.697,63.591c0,20.422,4.812,39.787,13.381,57.246c16.498,5.648,38.045,8.594,63.721,8.594
			c28.729,0,55.773-11.605,74.191-31.846l7.357-8.084l6.006,9.213c12.525,19.234,30.256,30.717,47.432,30.717h0.006
			c2.672,0,5.35-0.275,7.967-0.818C364.402,269.303,382.414,228.404,374.039,184.44z M192.061,244.557
			c-3.238,0.641-6.862-1.256-8.1-4.252c-1.238-2.986,0.379-5.934,3.617-6.578c3.235-0.641,6.859,1.262,8.1,4.252
			C196.918,240.965,195.299,243.914,192.061,244.557z M188.353,178.402c0-3.052,0.923-5.887,2.511-8.246l26.811,5.334
			c0.186,0.941,0.285,1.914,0.285,2.912c0,8.178-6.621,14.807-14.803,14.807C194.98,193.209,188.353,186.58,188.353,178.402z
			 M216.719,266.736c-3.236,0.639-6.871-1.266-8.107-4.252c-1.24-2.992,0.383-5.932,3.619-6.578c3.234-0.641,6.861,1.258,8.1,4.25
			C221.57,263.143,219.951,266.086,216.719,266.736z M221.996,238.553c-3.234,0.645-6.863-1.258-8.1-4.248
			c-1.236-2.984,0.381-5.932,3.619-6.574c3.229-0.643,6.861,1.256,8.096,4.248C226.852,234.963,225.23,237.91,221.996,238.553z
			 M302.184,234.738c-2.59-0.514-3.883-2.865-2.896-5.264c0.99-2.383,3.896-3.906,6.484-3.393c2.59,0.514,3.881,2.869,2.891,5.264
			C307.672,233.734,304.771,235.252,302.184,234.738z M312.889,253.885c-0.992,2.393-3.891,3.92-6.479,3.402
			c-2.588-0.51-3.885-2.877-2.895-5.262c0.992-2.393,3.898-3.918,6.482-3.404C312.586,249.139,313.883,251.496,312.889,253.885z
			 M312.922,188.387c-6.131,0-11.105-4.975-11.105-11.103c0-0.749,0.078-1.481,0.221-2.19l20.105-3.997
			c1.186,1.769,1.883,3.896,1.883,6.188C324.025,183.412,319.053,188.387,312.922,188.387z M332.615,236.145
			c-0.994,2.393-3.895,3.912-6.482,3.395c-2.59-0.51-3.883-2.865-2.893-5.262c0.99-2.389,3.893-3.91,6.479-3.398
			C332.305,231.398,333.607,233.752,332.615,236.145z"/>
		<path fill="#4C3E8B" d="M267.09,253.885c-14.73,15.557-35.275,27.191-58.818,32.092c11.83,6.434,29.037,10.486,48.205,10.486
			c19.752,0,37.424-4.307,49.273-11.084C291.014,280.26,277.426,269.131,267.09,253.885z M98.852,151.191
			c-16.064,14.49-24.891,30.848-24.891,46.32c0,21.061,13.82,46.377,32.871,60.199c5.515,4,12.358,7.375,20.374,10.117
			c-8.569-17.459-13.381-36.824-13.381-57.246c0-22.921,6.033-44.537,16.697-63.591C117.867,147.854,105.861,149.857,98.852,151.191
			z"/>
		<path fill="#21236C" d="M290.943,212.143c-0.084-0.322-0.209-0.621-0.369-0.891c-0.789-1.729-3.467-1.924-6.711-2.154
			c-2.994-0.215-6.967-0.334-11.182-0.334c-4.209,0-8.184,0.119-11.174,0.334c-3.416,0.244-6.199,0.443-6.818,2.443
			c-0.062,0.143-0.105,0.295-0.141,0.449c-0.373,1.689,0.576,2.705,3.707,6.076c1.623,1.744,3.641,3.914,5.49,6.215
			c1.941,2.404,3.389,4.568,4.443,6.146c1.748,2.609,2.619,3.92,4.408,3.92c0.031,0,0.064,0,0.094-0.002
			c0.033,0.002,0.062,0.002,0.094,0.002c2.756,0,9.578-5.537,13.225-10.068C290.014,219.312,291.521,214.412,290.943,212.143z"/>
		<g>
			<path fill="#FFF576" d="M217.674,175.49c0.186,0.941,0.285,1.914,0.285,2.912c0,8.178-6.621,14.807-14.803,14.807
				c-8.176,0-14.804-6.629-14.804-14.807c0-3.052,0.923-5.887,2.511-8.246l-34.902-6.941c-2.266,5.205-3.529,10.945-3.529,16.982
				c0,23.525,19.076,42.607,42.605,42.607c23.525,0,42.602-19.082,42.602-42.607c0-0.248-0.012-0.492-0.018-0.739L217.674,175.49z"
				/>
			<path fill="#FFF576" d="M348.314,165.889l-26.172,5.208c1.186,1.769,1.883,3.896,1.883,6.188c0,6.128-4.973,11.103-11.104,11.103
				s-11.105-4.975-11.105-11.103c0-0.749,0.078-1.481,0.221-2.19l3.127-0.621l-18.094,3.597c-0.002,0.187-0.014,0.372-0.014,0.56
				c0,17.646,14.307,31.953,31.955,31.953c17.646,0,31.951-14.307,31.951-31.953C350.963,174.099,350.014,169.793,348.314,165.889z"
				/>
		</g>
		<path fill="#FFFFFF" d="M206.604,173.289l-4.674-0.932c-2.822,0.569-4.941,3.061-4.941,6.045c0,3.41,2.758,6.173,6.168,6.173
			c3.408,0,6.168-2.763,6.168-6.173C209.324,176.275,208.25,174.398,206.604,173.289z M313.836,172.748l-3.496,0.695
			c-1.234,0.831-2.043,2.24-2.043,3.841c0,2.556,2.068,4.632,4.625,4.632s4.625-2.076,4.625-4.632
			C317.547,175.04,315.955,173.174,313.836,172.748z"/>
	</g>
	<path fill="#333333" d="M348.117,358.863c0-14.012-8.906-18.508-22.312-18.508h-18.592c-2.248,0-4.324,1.643-4.67,3.979
		l-7.094,54.051c-0.342,2.768,1.127,4.582,3.635,4.582h8.648c2.596,0,4.582-1.729,4.93-4.496l1.816-13.838h5.359
		C335.752,384.633,348.117,376.158,348.117,358.863z M323.125,369.76h-6.746l1.904-14.529h5.965c4.67,0,8.043,1.99,8.043,6.312
		C332.291,367.166,328.143,369.76,323.125,369.76z M131.844,339.662c-20.496,0-29.23,14.271-29.23,40.041
		c0,16.605,6.832,23.957,20.842,23.957c18.506,0,24.3-10.898,25.77-22.918l0.865-6.572c0.262-2.336-1.039-4.066-3.718-4.066h-14.443
		c-3.285,0-4.496,1.99-4.842,4.67l-0.261,1.904c-0.344,2.68,1.213,4.064,3.721,4.064h2.94l-0.089,0.605
		c-0.691,4.93-2.939,7.004-7.955,7.004c-3.545,0-5.361-3.199-5.361-10.377c0-11.328,2.074-23.004,9.771-23.004
		c3.287,0,5.707,3.027,5.707,7.783c0,3.285,1.3,3.633,4.41,3.113l7.438-1.211c3.718-0.605,4.497-1.729,4.497-6.314
		C151.906,347.881,147.495,339.662,131.844,339.662z M236.912,387.92c-3.717,0.346-8.994,0.865-13.318,0.865
		c-15.566,0-23.521-1.902-27.93-7.006l-3.029-3.287c6.227-3.803,11.674-9.6,11.674-19.629c0-14.012-8.908-18.508-22.312-18.508
		h-17.729c-2.681,0-4.323,1.643-4.67,3.979l-7.091,54.137c-0.347,2.334,0.865,4.496,3.544,4.496h8.823
		c2.768,0,4.496-2.248,4.842-4.582l1.992-15.395h3.977l6.829,8.648c5.364,6.746,13.408,12.021,36.585,12.021
		c7.262,0,12.449-0.605,15.824-0.951c3.027-0.348,4.498-2.422,4.756-4.584l0.865-6.398
		C240.803,389.477,239.854,387.66,236.912,387.92z M179.317,369.76h-5.88l1.9-14.529h5.102c4.584,0,8.043,1.99,8.043,6.312
		C188.482,367.166,184.334,369.76,179.317,369.76z M343.432,395.539h-1.197c-0.623,0-0.857,0.371-0.926,0.826l-0.574,4.348
		c-0.045,0.404-0.016,0.557,0.441,0.557h0.639c0.42,0,0.521-0.152,0.574-0.574l0.168-1.246h0.203l0.371,1.279
		c0.117,0.389,0.217,0.541,0.725,0.541h0.656c0.371,0,0.371-0.221,0.268-0.574l-0.473-1.531c0.676-0.34,1.148-0.928,1.148-1.922
		C345.455,395.959,344.645,395.539,343.432,395.539z M343.113,398.15h-0.389l0.15-1.164h0.322c0.418,0,0.658,0.17,0.658,0.49
		C343.855,397.932,343.516,398.15,343.113,398.15z M343.6,393.432c-3.402,0-5.828,2.393-5.828,5.85c0,2.662,1.686,4.381,4.48,4.381
		c3.424,0,5.865-2.342,5.865-5.799C348.117,395.186,346.398,393.432,343.6,393.432z M342.439,402.264c-1.939,0-3.1-1.23-3.1-3.152
		c0-2.543,1.666-4.281,4.076-4.281c1.953,0,3.137,1.246,3.137,3.203C346.553,400.576,344.85,402.264,342.439,402.264z
		 M244.176,340.355h-6.311c-2.77,0-4.498,1.73-4.76,4.062l-2.852,21.535c-0.604,4.672-2.074,7.094-5.016,7.094
		s-3.893-2.422-3.289-7.094l2.771-21.102c0.346-2.334-0.781-4.496-3.547-4.496h-6.314c-2.766,0-4.408,2.162-4.756,4.496
		l-2.682,20.238c-1.727,13.057,2.943,20.236,16.172,20.236c13.318,0,19.807-7.18,21.535-20.236l2.682-20.324
		C248.156,342.43,246.943,340.355,244.176,340.355z M272.797,354.107c4.066,0,6.486,2.248,6.486,6.484
		c0,1.557,1.297,1.73,3.545,1.383l8.561-1.383c3.117-0.518,4.238-2.506,4.154-4.756c-0.346-9.945-7.004-16.174-21.277-16.174
		c-16.947,0-24.818,11.676-24.818,21.795c0,19.717,25.51,15.133,25.51,22.486c0,2.334-1.037,5.359-6.742,5.359
		c-4.586,0-6.143-2.941-6.143-5.533c0-2.336-1.643-2.422-4.234-1.99l-7.957,1.299c-3.457,0.604-3.979,2.852-3.891,4.754
		c0.516,8.303,5.965,16,19.887,15.828c19.98-0.174,26.465-9.602,26.465-20.236c0-19.547-25.424-16.432-25.424-23.869
		C266.918,356.529,268.734,354.107,272.797,354.107z"/>
</g>
</svg>
