<svg enable-background="new 0 0 400 405" height="405" viewBox="0 0 400 405" width="400" xmlns="http://www.w3.org/2000/svg"><path d="m382.732 185.854c-3.865-19.5-12.174-36.586-23.09-49.618l-39.367-135.236-29.838 102.498c-31.436-5.734-59.223-5.614-59.223-5.614-34.821.72-63.002 6.493-85.025 13.785h-145.189l54.35 72.726c-1.728 5.314-2.66 10.758-2.66 16.277 0 23.674 15.386 51.738 38.046 67.541 23.526 16.4 61.331 20.229 91.606 20.314 13.773 11.193 38.988 18.695 67.818 18.695 29.09 0 54.49-7.639 68.184-19 5.148.545 10.361.35 15.564-.682 36.658-7.27 58.522-52.802 48.824-101.686z" fill="#333"/><path d="m374.039 184.44c-4.381-23.007-15.541-43.485-30.607-56.196l-.379-.319-.199-.21c-.846-.701-2.645-1.812-4.859-3.066-5.822 12.935-18.043 18.48-18.043 18.48-.645-10.41-10.928-23.6-18.607-32.085-5.078-1.157-10.131-2.132-15.047-2.955 1.643 29.426-16.428 51.001-16.428 51.001-13.027-23.275-63.301-42.814-83.305-49.83-7.93 1.651-15.275 3.582-22.045 5.689 10.608 17.943 7.248 37.257 7.248 37.257-9.469-5.62-25.838-6.264-41.246-5.215-10.664 19.054-16.697 40.67-16.697 63.591 0 20.422 4.812 39.787 13.381 57.246 16.498 5.648 38.045 8.594 63.721 8.594 28.729 0 55.773-11.605 74.191-31.846l7.357-8.084 6.006 9.213c12.525 19.234 30.256 30.717 47.432 30.717h.006c2.672 0 5.35-.275 7.967-.818 30.516-6.301 48.528-47.2 40.153-91.164zm-181.978 60.117c-3.238.641-6.862-1.256-8.1-4.252-1.238-2.986.379-5.934 3.617-6.578 3.235-.641 6.859 1.262 8.1 4.252 1.24 2.986-.379 5.935-3.617 6.578zm-3.708-66.155c0-3.052.923-5.887 2.511-8.246l26.811 5.334c.186.941.285 1.914.285 2.912 0 8.178-6.621 14.807-14.803 14.807-8.177 0-14.804-6.629-14.804-14.807zm28.366 88.334c-3.236.639-6.871-1.266-8.107-4.252-1.24-2.992.383-5.932 3.619-6.578 3.234-.641 6.861 1.258 8.1 4.25 1.239 2.987-.38 5.93-3.612 6.58zm5.277-28.183c-3.234.645-6.863-1.258-8.1-4.248-1.236-2.984.381-5.932 3.619-6.574 3.229-.643 6.861 1.256 8.096 4.248 1.241 2.984-.381 5.931-3.615 6.574zm80.188-3.815c-2.59-.514-3.883-2.865-2.896-5.264.99-2.383 3.896-3.906 6.484-3.393 2.59.514 3.881 2.869 2.891 5.264-.991 2.389-3.892 3.907-6.479 3.393zm10.705 19.147c-.992 2.393-3.891 3.92-6.479 3.402-2.588-.51-3.885-2.877-2.895-5.262.992-2.393 3.898-3.918 6.482-3.404 2.589.518 3.886 2.875 2.892 5.264zm.033-65.498c-6.131 0-11.105-4.975-11.105-11.103 0-.749.078-1.481.221-2.19l20.105-3.997c1.186 1.769 1.883 3.896 1.883 6.188-.001 6.127-4.973 11.102-11.104 11.102zm19.693 47.758c-.994 2.393-3.895 3.912-6.482 3.395-2.59-.51-3.883-2.865-2.893-5.262.99-2.389 3.893-3.91 6.479-3.398 2.586.518 3.888 2.872 2.896 5.265z" fill="#7f72b1"/><path d="m267.09 253.885c-14.73 15.557-35.275 27.191-58.818 32.092 11.83 6.434 29.037 10.486 48.205 10.486 19.752 0 37.424-4.307 49.273-11.084-14.736-5.119-28.324-16.248-38.66-31.494zm-168.238-102.694c-16.064 14.49-24.891 30.848-24.891 46.32 0 21.061 13.82 46.377 32.871 60.199 5.515 4 12.358 7.375 20.374 10.117-8.569-17.459-13.381-36.824-13.381-57.246 0-22.921 6.033-44.537 16.697-63.591-12.655.864-24.661 2.867-31.67 4.201z" fill="#4c3e8b"/><path d="m290.943 212.143c-.084-.322-.209-.621-.369-.891-.789-1.729-3.467-1.924-6.711-2.154-2.994-.215-6.967-.334-11.182-.334-4.209 0-8.184.119-11.174.334-3.416.244-6.199.443-6.818 2.443-.062.143-.105.295-.141.449-.373 1.689.576 2.705 3.707 6.076 1.623 1.744 3.641 3.914 5.49 6.215 1.941 2.404 3.389 4.568 4.443 6.146 1.748 2.609 2.619 3.92 4.408 3.92.031 0 .064 0 .094-.002.033.002.062.002.094.002 2.756 0 9.578-5.537 13.225-10.068 4.005-4.967 5.512-9.867 4.934-12.136z" fill="#21236c"/><path d="m217.674 175.49c.186.941.285 1.914.285 2.912 0 8.178-6.621 14.807-14.803 14.807-8.176 0-14.804-6.629-14.804-14.807 0-3.052.923-5.887 2.511-8.246l-34.902-6.941c-2.266 5.205-3.529 10.945-3.529 16.982 0 23.525 19.076 42.607 42.605 42.607 23.525 0 42.602-19.082 42.602-42.607 0-.248-.012-.492-.018-.739z" fill="#fff576"/><path d="m348.314 165.889-26.172 5.208c1.186 1.769 1.883 3.896 1.883 6.188 0 6.128-4.973 11.103-11.104 11.103s-11.105-4.975-11.105-11.103c0-.749.078-1.481.221-2.19l3.127-.621-18.094 3.597c-.002.187-.014.372-.014.56 0 17.646 14.307 31.953 31.955 31.953 17.646 0 31.951-14.307 31.951-31.953.001-4.532-.948-8.838-2.648-12.742z" fill="#fff576"/><path d="m206.604 173.289-4.674-.932c-2.822.569-4.941 3.061-4.941 6.045 0 3.41 2.758 6.173 6.168 6.173 3.408 0 6.168-2.763 6.168-6.173-.001-2.127-1.075-4.004-2.721-5.113zm107.232-.541-3.496.695c-1.234.831-2.043 2.24-2.043 3.841 0 2.556 2.068 4.632 4.625 4.632s4.625-2.076 4.625-4.632c0-2.244-1.592-4.11-3.711-4.536z" fill="#fff"/><path d="m348.117 358.863c0-14.012-8.906-18.508-22.312-18.508h-18.592c-2.248 0-4.324 1.643-4.67 3.979l-7.094 54.051c-.342 2.768 1.127 4.582 3.635 4.582h8.648c2.596 0 4.582-1.729 4.93-4.496l1.816-13.838h5.359c15.915 0 28.28-8.475 28.28-25.77zm-24.992 10.897h-6.746l1.904-14.529h5.965c4.67 0 8.043 1.99 8.043 6.312 0 5.623-4.148 8.217-9.166 8.217zm-191.281-30.098c-20.496 0-29.23 14.271-29.23 40.041 0 16.605 6.832 23.957 20.842 23.957 18.506 0 24.3-10.898 25.77-22.918l.865-6.572c.262-2.336-1.039-4.066-3.718-4.066h-14.443c-3.285 0-4.496 1.99-4.842 4.67l-.261 1.904c-.344 2.68 1.213 4.064 3.721 4.064h2.94l-.089.605c-.691 4.93-2.939 7.004-7.955 7.004-3.545 0-5.361-3.199-5.361-10.377 0-11.328 2.074-23.004 9.771-23.004 3.287 0 5.707 3.027 5.707 7.783 0 3.285 1.3 3.633 4.41 3.113l7.438-1.211c3.718-.605 4.497-1.729 4.497-6.314 0-10.46-4.411-18.679-20.062-18.679zm105.068 48.258c-3.717.346-8.994.865-13.318.865-15.566 0-23.521-1.902-27.93-7.006l-3.029-3.287c6.227-3.803 11.674-9.6 11.674-19.629 0-14.012-8.908-18.508-22.312-18.508h-17.729c-2.681 0-4.323 1.643-4.67 3.979l-7.091 54.137c-.347 2.334.865 4.496 3.544 4.496h8.823c2.768 0 4.496-2.248 4.842-4.582l1.992-15.395h3.977l6.829 8.648c5.364 6.746 13.408 12.021 36.585 12.021 7.262 0 12.449-.605 15.824-.951 3.027-.348 4.498-2.422 4.756-4.584l.865-6.398c.259-2.249-.69-4.066-3.632-3.806zm-57.595-18.16h-5.88l1.9-14.529h5.102c4.584 0 8.043 1.99 8.043 6.312 0 5.623-4.148 8.217-9.165 8.217zm164.115 25.779h-1.197c-.623 0-.857.371-.926.826l-.574 4.348c-.045.404-.016.557.441.557h.639c.42 0 .521-.152.574-.574l.168-1.246h.203l.371 1.279c.117.389.217.541.725.541h.656c.371 0 .371-.221.268-.574l-.473-1.531c.676-.34 1.148-.928 1.148-1.922 0-1.284-.81-1.704-2.023-1.704zm-.319 2.611h-.389l.15-1.164h.322c.418 0 .658.17.658.49.001.456-.338.674-.741.674zm.487-4.718c-3.402 0-5.828 2.393-5.828 5.85 0 2.662 1.686 4.381 4.48 4.381 3.424 0 5.865-2.342 5.865-5.799 0-2.678-1.719-4.432-4.517-4.432zm-1.161 8.832c-1.939 0-3.1-1.23-3.1-3.152 0-2.543 1.666-4.281 4.076-4.281 1.953 0 3.137 1.246 3.137 3.203.001 2.542-1.702 4.23-4.113 4.23zm-98.263-61.909h-6.311c-2.77 0-4.498 1.73-4.76 4.062l-2.852 21.535c-.604 4.672-2.074 7.094-5.016 7.094s-3.893-2.422-3.289-7.094l2.771-21.102c.346-2.334-.781-4.496-3.547-4.496h-6.314c-2.766 0-4.408 2.162-4.756 4.496l-2.682 20.238c-1.727 13.057 2.943 20.236 16.172 20.236 13.318 0 19.807-7.18 21.535-20.236l2.682-20.324c.347-2.334-.866-4.409-3.633-4.409zm28.621 13.752c4.066 0 6.486 2.248 6.486 6.484 0 1.557 1.297 1.73 3.545 1.383l8.561-1.383c3.117-.518 4.238-2.506 4.154-4.756-.346-9.945-7.004-16.174-21.277-16.174-16.947 0-24.818 11.676-24.818 21.795 0 19.717 25.51 15.133 25.51 22.486 0 2.334-1.037 5.359-6.742 5.359-4.586 0-6.143-2.941-6.143-5.533 0-2.336-1.643-2.422-4.234-1.99l-7.957 1.299c-3.457.604-3.979 2.852-3.891 4.754.516 8.303 5.965 16 19.887 15.828 19.98-.174 26.465-9.602 26.465-20.236 0-19.547-25.424-16.432-25.424-23.869-.001-3.025 1.815-5.447 5.878-5.447z" fill="#333"/></svg>