<?xml version="1.0" encoding="utf-8"?>
<!-- Generator: Adobe Illustrator 15.1.0, SVG Export Plug-In . SVG Version: 6.00 Build 0)  -->
<!DOCTYPE svg PUBLIC "-//W3C//DTD SVG 1.1//EN" "http://www.w3.org/Graphics/SVG/1.1/DTD/svg11.dtd">
<svg version="1.1" id="Layer_1" xmlns="http://www.w3.org/2000/svg" xmlns:xlink="http://www.w3.org/1999/xlink" x="0px" y="0px"
	 width="187px" height="58px" viewBox="0 0 187 58" enable-background="new 0 0 187 58" xml:space="preserve">
<image display="none" overflow="visible" enable-background="new    " width="60" height="1020" id="Rectangle_xA0_Image_26_" xlink:href="41E0DAAF.png"  transform="matrix(1 0 0 1 170 0)">
</image>
<image display="none" overflow="visible" enable-background="new    " width="60" height="1020" id="Rectangle_xA0_Image_25_" xlink:href="41E0DAAD.png"  transform="matrix(1 0 0 1 90 0)">
</image>
<image display="none" overflow="visible" enable-background="new    " width="60" height="1020" id="Rectangle_xA0_Image_24_" xlink:href="41E0DAB3.png"  transform="matrix(1 0 0 1 10 0)">
</image>
<rect x="77.391" y="14.805" fill="#5C6066" width="5.812" height="24.229"/>
<path fill="#5C6066" d="M69.156,29.836c-2.422,0-5.329,0-7.75,0c0,2.906,0,6.293,0,9.199c-1.938,0-3.391,0-5.328,0
	c0-7.746,0-15.987,0-24.229c1.453,0,3.391,0,5.328,0c0,3.395,0,6.304,0,9.698c2.422,0,4.844,0,7.75,0c0-3.395,0-6.304,0-9.698
	c1.937,0,3.391,0,5.328,0c0,8.243,0,16.483,0,24.229c-1.938,0-3.391,0-5.328,0C69.156,36.129,69.156,32.74,69.156,29.836z"/>
<path fill="#5C6066" d="M112.266,39.033c-1.938,0-3.875,0-5.328,0c0-7.746,0-15.986,0-24.229c1.453,0,3.392,0,5.328,0
	c0,3.395,0,6.304,0,9.698c2.422,0,4.844,0,7.75,0c0-3.395,0-6.304,0-9.698c1.938,0,3.392,0,5.328,0c0,8.243,0,16.482,0,24.229
	c-1.938,0-3.391,0-5.328,0c0-2.904,0-6.293,0-9.197c-2.906,0-5.328,0-7.75,0C112.266,32.74,112.266,36.129,112.266,39.033z"/>
<path fill="#5C6066" d="M103.125,15.331c-0.271,1.648-0.537,3.25-0.807,4.883c-1.008-0.14-1.955-0.318-2.909-0.393
	c-1.519-0.121-3.042-0.256-4.562-0.229c-2.048,0.037-3.388,1.321-3.468,3.389c-0.1,2.6-0.126,5.21-0.017,7.806
	c0.109,2.582,1.351,3.703,3.977,3.787c0.939,0.029,1.887-0.113,2.825-0.217c0.123-0.014,0.312-0.361,0.313-0.5
	c0.023-1.281,0.014-2.568,0.014-4.021c-1.033,0-2.213,0-3.18,0c0-0.486,0-1.484,0-2.297c0-0.817,0-1.582,0-2.552
	c2.905,0,5.812,0,8.719,0c0,0,0,0.393,0,0.569c0,4.149,0.016,8.296,0.029,12.44c0,0.396-0.088,0.58-0.498,0.684
	c-3.102,0.789-6.238,1.08-9.433,0.857c-1.509-0.107-2.97-0.377-4.353-1.014c-2.289-1.055-3.522-2.908-3.861-5.336
	c-0.189-1.354-0.212-2.738-0.218-4.111c-0.01-2.398-0.042-4.804,0.109-7.198c0.177-2.81,1.292-5.135,4.005-6.4
	c1.601-0.746,3.319-0.932,5.049-0.94c2.621-0.011,5.229,0.195,7.813,0.654C102.801,15.215,102.922,15.268,103.125,15.331z"/>
<path fill="#FFC400" d="M147.255,27.178c0,1.939,0.022,3.654-0.008,5.492c-0.021,1.232-0.239,2.418-0.83,3.523
	c-0.899,1.68-2.416,2.535-4.178,2.951c-2.913,0.689-5.859,0.697-8.761-0.049c-3.299-0.848-4.843-2.795-5.004-6.33
	c-0.103-2.242-0.043-4.497-0.039-6.748c0.004-1.675-0.045-3.354,0.074-5.021c0.235-3.278,1.823-5.158,5.035-5.951
	c3.098-0.764,6.217-0.766,9.292,0.145c2.58,0.764,4.122,2.72,4.32,5.408c0.081,1.092,0.085,2.219,0.102,3.314
	c0.017,1.08,0.003,2.296,0.003,3.266C147.262,27.178,147.258,27.178,147.255,27.178z M141.621,27.178c-0.006,0-0.012,0-0.018,0
	c0-1.728,0.062-3.459-0.022-5.183c-0.06-1.223-0.786-2.037-1.978-2.218c-1.013-0.156-2.078-0.208-3.088-0.072
	c-1.615,0.22-2.375,1.026-2.426,2.677c-0.097,3.065-0.107,6.136-0.035,9.199c0.041,1.686,0.697,2.438,2.055,2.789
	c1.092,0.283,2.203,0.318,3.309,0.08c1.376-0.299,2.09-0.998,2.182-2.424C141.7,30.416,141.621,28.795,141.621,27.178z"/>
<path fill="#FFC400" d="M149.872,14.986c0-0.008,0.371-0.021,0.533-0.021c3.012-0.002,6.04-0.045,9.05,0.021
	c1.212,0.026,2.463,0.16,3.629,0.478c2.328,0.637,3.576,2.33,3.841,4.676c0.226,1.996,0.275,4.007-0.077,6.002
	c-0.516,2.911-3.023,5.277-5.976,5.539c-1.403,0.125-2.715,0.092-4.125,0.125c-0.369,0.01-1.063,0.002-1.063,0.002
	c0,2.457,0,5.055,0,7.475c-1.938,0-3.875,0-5.812,0C149.872,31.055,149.872,23.067,149.872,14.986z M155.686,26.782
	c1.453,0,2.709,0.013,4.082-0.004c1.018-0.014,1.572-0.503,1.657-1.524c0.099-1.182,0.097-2.376,0.05-3.561
	c-0.039-1.015-0.621-1.54-1.654-1.602c-1.147-0.068-2.207-0.064-3.357-0.089c-0.288-0.006-0.775-0.001-0.775-0.001
	C155.686,22.302,155.686,24.509,155.686,26.782z"/>
<path fill="#FFC400" d="M168.943,38.908c0.205-1.666,0.406-3.293,0.61-4.945c1.374,0.16,2.69,0.338,4.013,0.461
	c1.851,0.17,3.709,0.332,5.55-0.057c1.167-0.246,1.577-0.844,1.521-2.021c-0.031-0.639-0.422-1.053-0.918-1.301
	c-1.421-0.711-2.871-1.365-4.314-2.027c-1.228-0.562-2.485-1.062-3.688-1.676c-1.335-0.68-2.117-1.811-2.381-3.302
	c-0.259-1.464-0.3-2.924,0.068-4.369c0.619-2.416,2.301-3.786,4.588-4.483c2.548-0.776,5.162-0.768,7.781-0.5
	c1.178,0.121,2.349,0.321,3.521,0.489c0.144,0.021,0.279,0.081,0.458,0.132c-0.263,1.643-0.521,3.261-0.777,4.856
	c-1.293-0.163-2.519-0.4-3.752-0.449c-1.645-0.067-3.297-0.035-4.941,0.047c-0.758,0.039-1.379,0.446-1.534,1.299
	c-0.156,0.86,0.175,1.546,0.928,1.908c1.431,0.689,2.905,1.287,4.36,1.927c1.335,0.587,2.693,1.129,3.994,1.786
	c1.025,0.517,1.626,1.443,1.892,2.56c0.388,1.629,0.463,3.285,0.114,4.914c-0.555,2.586-2.346,4.016-4.764,4.789
	c-1.479,0.473-3.006,0.639-4.549,0.664C174.117,39.654,171.542,39.367,168.943,38.908z"/>
<polygon fill="#FFC400" points="31.884,15.621 32.672,12.092 39.37,9.293 37.227,16.712 32.392,18.5 32.439,19.149 47,32.059 
	47,3.005 29.66,3.005 "/>
<polygon fill="#FFC400" points="25.188,10.307 25.325,3.005 14.08,3.005 20.536,11.377 "/>
<polygon fill="#FFC400" points="42.298,38.629 36.132,37.545 28.549,39.096 20.365,37.037 23.926,39.768 22.396,51.051 47,51.051 
	47,35.691 "/>
<path fill="#FFC400" d="M12.555,21.984l-6.843-1.509l-3.397-5.879l7.006-0.634l4.288,4.158l1.184-3.759L9.579,3.536
	C9.393,3.268,9.291,3.111,9.242,3.005H0v48.046h0.382L12.555,21.984z"/>
<polygon fill="#5C6066" points="29.54,37.609 32.364,36.951 28.508,34.391 27.395,35.109 "/>
<polygon fill="#5C6066" points="28.255,37.49 26.428,35.613 25.021,36.398 "/>
<polygon fill="#5C6066" points="25.358,34.93 28.239,33.002 26.974,30.953 24.588,30.322 "/>
<polygon fill="#5C6066" points="24.34,36.311 21.734,34.547 21.955,36.377 "/>
<polygon fill="#5C6066" points="24.213,34.729 23.328,29.823 20.397,29.486 19.883,32.529 "/>
<polygon fill="#5C6066" points="21.307,35.98 21.032,34.334 17.026,32.889 16.414,33.758 "/>
<polygon fill="#5C6066" points="19.14,32.324 19.442,29.914 16.541,27.079 17.174,31.459 "/>
<polygon fill="#5C6066" points="16.555,31.959 14.688,25.128 13.973,28.869 15.63,33.166 "/>
<polygon fill="#5C6066" points="13.083,29.684 14.803,34.865 18.137,37.348 15.765,39.285 12.004,35.557 "/>
<polygon fill="#5C6066" points="11.978,37.732 16.868,43.354 16.859,48.375 14.131,49.959 10.5,39.547 "/>
<polygon fill="#5C6066" points="19.604,38.115 17.271,39.939 18.246,42.021 18.396,46.977 20.947,46.965 22.03,41.41 "/>
<polygon fill="#5C6066" points="9.139,42.119 11.753,50.805 11.205,55.105 8,56.346 5.773,53.18 6.209,48.422 "/>
<polygon fill="#5C6066" points="14.195,57.691 14.759,52.984 18.266,50.668 20.934,50.732 20.022,55.275 "/>
<rect id="_x3C_Slice_x3E__1_" fill="none" width="187" height="58.051"/>
</svg>
