<svg enable-background="new 0 0 381.3 68.1" viewBox="0 0 381.3 68.1" xmlns="http://www.w3.org/2000/svg" xmlns:xlink="http://www.w3.org/1999/xlink"><linearGradient id="a"><stop offset="0" stop-color="#ffea00"/><stop offset=".3778" stop-color="#ffb01a"/><stop offset="1" stop-color="#ff3e00"/></linearGradient><linearGradient id="b" gradientUnits="userSpaceOnUse" x1="22.7649" x2="39.6492" xlink:href="#a" y1="39.734" y2="68.9784"/><linearGradient id="c" gradientUnits="userSpaceOnUse" x1="37.3592" x2="59.9545" y1="36.8238" y2="14.2284"><stop offset="0" stop-color="#ffea00"/><stop offset=".5677" stop-color="#ffb01a"/></linearGradient><linearGradient id="d" gradientUnits="userSpaceOnUse" x1="26.6662" x2="26.6662" xlink:href="#a" y1="16.5913" y2="26.0919"/><linearGradient id="e" gradientUnits="userSpaceOnUse" x1="11.9928" x2="54.5042" xlink:href="#a" y1="55.3107" y2="55.3107"/><linearGradient id="f" gradientUnits="userSpaceOnUse" x1="20.9845" x2="54.5045" y1="54.4074" y2="54.4074"><stop offset="0" stop-color="#ffea00"/><stop offset=".904" stop-color="#ffb01a"/></linearGradient><path d="m18.1 43.4c-1.2 0-2.4.3-3.6 1.1-.1.1-.2.1-.2.2-3.1 2.1-3.4 7.5-1.4 11.7 2.4 5.1 7.9 8.7 16.3 10.5.2.1.5.1.7.1 4 .5 8 .2 11.8-.7 4.5-1.1 8.8-3.2 12.4-6-1.1.5-2.2.9-3.4 1.3-.2.1-.4.1-.6.2-6.7 1.9-11.8-1.5-16.3-5.9-1-1-2-2-3-3-4.4-4.8-8.3-9.5-12.7-9.5z" fill="url(#b)"/><path d="m58.8 25c-.5-6.8-3.2-13.6-7.1-19.1-.2-.1-.5-.3-.7-.4 0 0 0 .1.1.1 2.6 4.6 3.9 10 4.2 15.3.7 11.3-8.4 20.2-19.3 12.4l-5.3-3.2 4.3 3.3c12.1 15.6 24.7 3.4 23.8-8.4z" fill="url(#c)"/><path d="m30 16.4c-8.6-1.6-17.6-3.1-23.4.7-1.6 2.6-4.2 10.9-4.4 12.2-.1.5.5.9.4 1.4h11.4c-2.2-16 8.8-14.1 19.1-12.2 6.7 1.2 13 2.4 15.4-1.2.6-.9.9-1.9 1.1-2.8-1.6 5.4-10.1 3.7-19.6 1.9" fill="#f3ae24"/><g fill="#2289ff"><path d="m51.7 6c4 5.4 6.7 12.2 7.1 19.1.8 11.7-11.2 21.7-21 11.4-9.6-10.2-25-17.3-33.2-10.3 1.6-12.8 14.4-10.7 26-8.5 8.1 1.5 15.6 3 18.1-.6.7-.9.9-2 1-3 0-.2 0-.3 0-.3.2-5.2-.4-8.9-.4-8.9-.3-.2-.7-.4-1.2-.7-2.8-1.3-5.9-2.2-9.1-2.7-1.5-.4-3.1-.5-4.7-.5-11.6 0-22.3 6.3-28.2 15.9-1.6 2.6-2.8 5.4-3.7 8.5v.1c-.3 1.2-.6 2.5-.8 3.8-.2 1.6-.3 3.2-.3 4.8v.7c.4 15.8 12.1 29.6 28.3 31.9.2.1.5.1.7.1 4 .5 8 .2 11.8-.7 4.7-1.1 8.8-3.1 12.4-5.9 6.6-5.1 11.2-12.6 12.5-21.4 2-13.3-4.5-26.1-15.3-32.8z"/><path d="m269.3 24.9h7.8v26.4h-7.8z"/><path d="m139.6 40.8v-5.5c0-1.6-.2-2.9-.5-4.2-.3-1.2-.8-2.3-1.6-3.4-.7-1.1-1.8-1.9-3.3-2.5s-3.2-.9-5.3-.9c-7.6 0-11.3 3.5-11.3 10.6v6.2c0 7.2 4 10.7 11.8 10.7 3.5 0 6.8-.5 9.9-1.7l-1.1-5.9c-2.5.8-5.2 1.2-8 1.2-1.8 0-3.1-.3-3.7-.8-.7-.5-1-1.5-1-3v-.8zm-14.2-7c0-2.2 1.2-3.4 3.6-3.4 1.3 0 2.1.3 2.6.9s.7 1.4.7 2.5v1.1h-6.8v-1.1z"/><path d="m165.2 27.3c-1.8-2-4.9-3-9.2-3s-7.4 1-9.2 3-2.7 4.6-2.7 7.7v6.1c0 3.1.9 5.7 2.7 7.7s4.9 3 9.2 3 7.4-1 9.2-3 2.8-4.6 2.8-7.7v-6.1c0-3.1-.9-5.7-2.8-7.7zm-5 14.1c0 2.6-1.4 3.9-4.1 3.9s-4.1-1.3-4.1-3.9v-6.6c0-2.6 1.4-3.9 4.1-3.9s4.1 1.3 4.1 3.9z"/><path d="m174.7 26.1c-1.4 1.2-2.1 3.2-2.1 6.1 0 2.6.4 4.5 1.2 5.5.8 1.1 2.7 2 5.8 2.7 2.1.5 3.3.9 3.7 1.2s.6.9.6 1.7-.2 1.4-.5 1.7-1.1.5-2.2.5c-2.7 0-5.3-.4-8-1.2l-1.3 5.8c3.1 1 6.3 1.6 9.6 1.6 3.6 0 6.2-.7 7.6-2.1 1.5-1.4 2.2-3.5 2.2-6.3 0-1.5-.1-2.6-.2-3.4s-.5-1.5-1-2.2c-.6-.7-1.4-1.3-2.4-1.7s-2.5-.8-4.4-1.3c-1.5-.4-2.5-.7-2.8-.9-.3-.3-.5-.8-.5-1.6 0-.6.2-1.1.6-1.4s1.1-.4 2.2-.4c2.1 0 4.6.3 7.3.8l.7-6.1c-2.3-.6-5-.9-8-.9-4.1.1-6.7.7-8.1 1.9"/><path d="m217 26.8c-1.4-1.6-3.5-2.5-6.2-2.5s-5.4.9-8.1 2.7l-.8-2.1h-6.1v38.1l7.8-1.1v-10.8c2.1.5 4.3.8 6.7.8 5.9 0 8.9-3.2 8.9-9.7v-8c-.1-3.3-.8-5.8-2.2-7.4zm-5.7 15.3c0 2-.9 3-2.8 3-1.5 0-3.2-.2-5-.7v-11.2c1.6-1.4 3.3-2.1 5-2.1 1.9 0 2.8 1 2.8 3z"/><path d="m245.6 40.8v-5.5c0-1.6-.1-2.9-.4-4.2-.3-1.2-.8-2.3-1.6-3.4-.7-1.1-1.8-1.9-3.3-2.5s-3.3-.9-5.4-.9c-7.5 0-11.3 3.5-11.3 10.6v6.2c0 7.2 3.9 10.7 11.8 10.7 3.5 0 6.9-.5 9.9-1.7l-1.1-5.9c-2.5.8-5.2 1.2-8 1.2-1.8 0-3-.3-3.7-.8s-1-1.5-1-3v-.8zm-14.1-7c0-2.2 1.2-3.4 3.5-3.4 1.3 0 2.1.3 2.6.9s.7 1.4.7 2.5v1.1h-6.8z"/><path d="m260.6 25.6c-1.4.6-2.6 1.2-3.4 1.8l-.6-2.6h-6.5v26.4h7.8v-16c1.5-1 3.8-2.2 7-3.5l-.6-7.4c-1 .2-2.3.7-3.7 1.3"/><path d="m303.5 40.8v-5.5c0-1.6-.2-2.9-.4-4.2-.3-1.2-.8-2.3-1.6-3.4-.7-1.1-1.8-1.9-3.3-2.5s-3.2-.9-5.3-.9c-7.6 0-11.3 3.5-11.3 10.6v6.2c0 7.2 4 10.7 11.8 10.7 3.6 0 6.9-.5 9.9-1.7l-1.1-5.9c-2.5.8-5.1 1.2-8 1.2-1.8 0-3.1-.3-3.8-.8s-1-1.5-1-3v-.8zm-14.3-7c0-2.2 1.2-3.4 3.6-3.4 1.3 0 2.1.3 2.6.9.4.6.7 1.4.7 2.5v1.1h-6.8v-1.1z"/><path d="m314.5 26.9-.8-2h-5.8v26.4h7.8v-17.5c2.3-1.3 4.2-1.9 5.7-1.9 1.3 0 1.9.6 1.9 1.9v17.5h7.8v-18.5c0-5.6-2-8.5-6.1-8.5-3.5 0-7 .9-10.5 2.6"/><path d="m338.4 26.9c-1.9 1.7-2.9 4.4-2.9 8.2v6c0 3.8.9 6.5 2.9 8.2 1.9 1.7 5 2.5 9.2 2.5 1.9 0 4-.3 6.4-.8l-1-6.5c-1.9.4-3.7.6-5.4.6-1.5 0-2.6-.3-3.3-.9s-1-1.6-1-3v-6.2c0-1.4.3-2.4 1-3 .6-.6 1.7-1 3.3-1 1.8 0 3.6.2 5.4.7l1-6.5c-2.4-.6-4.6-.8-6.4-.8-4.3-.1-7.3.8-9.2 2.5"/><path d="m380.3 40.8v-5.5c0-1.6-.2-2.9-.5-4.2-.3-1.2-.8-2.3-1.6-3.4-.7-1.1-1.8-1.9-3.3-2.5s-3.2-.9-5.4-.9c-7.6 0-11.3 3.5-11.3 10.6v6.2c0 7.2 3.9 10.7 11.8 10.7 3.5 0 6.8-.5 9.9-1.7l-1.1-5.9c-2.5.8-5.2 1.2-8 1.2-1.8 0-3-.3-3.7-.8s-1-1.5-1-3v-.8zm-14.3-7c0-2.2 1.2-3.4 3.6-3.4 1.3 0 2.2.3 2.6.9s.7 1.4.7 2.5v1.1h-6.9z"/><path d="m105.4 15.2v24.8l-11.9-24.8h-9.9v36.1h7.7v-23.8l11.9 23.8h10v-36.1z"/><path d="m269.3 13.3h7.8v8.3h-7.8z"/></g><path d="m49.6 11.5v.3c-.1 1-.3 2-1 3-2.6 3.6-11.9 1.8-20 .3-20.8-3.7-25.3 7.5-26.4 11-.2.9-.7 3.5-.7 3.5s.6-1.3 1.5-2.3c.7-.7 1.4-1.2 1.6-1.3 3-9.9 15.2-10.5 25.9-8.5 8.1 1.5 15.6 3 18.1-.6.7-.9.9-2 1-3 0-.2 0-.3 0-.3.1-2.1 0-4 0-5.5.1 1.1.1 2.2 0 3.4z" fill="#1671ff"/><path d="m28 17.6c1.7.2 3.4.5 5.1.8 6.7 1.2 13 2.4 15.4-1.2 0-.1.1-.1.1-.2-2.7 3.4-10.1 1.9-18 .5-11.6-2.1-23.1-1.2-26 8.5 1-.8 3.4-2.6 7.5-2.8 2.7-7.9 10.8-6.3 15.9-5.6z" fill="url(#d)"/><path d="m18.5 43.4c-1.2 0-2.4.3-3.6 1.1-.1.1-.2.1-.2.2-3.1 2.1-3.4 7.5-1.4 11.7 2.4 5.1 7.9 8.7 16.3 10.5.2.1.5.1.7.1 4 .5 8 .2 11.8-.7 4.5-1.1 8.8-3.2 12.4-6-1.1.5-2.2.9-3.4 1.3-.2.1-.4.1-.6.2-6.7 1.9-11.8-1.5-16.3-5.9-1-1-2-2-3-3-4.4-4.8-8.3-9.5-12.7-9.5z" fill="url(#e)"/><path d="m25.6 49.1s1.6 2.2 6.1 7.8c3.6 3.9 5 5.2 8.7 7.1.6.3 4.2 2.2 9.3-.5.7-.4 1.4-.7 2-1.2 1.1-.7 2-1.3 2.7-1.8.1 0 .1-.1.2-.1-1.1.5-2.2.9-3.4 1.3-.2.1-.4.1-.6.2-6.7 1.9-11.8-1.5-16.3-5.9-1-1-2-2-3-3-3.6-3.8-6.8-7.6-10.2-8.9 2.8 2.3 4.5 5 4.5 5z" fill="url(#f)"/><path d="m34.9 54.5c-1.1-1.1-2.2-2.3-3.3-3.4-4.9-5.3-9.2-10.5-14.2-10.5-1.3 0-2.6.4-4 1.2-.1.1-.2.1-.3.2-3.4 2.3-3.8 8.4-1.5 13.1 1.8 3.7 4.9 6.7 9.5 8.9-3.7-1.9-6.3-4.5-7.8-7.6-2-4.2-1.7-9.6 1.4-11.7.1-.1.2-.1.2-.2 1.3-.7 2.4-1.1 3.6-1.1 4.4 0 8.3 4.7 12.7 9.4 1 1 1.9 2.1 3 3 4.5 4.4 9.6 7.8 16.3 5.9.2-.1.4-.1.6-.2h.1c-6.6 1-11.7-2.5-16.3-7z" fill="#1671ff"/></svg>