<?xml version="1.0" encoding="utf-8"?>
<!-- Generator: Adobe Illustrator 22.1.0, SVG Export Plug-In . SVG Version: 6.00 Build 0)  -->
<svg version="1.1" id="Livello_1" xmlns="http://www.w3.org/2000/svg" xmlns:xlink="http://www.w3.org/1999/xlink" x="0px" y="0px"
	 viewBox="0 0 381.3 68.1" style="enable-background:new 0 0 381.3 68.1;" xml:space="preserve">
<style type="text/css">
	.st0{fill:url(#SVGID_4_);}
	.st1{fill:#2289FF;}
	.st2{fill:none;stroke:#231F20;stroke-width:4.202067e-02;stroke-miterlimit:10;}
	.st3{fill:#231F20;}
	.st4{fill:url(#SVGID_9_);}
	.st5{fill:#1671FF;}
	.st6{fill:url(#SVGID_10_);}
	.st7{fill:url(#SVGID_14_);}
</style>
<g>
	<g>
		<g>
			<g>
				<defs>
					<path id="SVGID_1_" d="M18.1,43.4c-1.2,0-2.4,0.3-3.6,1.1c-0.1,0.1-0.2,0.1-0.2,0.2c-3.1,2.1-3.4,7.5-1.4,11.7
						c2.4,5.1,7.9,8.7,16.3,10.5c0.2,0.1,0.5,0.1,0.7,0.1c4,0.5,8,0.2,11.8-0.7c4.5-1.1,8.8-3.2,12.4-6c0,0,0,0,0,0
						c-1.1,0.5-2.2,0.9-3.4,1.3c-0.2,0.1-0.4,0.1-0.6,0.2c-6.7,1.9-11.8-1.5-16.3-5.9c-1-1-2-2-3-3C26.4,48.1,22.5,43.4,18.1,43.4
						L18.1,43.4"/>
				</defs>
				<linearGradient id="SVGID_2_" gradientUnits="userSpaceOnUse" x1="22.7649" y1="39.734" x2="39.6492" y2="68.9784">
					<stop  offset="0" style="stop-color:#FFEA00"/>
					<stop  offset="0.3778" style="stop-color:#FFB01A"/>
					<stop  offset="1" style="stop-color:#FF3E00"/>
				</linearGradient>
				<use xlink:href="#SVGID_1_"  style="overflow:visible;fill:url(#SVGID_2_);"/>
				<clipPath id="SVGID_3_">
					<use xlink:href="#SVGID_1_"  style="overflow:visible;"/>
				</clipPath>
			</g>
		</g>
		<g>
			<g>
				<linearGradient id="SVGID_4_" gradientUnits="userSpaceOnUse" x1="37.3592" y1="36.8238" x2="59.9545" y2="14.2284">
					<stop  offset="0" style="stop-color:#FFEA00"/>
					<stop  offset="0.5677" style="stop-color:#FFB01A"/>
				</linearGradient>
				<path class="st0" d="M58.8,25c-0.5-6.8-3.2-13.6-7.1-19.1c-0.2-0.1-0.5-0.3-0.7-0.4c0,0,0,0.1,0.1,0.1c2.6,4.6,3.9,10,4.2,15.3
					c0.7,11.3-8.4,20.2-19.3,12.4l-5.3-3.2l4.3,3.3C47.1,49,59.7,36.8,58.8,25z"/>
			</g>
		</g>
		<g>
			<defs>
				<path id="SVGID_5_" d="M30,16.4c-8.6-1.6-17.6-3.1-23.4,0.7C5,19.7,2.4,28,2.2,29.3c-0.1,0.5,0.5,0.9,0.4,1.4H14
					c-2.2-16,8.8-14.1,19.1-12.2c6.7,1.2,13,2.4,15.4-1.2c0.6-0.9,0.9-1.9,1.1-2.8C48,19.9,39.5,18.2,30,16.4"/>
			</defs>
			<use xlink:href="#SVGID_5_"  style="overflow:visible;fill:#F3AE24;"/>
			<clipPath id="SVGID_6_">
				<use xlink:href="#SVGID_5_"  style="overflow:visible;"/>
			</clipPath>
		</g>
		<path class="st1" d="M51.7,6c4,5.4,6.7,12.2,7.1,19.1c0.8,11.7-11.2,21.7-21,11.4c-9.6-10.2-25-17.3-33.2-10.3
			c1.6-12.8,14.4-10.7,26-8.5c8.1,1.5,15.6,3,18.1-0.6c0.7-0.9,0.9-2,1-3c0-0.2,0-0.3,0-0.3c0.2-5.2-0.4-8.9-0.4-8.9
			c-0.3-0.2-0.7-0.4-1.2-0.7c-2.8-1.3-5.9-2.2-9.1-2.7C37.5,1.1,35.9,1,34.3,1C22.7,1,12,7.3,6.1,16.9c0,0,0,0,0,0c0,0,0,0,0,0
			c-1.6,2.6-2.8,5.4-3.7,8.5v0c0,0,0,0.1,0,0.1c0,0,0,0,0,0c0,0,0,0,0,0c-0.3,1.2-0.6,2.5-0.8,3.8c-0.2,1.6-0.3,3.2-0.3,4.8
			c0,0.2,0,0.5,0,0.7l0,0c0.4,15.8,12.1,29.6,28.3,31.9c0.2,0.1,0.5,0.1,0.7,0.1c4,0.5,8,0.2,11.8-0.7c4.7-1.1,8.8-3.1,12.4-5.9
			c6.6-5.1,11.2-12.6,12.5-21.4C69,25.5,62.5,12.7,51.7,6z"/>
		<rect x="269.3" y="24.9" class="st1" width="7.8" height="26.4"/>
		<path class="st1" d="M139.6,40.8v-5.5c0-1.6-0.2-2.9-0.5-4.2c-0.3-1.2-0.8-2.3-1.6-3.4c-0.7-1.1-1.8-1.9-3.3-2.5
			c-1.5-0.6-3.2-0.9-5.3-0.9c-7.6,0-11.3,3.5-11.3,10.6v6.2c0,7.2,4,10.7,11.8,10.7c3.5,0,6.8-0.5,9.9-1.7l-1.1-5.9
			c-2.5,0.8-5.2,1.2-8,1.2c-1.8,0-3.1-0.3-3.7-0.8c-0.7-0.5-1-1.5-1-3v-0.8H139.6z M125.4,33.8c0-2.2,1.2-3.4,3.6-3.4
			c1.3,0,2.1,0.3,2.6,0.9c0.5,0.6,0.7,1.4,0.7,2.5v1.1h-6.8V33.8z"/>
		<path class="st1" d="M165.2,27.3c-1.8-2-4.9-3-9.2-3c-4.3,0-7.4,1-9.2,3c-1.8,2-2.7,4.6-2.7,7.7v6.1c0,3.1,0.9,5.7,2.7,7.7
			c1.8,2,4.9,3,9.2,3c4.3,0,7.4-1,9.2-3c1.8-2,2.8-4.6,2.8-7.7V35C168,31.9,167.1,29.3,165.2,27.3z M160.2,41.4
			c0,2.6-1.4,3.9-4.1,3.9c-2.7,0-4.1-1.3-4.1-3.9v-6.6c0-2.6,1.4-3.9,4.1-3.9c2.7,0,4.1,1.3,4.1,3.9V41.4z"/>
		<path class="st1" d="M174.7,26.1c-1.4,1.2-2.1,3.2-2.1,6.1c0,2.6,0.4,4.5,1.2,5.5c0.8,1.1,2.7,2,5.8,2.7c2.1,0.5,3.3,0.9,3.7,1.2
			c0.4,0.3,0.6,0.9,0.6,1.7c0,0.8-0.2,1.4-0.5,1.7c-0.3,0.3-1.1,0.5-2.2,0.5c-2.7,0-5.3-0.4-8-1.2l-1.3,5.8c3.1,1,6.3,1.6,9.6,1.6
			c3.6,0,6.2-0.7,7.6-2.1c1.5-1.4,2.2-3.5,2.2-6.3c0-1.5-0.1-2.6-0.2-3.4c-0.1-0.8-0.5-1.5-1-2.2c-0.6-0.7-1.4-1.3-2.4-1.7
			c-1-0.4-2.5-0.8-4.4-1.3c-1.5-0.4-2.5-0.7-2.8-0.9c-0.3-0.3-0.5-0.8-0.5-1.6c0-0.6,0.2-1.1,0.6-1.4c0.4-0.3,1.1-0.4,2.2-0.4
			c2.1,0,4.6,0.3,7.3,0.8l0.7-6.1c-2.3-0.6-5-0.9-8-0.9C178.7,24.3,176.1,24.9,174.7,26.1"/>
		<path class="st1" d="M217,26.8c-1.4-1.6-3.5-2.5-6.2-2.5c-2.7,0-5.4,0.9-8.1,2.7l-0.8-2.1h-6.1V63l7.8-1.1V51.1
			c2.1,0.5,4.3,0.8,6.7,0.8c5.9,0,8.9-3.2,8.9-9.7v-8C219.1,30.9,218.4,28.4,217,26.8z M211.3,42.1c0,2-0.9,3-2.8,3
			c-1.5,0-3.2-0.2-5-0.7V33.2c1.6-1.4,3.3-2.1,5-2.1c1.9,0,2.8,1,2.8,3V42.1z"/>
		<path class="st1" d="M245.6,40.8v-5.5c0-1.6-0.1-2.9-0.4-4.2c-0.3-1.2-0.8-2.3-1.6-3.4c-0.7-1.1-1.8-1.9-3.3-2.5
			c-1.5-0.6-3.3-0.9-5.4-0.9c-7.5,0-11.3,3.5-11.3,10.6v6.2c0,7.2,3.9,10.7,11.8,10.7c3.5,0,6.9-0.5,9.9-1.7l-1.1-5.9
			c-2.5,0.8-5.2,1.2-8,1.2c-1.8,0-3-0.3-3.7-0.8c-0.7-0.5-1-1.5-1-3v-0.8H245.6z M231.5,33.8c0-2.2,1.2-3.4,3.5-3.4
			c1.3,0,2.1,0.3,2.6,0.9c0.5,0.6,0.7,1.4,0.7,2.5v1.1h-6.8V33.8z"/>
		<path class="st1" d="M260.6,25.6c-1.4,0.6-2.6,1.2-3.4,1.8l-0.6-2.6h-6.5v26.4h7.8V35.2c1.5-1,3.8-2.2,7-3.5l-0.6-7.4
			C263.3,24.5,262,25,260.6,25.6"/>
		<path class="st1" d="M303.5,40.8v-5.5c0-1.6-0.2-2.9-0.4-4.2c-0.3-1.2-0.8-2.3-1.6-3.4c-0.7-1.1-1.8-1.9-3.3-2.5
			c-1.5-0.6-3.2-0.9-5.3-0.9c-7.6,0-11.3,3.5-11.3,10.6v6.2c0,7.2,4,10.7,11.8,10.7c3.6,0,6.9-0.5,9.9-1.7l-1.1-5.9
			c-2.5,0.8-5.1,1.2-8,1.2c-1.8,0-3.1-0.3-3.8-0.8c-0.7-0.5-1-1.5-1-3v-0.8H303.5z M289.2,33.8c0-2.2,1.2-3.4,3.6-3.4
			c1.3,0,2.1,0.3,2.6,0.9c0.4,0.6,0.7,1.4,0.7,2.5v1.1h-6.8V33.8z"/>
		<path class="st1" d="M314.5,26.9l-0.8-2h-5.8v26.4h7.8V33.8c2.3-1.3,4.2-1.9,5.7-1.9c1.3,0,1.9,0.6,1.9,1.9v17.5h7.8V32.8
			c0-5.6-2-8.5-6.1-8.5C321.5,24.3,318,25.2,314.5,26.9"/>
		<path class="st1" d="M338.4,26.9c-1.9,1.7-2.9,4.4-2.9,8.2v6c0,3.8,0.9,6.5,2.9,8.2c1.9,1.7,5,2.5,9.2,2.5c1.9,0,4-0.3,6.4-0.8
			l-1-6.5c-1.9,0.4-3.7,0.6-5.4,0.6c-1.5,0-2.6-0.3-3.3-0.9c-0.7-0.6-1-1.6-1-3v-6.2c0-1.4,0.3-2.4,1-3c0.6-0.6,1.7-1,3.3-1
			c1.8,0,3.6,0.2,5.4,0.7l1-6.5c-2.4-0.6-4.6-0.8-6.4-0.8C343.3,24.3,340.3,25.2,338.4,26.9"/>
		<path class="st1" d="M380.3,40.8v-5.5c0-1.6-0.2-2.9-0.5-4.2c-0.3-1.2-0.8-2.3-1.6-3.4c-0.7-1.1-1.8-1.9-3.3-2.5
			c-1.5-0.6-3.2-0.9-5.4-0.9c-7.6,0-11.3,3.5-11.3,10.6v6.2c0,7.2,3.9,10.7,11.8,10.7c3.5,0,6.8-0.5,9.9-1.7l-1.1-5.9
			c-2.5,0.8-5.2,1.2-8,1.2c-1.8,0-3-0.3-3.7-0.8c-0.7-0.5-1-1.5-1-3v-0.8H380.3z M366,33.8c0-2.2,1.2-3.4,3.6-3.4
			c1.3,0,2.2,0.3,2.6,0.9c0.4,0.6,0.7,1.4,0.7,2.5v1.1H366V33.8z"/>
		<polygon class="st1" points="105.4,15.2 105.4,40 93.5,15.2 83.6,15.2 83.6,51.3 91.3,51.3 91.3,27.5 103.2,51.3 113.2,51.3 
			113.2,15.2 		"/>
		<rect x="269.3" y="13.3" class="st1" width="7.8" height="8.3"/>
		<g>
			<linearGradient id="SVGID_8_" gradientUnits="userSpaceOnUse" x1="2.2363" y1="25.9051" x2="2.239" y2="25.9051">
				<stop  offset="0" style="stop-color:#378FCB"/>
				<stop  offset="1" style="stop-color:#2986C5"/>
			</linearGradient>
			<polygon style="fill:url(#SVGID_8_);" points="2.2,25.9 2.2,25.9 2.2,25.9 			"/>
			<path class="st5" d="M49.6,11.5c0,0,0,0.1,0,0.3c-0.1,1-0.3,2-1,3c-2.6,3.6-11.9,1.8-20,0.3c-20.8-3.7-25.3,7.5-26.4,11
				c-0.2,0.9-0.7,3.5-0.7,3.5c0,0,0.6-1.3,1.5-2.3c0.7-0.7,1.4-1.2,1.6-1.3c3-9.9,15.2-10.5,25.9-8.5c8.1,1.5,15.6,3,18.1-0.6
				c0.7-0.9,0.9-2,1-3c0-0.2,0-0.3,0-0.3c0.1-2.1,0-4,0-5.5C49.7,9.2,49.7,10.3,49.6,11.5z"/>
		</g>
		<g>
			<linearGradient id="SVGID_9_" gradientUnits="userSpaceOnUse" x1="26.6662" y1="16.5913" x2="26.6662" y2="26.0919">
				<stop  offset="0" style="stop-color:#FFEA00"/>
				<stop  offset="0.3778" style="stop-color:#FFB01A"/>
				<stop  offset="1" style="stop-color:#FF3E00"/>
			</linearGradient>
			<path class="st4" d="M28,17.6c1.7,0.2,3.4,0.5,5.1,0.8c6.7,1.2,13,2.4,15.4-1.2c0-0.1,0.1-0.1,0.1-0.2c-2.7,3.4-10.1,1.9-18,0.5
				c-11.6-2.1-23.1-1.2-26,8.5c1-0.8,3.4-2.6,7.5-2.8C14.8,15.3,22.9,16.9,28,17.6z"/>
		</g>
		<g>
			<g>
				<defs>
					<path id="SVGID_11_" d="M18.5,43.4c-1.2,0-2.4,0.3-3.6,1.1c-0.1,0.1-0.2,0.1-0.2,0.2c-3.1,2.1-3.4,7.5-1.4,11.7
						c2.4,5.1,7.9,8.7,16.3,10.5c0.2,0.1,0.5,0.1,0.7,0.1c4,0.5,8,0.2,11.8-0.7c4.5-1.1,8.8-3.2,12.4-6c0,0,0,0,0,0
						c-1.1,0.5-2.2,0.9-3.4,1.3c-0.2,0.1-0.4,0.1-0.6,0.2c-6.7,1.9-11.8-1.5-16.3-5.9c-1-1-2-2-3-3C26.8,48.1,22.9,43.4,18.5,43.4
						L18.5,43.4"/>
				</defs>
				<linearGradient id="SVGID_10_" gradientUnits="userSpaceOnUse" x1="11.9928" y1="55.3107" x2="54.5042" y2="55.3107">
					<stop  offset="0" style="stop-color:#FFEA00"/>
					<stop  offset="0.3778" style="stop-color:#FFB01A"/>
					<stop  offset="1" style="stop-color:#FF3E00"/>
				</linearGradient>
				<use xlink:href="#SVGID_11_"  style="overflow:visible;fill:url(#SVGID_10_);"/>
				<clipPath id="SVGID_12_">
					<use xlink:href="#SVGID_11_"  style="overflow:visible;"/>
				</clipPath>
			</g>
		</g>
		<g>
			<linearGradient id="SVGID_13_" gradientUnits="userSpaceOnUse" x1="20.9845" y1="54.4074" x2="54.5045" y2="54.4074">
				<stop  offset="0" style="stop-color:#FFEA00"/>
				<stop  offset="0.904" style="stop-color:#FFB01A"/>
			</linearGradient>
			<path style="fill:url(#SVGID_13_);" d="M25.6,49.1c0,0,1.6,2.2,6.1,7.8c3.6,3.9,5,5.2,8.7,7.1c0.6,0.3,4.2,2.2,9.3-0.5
				c0.7-0.4,1.4-0.7,2-1.2c1.1-0.7,2-1.3,2.7-1.8c0.1,0,0.1-0.1,0.2-0.1c0,0,0,0,0,0c-1.1,0.5-2.2,0.9-3.4,1.3
				c-0.2,0.1-0.4,0.1-0.6,0.2c-6.7,1.9-11.8-1.5-16.3-5.9c-1-1-2-2-3-3c-3.6-3.8-6.8-7.6-10.2-8.9C23.9,46.4,25.6,49.1,25.6,49.1z"
				/>
		</g>
		<g>
			<path class="st5" d="M34.9,54.5c-1.1-1.1-2.2-2.3-3.3-3.4c-4.9-5.3-9.2-10.5-14.2-10.5c-1.3,0-2.6,0.4-4,1.2
				c-0.1,0.1-0.2,0.1-0.3,0.2c-3.4,2.3-3.8,8.4-1.5,13.1c1.8,3.7,4.9,6.7,9.5,8.9c-3.7-1.9-6.3-4.5-7.8-7.6c-2-4.2-1.7-9.6,1.4-11.7
				c0.1-0.1,0.2-0.1,0.2-0.2c1.3-0.7,2.4-1.1,3.6-1.1c4.4,0,8.3,4.7,12.7,9.4c1,1,1.9,2.1,3,3c4.5,4.4,9.6,7.8,16.3,5.9
				c0.2-0.1,0.4-0.1,0.6-0.2c0,0,0.1,0,0.1,0C44.6,62.5,39.5,59,34.9,54.5z"/>
		</g>
	</g>
</g>
</svg>
