<svg enable-background="new 0 0 479.7 81.8" viewBox="0 0 479.7 81.8" xmlns="http://www.w3.org/2000/svg" xmlns:xlink="http://www.w3.org/1999/xlink"><clipPath id="a"><path d="m0 0h479.7v81.8h-479.7z"/></clipPath><clipPath id="b"><path d="m0 0h479.7v81.8h-479.7z"/></clipPath><clipPath id="c"><path d="m0 0h479.7v81.8h-479.7z"/></clipPath><g fill="#12110c"><path d="m16.2.7-16.2 49.8h7.4l16-49.8z"/><path clip-path="url(#a)" d="m33.8 38.1c1.7 0 3.1-.1 4-.4.9-.2 1.4-.8 1.4-1.5 0-.5-.1-.9-.4-1.3-.3-.3-.7-.6-1.2-.9-.5-.2-1.1-.5-1.8-.7s-1.4-.5-2.1-.7c-1-.3-2.1-.7-3.2-1.1s-2.1-.9-2.9-1.5c-.9-.6-1.6-1.4-2.2-2.3s-.9-2.1-.9-3.5c0-1.2.2-2.2.7-3.3.4-1 1.1-1.9 2.1-2.7.9-.8 2.1-1.4 3.6-1.8s3.2-.7 5.3-.7c1.8 0 3.4.1 4.9.4s2.8.7 4 1.2l-1.1 6c-.7-.2-1.7-.5-3.1-1-1.4-.4-2.9-.7-4.7-.7s-3 .2-3.7.7c-.6.4-1 .9-1 1.4 0 .4.1.8.4 1.1s.7.6 1.2.9 1 .5 1.7.8c.6.3 1.3.5 2 .7 1 .3 2.1.7 3.2 1.2 1.1.4 2.1 1 3 1.6s1.6 1.4 2.2 2.4.9 2.2.9 3.6c0 1.1-.2 2.2-.6 3.2s-1.1 1.9-2.1 2.6-2.3 1.3-3.8 1.7c-1.6.4-3.5.6-5.8.6s-4.3-.3-6-.8-3-1-4-1.4l1.1-5.9c1.3.5 2.8 1 4.3 1.5 1.4.3 3 .6 4.6.6"/><path clip-path="url(#a)" d="m68 27.3c0-.7-.1-1.4-.3-2.1s-.5-1.3-.9-1.8-1-1-1.6-1.3c-.7-.3-1.5-.5-2.4-.5s-1.7.2-2.4.5-1.2.7-1.7 1.3c-.4.5-.8 1.2-1 1.8-.3.7-.4 1.4-.5 2.1zm-18.2 2.8c0-2.4.4-4.5 1.1-6.3s1.7-3.3 2.9-4.5 2.6-2.1 4.1-2.7 3.1-.9 4.7-.9c4 0 7 1.2 9.1 3.5 2.1 2.4 3.1 5.8 3.1 10.4v1.4c0 .5 0 .9-.1 1.2h-17.6c0 1.8.7 3.2 2.2 4.2s3.3 1.5 5.7 1.5c1.4 0 2.8-.2 4.1-.5s2.4-.6 3.3-.9l1 6.1c-1.2.4-2.5.8-3.9 1.1s-2.9.4-4.7.4c-2.3 0-4.4-.3-6.2-.9s-3.4-1.5-4.7-2.7-2.3-2.6-3-4.4c-.8-1.7-1.1-3.7-1.1-6"/><path clip-path="url(#a)" d="m100.5 23.5c-.5-.1-1-.2-1.6-.3s-1.3-.2-1.9-.3c-.7-.1-1.3-.2-1.9-.2s-1.1-.1-1.6-.1c-1 0-2 0-2.9.1-1 .1-1.9.3-2.9.5v20.1h-7.2v-25.2c1.9-.7 3.8-1.2 5.8-1.7 2-.4 4.3-.6 7-.6.4 0 .9 0 1.6.1.7 0 1.5.1 2.3.2s1.6.2 2.5.3c.8.1 1.6.3 2.2.5z"/><path clip-path="url(#a)" d="m115.1 43.4c-1.7-3.4-3.5-7.4-5.3-12s-3.5-9.6-5.1-15.1h7.4c.3 1.5.8 3 1.2 4.7.5 1.7 1 3.3 1.5 5s1.1 3.3 1.6 4.9c.6 1.6 1.1 3 1.6 4.3.5-1.3 1.1-2.8 1.7-4.3.6-1.6 1.2-3.2 1.8-4.9s1.2-3.3 1.7-5c.6-1.7 1-3.2 1.4-4.7h7.2c-1.6 5.5-3.4 10.5-5.4 15.1s-3.8 8.6-5.5 12z"/><path clip-path="url(#a)" d="m151.2 27.3c0-.7-.1-1.4-.3-2.1s-.5-1.3-.9-1.8-1-1-1.6-1.3c-.7-.3-1.5-.5-2.4-.5s-1.7.2-2.4.5-1.2.7-1.7 1.3c-.4.5-.8 1.2-1 1.8-.3.7-.4 1.4-.5 2.1zm-18.2 2.8c0-2.4.4-4.5 1.1-6.3s1.7-3.3 2.9-4.5 2.6-2.1 4.1-2.7 3.1-.9 4.7-.9c4 0 7 1.2 9.1 3.5 2.1 2.4 3.1 5.8 3.1 10.4v1.4c0 .5 0 .9-.1 1.2h-17.6c0 1.8.7 3.2 2.2 4.2s3.3 1.5 5.7 1.5c1.4 0 2.8-.2 4.1-.5s2.4-.6 3.3-.9l1 6.1c-1.2.4-2.5.8-3.9 1.1s-2.9.4-4.7.4c-2.3 0-4.4-.3-6.2-.9s-3.4-1.5-4.7-2.7-2.3-2.6-3-4.4c-.8-1.7-1.1-3.7-1.1-6"/><path clip-path="url(#a)" d="m183.7 23.5c-.5-.1-1-.2-1.6-.3s-1.3-.2-1.9-.3c-.7-.1-1.3-.2-1.9-.2s-1.1-.1-1.6-.1c-1 0-2 0-2.9.1-1 .1-1.9.3-2.9.5v20.1h-7.2v-25.2c1.9-.7 3.8-1.2 5.8-1.7 2-.4 4.3-.6 7-.6.4 0 .9 0 1.6.1.7 0 1.5.1 2.3.2s1.6.2 2.5.3c.8.1 1.6.3 2.2.5z"/><path clip-path="url(#a)" d="m209.4 42.3c-.1.1-.4.2-.8.4s-.9.4-1.6.6-1.5.4-2.4.5c-.9.2-2 .2-3.2.2-3.3 0-5.7-1-7.2-2.9s-2.3-4.8-2.3-8.5v-23h-7.5v-5.9h14.6v29.4c0 1.8.4 3.1 1.1 3.8s1.7 1 2.8 1c1.4 0 2.6-.2 3.6-.6s1.6-.6 1.9-.8z"/><path clip-path="url(#a)" d="m229.9 27.3c0-.7-.1-1.4-.3-2.1s-.5-1.3-.9-1.8-1-1-1.6-1.3c-.7-.3-1.5-.5-2.4-.5s-1.7.2-2.4.5-1.2.7-1.7 1.3c-.4.5-.8 1.2-1 1.8-.3.7-.4 1.4-.5 2.1zm-18.2 2.8c0-2.4.4-4.5 1.1-6.3s1.7-3.3 2.9-4.5 2.6-2.1 4.1-2.7 3.1-.9 4.7-.9c4 0 7 1.2 9.1 3.5 2.1 2.4 3.1 5.8 3.1 10.4v1.4c0 .5 0 .9-.1 1.2h-17.6c0 1.8.7 3.2 2.2 4.2s3.3 1.5 5.7 1.5c1.4 0 2.8-.2 4.1-.5s2.4-.6 3.3-.9l1 6.1c-1.2.4-2.5.8-3.9 1.1s-2.9.4-4.7.4c-2.3 0-4.4-.3-6.2-.9s-3.4-1.5-4.7-2.7-2.3-2.6-3-4.4c-.8-1.7-1.1-3.7-1.1-6"/><path clip-path="url(#a)" d="m250.5 38.1c1.7 0 3.1-.1 4-.4.9-.2 1.4-.8 1.4-1.5 0-.5-.1-.9-.4-1.3-.3-.3-.7-.6-1.2-.9-.5-.2-1.1-.5-1.8-.7s-1.4-.5-2.1-.7c-1-.3-2.1-.7-3.2-1.1s-2.1-.9-2.9-1.5c-.9-.6-1.6-1.4-2.2-2.3s-.9-2.1-.9-3.5c0-1.2.2-2.2.7-3.3.4-1 1.1-1.9 2.1-2.7.9-.8 2.1-1.4 3.6-1.8s3.2-.7 5.3-.7c1.8 0 3.4.1 4.9.4s2.8.7 4 1.2l-1.1 6c-.7-.2-1.7-.5-3.1-1s-2.9-.7-4.7-.7-3 .2-3.7.7c-.6.4-1 .9-1 1.4 0 .4.1.8.4 1.1s.7.6 1.2.9 1 .5 1.7.8c.6.3 1.3.5 2 .7 1 .3 2.1.7 3.2 1.2 1.1.4 2.1 1 3 1.6s1.6 1.4 2.2 2.4.9 2.2.9 3.6c0 1.1-.2 2.2-.6 3.2s-1.1 1.9-2.1 2.6-2.3 1.3-3.8 1.7c-1.6.4-3.5.6-5.8.6s-4.3-.3-6-.8-3-1-4-1.4l1.1-5.9c1.3.5 2.8 1 4.3 1.5 1.5.3 3 .6 4.6.6"/><path clip-path="url(#a)" d="m277 38.1c1.7 0 3.1-.1 4-.4.9-.2 1.4-.8 1.4-1.5 0-.5-.1-.9-.4-1.3-.3-.3-.7-.6-1.2-.9-.5-.2-1.1-.5-1.8-.7s-1.4-.5-2.1-.7c-1-.3-2.1-.7-3.2-1.1s-2.1-.9-2.9-1.5c-.9-.6-1.6-1.4-2.2-2.3s-.9-2.1-.9-3.5c0-1.2.2-2.2.7-3.3.4-1 1.1-1.9 2.1-2.7.9-.8 2.1-1.4 3.6-1.8s3.2-.7 5.3-.7c1.8 0 3.4.1 4.9.4s2.8.7 4 1.2l-1.1 6c-.7-.2-1.7-.5-3.1-1-1.4-.4-2.9-.7-4.7-.7s-3 .2-3.7.7-1 .9-1 1.4c0 .4.1.8.4 1.1s.7.6 1.2.9 1 .5 1.7.8c.6.3 1.3.5 2 .7 1 .3 2.1.7 3.2 1.2 1.1.4 2.1 1 3 1.6s1.6 1.4 2.2 2.4.9 2.2.9 3.6c0 1.1-.2 2.2-.6 3.2s-1.1 1.9-2.1 2.6-2.3 1.3-3.8 1.7c-1.6.4-3.5.6-5.8.6s-4.3-.3-6-.8-3-1-4-1.4l1.1-5.9c1.3.5 2.8 1 4.3 1.5 1.5.3 3 .6 4.6.6"/><path d="m307.8.7-16.2 49.8h7.4l16-49.8z"/><path clip-path="url(#b)" d="m351.7 16h-5.8v19.8h5.8c6.3 0 9.9-4.5 9.9-9.9 0-5.6-3.4-9.9-9.9-9.9"/><path d="m379.7 30.4h10.5l-5.3-14.5z"/><path clip-path="url(#c)" d="m441.1 42.3c-6.1 0-10.5-2-13.5-5l3.7-5.1c2.2 2.3 5.7 4.3 10.1 4.3 3.7 0 5.5-1.8 5.5-3.6 0-2.4-2.8-3.2-6.4-4-5.2-1.2-11.8-2.6-11.8-9.7 0-5.3 4.6-9.6 12-9.6 5 0 9.2 1.5 12.4 4.4l-3.8 4.9c-2.6-2.4-6-3.5-9.1-3.5-3 0-4.7 1.3-4.7 3.2 0 2.1 2.7 2.8 6.3 3.7 5.2 1.2 11.9 2.8 11.9 9.8.1 5.8-4.1 10.2-12.6 10.2m-25-.6h-6.8v-13l-12.2-18.7h7.7l7.9 12.7 7.8-12.7h7.7l-12.1 18.7zm-22.1 0-2-5.5h-14.2l-2 5.5h-7.4l12.3-31.7h8.5l12.2 31.7zm-42.3 0h-12.5v-31.7h12.5c9.9 0 16.8 6.3 16.8 15.9s-6.9 15.8-16.8 15.8m-25.4-41.7-14.7 50.9h153.4l14.7-50.9z"/><path clip-path="url(#c)" d="m39 52.6h-11.9c-.9 0-1.7-.8-1.7-1.7s.8-1.7 1.7-1.7h11.9c.9 0 1.7.8 1.7 1.7 0 1-.8 1.7-1.7 1.7m22.1 0h-11.9c-.9 0-1.7-.8-1.7-1.7s.8-1.7 1.7-1.7h11.9c.9 0 1.7.8 1.7 1.7 0 1-.8 1.7-1.7 1.7m22 0h-11.8c-.9 0-1.7-.8-1.7-1.7s.8-1.7 1.7-1.7h11.9c.9 0 1.7.8 1.7 1.7-.1 1-.8 1.7-1.8 1.7m22.1 0h-11.9c-.9 0-1.7-.8-1.7-1.7s.8-1.7 1.7-1.7h11.9c.9 0 1.7.8 1.7 1.7 0 1-.8 1.7-1.7 1.7m22.1 0h-11.9c-.9 0-1.7-.8-1.7-1.7s.8-1.7 1.7-1.7h11.9c.9 0 1.7.8 1.7 1.7 0 1-.8 1.7-1.7 1.7m22 0h-11.9c-.9 0-1.7-.8-1.7-1.7s.8-1.7 1.7-1.7h11.9c.9 0 1.7.8 1.7 1.7 0 1-.7 1.7-1.7 1.7m22.1 0h-11.9c-.9 0-1.7-.8-1.7-1.7s.8-1.7 1.7-1.7h11.9c.9 0 1.7.8 1.7 1.7 0 1-.8 1.7-1.7 1.7m22.1 0h-11.9c-.9 0-1.7-.8-1.7-1.7s.8-1.7 1.7-1.7h11.9c.9 0 1.7.8 1.7 1.7 0 1-.8 1.7-1.7 1.7m22 0h-11.9c-.9 0-1.7-.8-1.7-1.7s.8-1.7 1.7-1.7h11.9c.9 0 1.7.8 1.7 1.7 0 1-.7 1.7-1.7 1.7m22.1 0h-11.9c-.9 0-1.7-.8-1.7-1.7s.8-1.7 1.7-1.7h11.9c.9 0 1.7.8 1.7 1.7 0 1-.8 1.7-1.7 1.7m22.1 0h-11.9c-.9 0-1.7-.8-1.7-1.7s.8-1.7 1.7-1.7h11.9c.9 0 1.7.8 1.7 1.7 0 1-.8 1.7-1.7 1.7m22 0h-11.9c-.9 0-1.7-.8-1.7-1.7s.8-1.7 1.7-1.7h11.9c.9 0 1.7.8 1.7 1.7 0 1-.7 1.7-1.7 1.7"/></g><path clip-path="url(#c)" d="m319.6 63.2c.3.6.7 1.3 1.1 2.1s.8 1.8 1.3 2.8c.4 1 .9 2 1.3 3s.9 2 1.2 2.9c.4-.9.8-1.9 1.2-2.9s.9-2 1.3-3 .9-1.9 1.3-2.8c.4-.8.8-1.6 1.1-2.1h3.7c.2 1.2.3 2.6.5 4.1.1 1.5.3 3.1.4 4.7s.2 3.2.3 4.9c.1 1.6.2 3.2.2 4.6h-4c-.1-1.8-.1-3.7-.2-5.8s-.2-4.2-.4-6.3c-.3.7-.7 1.5-1.1 2.4s-.8 1.8-1.1 2.7c-.4.9-.7 1.7-1.1 2.6-.4.8-.6 1.5-.9 2.1h-2.7c-.2-.6-.5-1.3-.9-2.1s-.7-1.7-1.1-2.6-.8-1.8-1.1-2.7c-.4-.9-.7-1.7-1.1-2.4-.2 2.1-.3 4.2-.4 6.3s-.2 4-.2 5.8h-4c.1-1.4.2-3 .2-4.6.1-1.6.2-3.2.3-4.9.1-1.6.2-3.2.4-4.7.1-1.5.3-2.8.5-4.1z" fill="#cd1719"/><path clip-path="url(#c)" d="m341.9 81.4h-3.9v-13.8h3.9zm.4-17.8c0 .7-.2 1.3-.7 1.7s-1 .6-1.6.6-1.2-.2-1.6-.6c-.5-.4-.7-1-.7-1.7s.2-1.3.7-1.7 1-.6 1.6-.6 1.2.2 1.6.6.7 1 .7 1.7" fill="#cd1719"/><path clip-path="url(#c)" d="m351.1 81.6c-1.1 0-2.1-.1-2.8-.4-.7-.2-1.3-.5-1.7-1-.4-.4-.7-.9-.8-1.5s-.2-1.2-.2-2v-15l3.9-.6v15c0 .3 0 .7.1.9.1.3.2.5.3.7s.4.3.6.5c.3.1.7.2 1.1.2z" fill="#cd1719"/><path clip-path="url(#c)" d="m359.5 78.7h1.1c.4 0 .6 0 .8-.1v-3c-.2 0-.4-.1-.7-.1s-.6-.1-.9-.1c-.4 0-.7 0-1 .1-.3 0-.6.1-.9.2-.2.1-.4.3-.6.5-.1.2-.2.5-.2.8 0 .6.2 1 .6 1.3s1.1.4 1.8.4m-.3-11.5c1.2 0 2.1.1 2.9.4s1.4.6 1.8 1.1c.5.5.8 1.1 1 1.8s.3 1.5.3 2.3v8.2c-.6.1-1.3.3-2.3.4-1 .2-2.2.2-3.6.2-.9 0-1.7-.1-2.4-.2-.7-.2-1.4-.4-1.9-.8s-.9-.8-1.2-1.4-.4-1.3-.4-2.1.2-1.5.5-2c.3-.6.8-1 1.3-1.3s1.2-.6 1.9-.7 1.4-.2 2.2-.2c.5 0 1 0 1.4.1.4 0 .7.1 1 .2v-.4c0-.7-.2-1.2-.6-1.6s-1.1-.6-2.1-.6c-.7 0-1.3 0-2 .1-.6.1-1.2.2-1.7.4l-.5-3.1c.2-.1.5-.1.9-.2.3-.1.7-.1 1.1-.2s.8-.1 1.3-.2c.2-.2.7-.2 1.1-.2" fill="#cd1719"/><path clip-path="url(#c)" d="m368.8 68.1c.7-.2 1.5-.4 2.6-.5 1-.2 2.2-.2 3.3-.2 1.2 0 2.1.2 2.9.5s1.4.7 1.8 1.3c.5.6.8 1.2 1 2s.3 1.6.3 2.6v7.8h-3.9v-7.3c0-1.3-.2-2.2-.5-2.7s-1-.8-1.9-.8c-.3 0-.6 0-.9 0s-.6.1-.8.1v10.6h-3.9z" fill="#cd1719"/><path clip-path="url(#c)" d="m393.1 74.5c0-1.2-.2-2.2-.7-2.8-.5-.7-1.2-1-2.1-1s-1.6.3-2.1 1-.7 1.6-.7 2.8.2 2.2.7 2.9 1.2 1.1 2.1 1.1 1.6-.4 2.1-1.1c.5-.8.7-1.7.7-2.9m4 0c0 1.1-.2 2.1-.5 3s-.8 1.7-1.4 2.3-1.3 1.1-2.1 1.5c-.8.3-1.8.5-2.8.5s-1.9-.2-2.8-.5c-.8-.3-1.5-.8-2.1-1.5-.6-.6-1.1-1.4-1.4-2.3s-.5-1.9-.5-3 .2-2.1.5-3 .8-1.7 1.4-2.3 1.3-1.1 2.2-1.5c.8-.3 1.7-.5 2.7-.5s1.9.2 2.7.5 1.5.8 2.1 1.5c.6.6 1.1 1.4 1.4 2.3s.6 1.9.6 3" fill="#cd1719"/><path clip-path="url(#c)" d="m417.6 68c0 .7-.1 1.3-.4 1.9s-.6 1.2-1 1.8-.9 1.1-1.4 1.6-1 1-1.5 1.5c-.3.2-.5.5-.9.8-.3.3-.6.6-.9.9s-.5.6-.7.9-.4.5-.4.7h7.8v3.3h-12.2c0-.2-.1-.4-.1-.7v-.7c0-.8.1-1.6.4-2.3s.6-1.3 1.1-2c.4-.6.9-1.2 1.5-1.7.5-.5 1.1-1 1.6-1.6.4-.4.8-.8 1.2-1.1.4-.4.7-.7 1-1s.5-.7.7-1 .2-.7.2-1c0-.8-.2-1.3-.7-1.6-.4-.3-1-.5-1.6-.5-.5 0-.9.1-1.3.2s-.8.3-1.1.5-.6.4-.9.6c-.2.2-.4.4-.6.5l-1.9-2.7c.8-.7 1.7-1.3 2.7-1.8s2.1-.7 3.3-.7c1.1 0 2 .1 2.8.4.8.2 1.4.6 1.9 1s.9 1 1.1 1.6c.2.7.3 1.4.3 2.2" fill="#cd1719"/><path clip-path="url(#c)" d="m429.5 72.3c0-.9 0-1.7-.1-2.5-.1-.7-.2-1.4-.4-1.9s-.5-1-.8-1.3-.7-.4-1.2-.4-.9.1-1.2.4-.6.7-.8 1.3c-.2.5-.3 1.2-.4 1.9s-.1 1.6-.1 2.5 0 1.7.1 2.5.2 1.4.4 1.9.5 1 .8 1.3.7.4 1.2.4.9-.1 1.2-.4.6-.7.8-1.3c.2-.5.3-1.2.4-1.9 0-.8.1-1.6.1-2.5m4 0c0 3.1-.6 5.4-1.7 7-1.2 1.6-2.8 2.5-4.8 2.5s-3.6-.8-4.8-2.5c-1.2-1.6-1.7-4-1.7-7 0-1.5.2-2.9.5-4 .3-1.2.7-2.2 1.3-3s1.3-1.4 2.1-1.8 1.7-.6 2.7-.6c2 0 3.6.8 4.8 2.5 1 1.5 1.6 3.8 1.6 6.9" fill="#cd1719"/><path clip-path="url(#c)" d="m436.2 67c.5-.2 1-.4 1.6-.7.5-.3 1.1-.6 1.6-.9s1-.7 1.5-1c.5-.4.9-.7 1.3-1.1h2.7v18.2h-3.9v-13.2c-.5.3-1.1.7-1.8 1-.6.3-1.3.5-1.9.7z" fill="#cd1719"/><path clip-path="url(#c)" d="m458.9 67.9c0-.2 0-.4-.1-.6s-.2-.4-.4-.6-.4-.4-.7-.5-.6-.2-1-.2-.7.1-1 .2-.5.3-.7.5-.3.4-.4.6-.1.4-.1.7c0 .6.2 1.1.6 1.6s1.1.9 2.1 1.3c.6-.3 1-.8 1.3-1.2.3-.6.4-1.2.4-1.8m-4.8 8.6c0 .2 0 .4.1.7s.2.5.5.7c.2.2.5.4.8.5s.7.2 1.2.2c.9 0 1.6-.2 2-.7.4-.4.6-.9.6-1.5 0-.4-.1-.8-.3-1.1s-.4-.6-.7-.8-.7-.4-1.1-.6-.9-.4-1.4-.5c-.5.4-.9.8-1.2 1.3-.4.5-.5 1.1-.5 1.8m9.1-.2c0 .8-.1 1.5-.4 2.2s-.7 1.2-1.2 1.7-1.2.9-2 1.1c-.8.3-1.8.4-2.8.4-1.2 0-2.2-.2-3.1-.5-.8-.3-1.5-.8-2-1.3s-.9-1.1-1.1-1.7-.3-1.2-.3-1.7.1-1 .2-1.4.3-.8.6-1.2c.2-.4.5-.7.8-1s.6-.6 1-.8c-.8-.6-1.3-1.2-1.7-1.8s-.5-1.4-.5-2.3c0-.7.1-1.4.4-2s.7-1.2 1.2-1.7 1.2-.9 1.9-1.2 1.6-.4 2.5-.4c1.1 0 2 .2 2.7.5.8.3 1.4.7 1.9 1.2s.8 1 1.1 1.6c.2.6.3 1.2.3 1.7 0 .8-.2 1.6-.7 2.3-.4.7-1 1.3-1.7 1.7 1 .6 1.7 1.3 2.1 2 .5.8.8 1.7.8 2.6" fill="#cd1719"/></svg>