<?xml version="1.0" encoding="utf-8"?>
<!-- Generator: Adobe Illustrator 22.1.0, SVG Export Plug-In . SVG Version: 6.00 Build 0)  -->
<svg version="1.1" id="Livello_1" xmlns="http://www.w3.org/2000/svg" xmlns:xlink="http://www.w3.org/1999/xlink" x="0px" y="0px"
	 viewBox="0 0 479.7 81.8" style="enable-background:new 0 0 479.7 81.8;" xml:space="preserve">
<style type="text/css">
	.st0{fill:#12110C;}
	.st1{clip-path:url(#SVGID_2_);fill:#12110C;}
	.st2{clip-path:url(#SVGID_4_);fill:#12110C;}
	.st3{clip-path:url(#SVGID_6_);fill:#12110C;}
	.st4{clip-path:url(#SVGID_6_);fill:#CD1719;}
</style>
<polygon class="st0" points="16.2,0.7 0,50.5 7.4,50.5 23.4,0.7 "/>
<g>
	<defs>
		<rect id="SVGID_1_" width="479.7" height="81.8"/>
	</defs>
	<clipPath id="SVGID_2_">
		<use xlink:href="#SVGID_1_"  style="overflow:visible;"/>
	</clipPath>
	<path class="st1" d="M33.8,38.1c1.7,0,3.1-0.1,4-0.4c0.9-0.2,1.4-0.8,1.4-1.5c0-0.5-0.1-0.9-0.4-1.3c-0.3-0.3-0.7-0.6-1.2-0.9
		c-0.5-0.2-1.1-0.5-1.8-0.7c-0.7-0.2-1.4-0.5-2.1-0.7c-1-0.3-2.1-0.7-3.2-1.1c-1.1-0.4-2.1-0.9-2.9-1.5c-0.9-0.6-1.6-1.4-2.2-2.3
		c-0.6-0.9-0.9-2.1-0.9-3.5c0-1.2,0.2-2.2,0.7-3.3c0.4-1,1.1-1.9,2.1-2.7c0.9-0.8,2.1-1.4,3.6-1.8c1.5-0.4,3.2-0.7,5.3-0.7
		c1.8,0,3.4,0.1,4.9,0.4c1.5,0.3,2.8,0.7,4,1.2l-1.1,6c-0.7-0.2-1.7-0.5-3.1-1c-1.4-0.4-2.9-0.7-4.7-0.7c-1.8,0-3,0.2-3.7,0.7
		c-0.6,0.4-1,0.9-1,1.4c0,0.4,0.1,0.8,0.4,1.1c0.3,0.3,0.7,0.6,1.2,0.9c0.5,0.3,1,0.5,1.7,0.8c0.6,0.3,1.3,0.5,2,0.7
		c1,0.3,2.1,0.7,3.2,1.2c1.1,0.4,2.1,1,3,1.6c0.9,0.6,1.6,1.4,2.2,2.4c0.6,1,0.9,2.2,0.9,3.6c0,1.1-0.2,2.2-0.6,3.2
		c-0.4,1-1.1,1.9-2.1,2.6c-1,0.7-2.3,1.3-3.8,1.7c-1.6,0.4-3.5,0.6-5.8,0.6c-2.3,0-4.3-0.3-6-0.8c-1.7-0.5-3-1-4-1.4l1.1-5.9
		c1.3,0.5,2.8,1,4.3,1.5C30.6,37.8,32.2,38.1,33.8,38.1"/>
	<path class="st1" d="M68,27.3c0-0.7-0.1-1.4-0.3-2.1c-0.2-0.7-0.5-1.3-0.9-1.8c-0.4-0.5-1-1-1.6-1.3c-0.7-0.3-1.5-0.5-2.4-0.5
		c-0.9,0-1.7,0.2-2.4,0.5c-0.7,0.3-1.2,0.7-1.7,1.3c-0.4,0.5-0.8,1.2-1,1.8c-0.3,0.7-0.4,1.4-0.5,2.1H68z M49.8,30.1
		c0-2.4,0.4-4.5,1.1-6.3c0.7-1.8,1.7-3.3,2.9-4.5c1.2-1.2,2.6-2.1,4.1-2.7c1.5-0.6,3.1-0.9,4.7-0.9c4,0,7,1.2,9.1,3.5
		c2.1,2.4,3.1,5.8,3.1,10.4c0,0.5,0,0.9,0,1.4c0,0.5,0,0.9-0.1,1.2H57.1c0,1.8,0.7,3.2,2.2,4.2c1.5,1,3.3,1.5,5.7,1.5
		c1.4,0,2.8-0.2,4.1-0.5c1.3-0.3,2.4-0.6,3.3-0.9l1,6.1c-1.2,0.4-2.5,0.8-3.9,1.1c-1.4,0.3-2.9,0.4-4.7,0.4c-2.3,0-4.4-0.3-6.2-0.9
		c-1.8-0.6-3.4-1.5-4.7-2.7c-1.3-1.2-2.3-2.6-3-4.4C50.1,34.4,49.8,32.4,49.8,30.1"/>
	<path class="st1" d="M100.5,23.5c-0.5-0.1-1-0.2-1.6-0.3c-0.6-0.1-1.3-0.2-1.9-0.3c-0.7-0.1-1.3-0.2-1.9-0.2
		c-0.6,0-1.1-0.1-1.6-0.1c-1,0-2,0-2.9,0.1c-1,0.1-1.9,0.3-2.9,0.5v20.1h-7.2V18.1c1.9-0.7,3.8-1.2,5.8-1.7c2-0.4,4.3-0.6,7-0.6
		c0.4,0,0.9,0,1.6,0.1c0.7,0,1.5,0.1,2.3,0.2c0.8,0.1,1.6,0.2,2.5,0.3c0.8,0.1,1.6,0.3,2.2,0.5L100.5,23.5z"/>
	<path class="st1" d="M115.1,43.4c-1.7-3.4-3.5-7.4-5.3-12c-1.8-4.6-3.5-9.6-5.1-15.1h7.4c0.3,1.5,0.8,3,1.2,4.7
		c0.5,1.7,1,3.3,1.5,5c0.5,1.7,1.1,3.3,1.6,4.9c0.6,1.6,1.1,3,1.6,4.3c0.5-1.3,1.1-2.8,1.7-4.3c0.6-1.6,1.2-3.2,1.8-4.9
		c0.6-1.7,1.2-3.3,1.7-5c0.6-1.7,1-3.2,1.4-4.7h7.2c-1.6,5.5-3.4,10.5-5.4,15.1c-2,4.6-3.8,8.6-5.5,12H115.1z"/>
	<path class="st1" d="M151.2,27.3c0-0.7-0.1-1.4-0.3-2.1c-0.2-0.7-0.5-1.3-0.9-1.8c-0.4-0.5-1-1-1.6-1.3c-0.7-0.3-1.5-0.5-2.4-0.5
		c-0.9,0-1.7,0.2-2.4,0.5c-0.7,0.3-1.2,0.7-1.7,1.3c-0.4,0.5-0.8,1.2-1,1.8c-0.3,0.7-0.4,1.4-0.5,2.1H151.2z M133,30.1
		c0-2.4,0.4-4.5,1.1-6.3c0.7-1.8,1.7-3.3,2.9-4.5c1.2-1.2,2.6-2.1,4.1-2.7c1.5-0.6,3.1-0.9,4.7-0.9c4,0,7,1.2,9.1,3.5
		c2.1,2.4,3.1,5.8,3.1,10.4c0,0.5,0,0.9,0,1.4c0,0.5,0,0.9-0.1,1.2h-17.6c0,1.8,0.7,3.2,2.2,4.2c1.5,1,3.3,1.5,5.7,1.5
		c1.4,0,2.8-0.2,4.1-0.5c1.3-0.3,2.4-0.6,3.3-0.9l1,6.1c-1.2,0.4-2.5,0.8-3.9,1.1c-1.4,0.3-2.9,0.4-4.7,0.4c-2.3,0-4.4-0.3-6.2-0.9
		c-1.8-0.6-3.4-1.5-4.7-2.7c-1.3-1.2-2.3-2.6-3-4.4C133.3,34.4,133,32.4,133,30.1"/>
	<path class="st1" d="M183.7,23.5c-0.5-0.1-1-0.2-1.6-0.3c-0.6-0.1-1.3-0.2-1.9-0.3c-0.7-0.1-1.3-0.2-1.9-0.2
		c-0.6,0-1.1-0.1-1.6-0.1c-1,0-2,0-2.9,0.1c-1,0.1-1.9,0.3-2.9,0.5v20.1h-7.2V18.1c1.9-0.7,3.8-1.2,5.8-1.7c2-0.4,4.3-0.6,7-0.6
		c0.4,0,0.9,0,1.6,0.1c0.7,0,1.5,0.1,2.3,0.2c0.8,0.1,1.6,0.2,2.5,0.3c0.8,0.1,1.6,0.3,2.2,0.5L183.7,23.5z"/>
	<path class="st1" d="M209.4,42.3c-0.1,0.1-0.4,0.2-0.8,0.4c-0.4,0.2-0.9,0.4-1.6,0.6c-0.7,0.2-1.5,0.4-2.4,0.5
		c-0.9,0.2-2,0.2-3.2,0.2c-3.3,0-5.7-1-7.2-2.9c-1.5-1.9-2.3-4.8-2.3-8.5v-23h-7.5V3.7h14.6v29.4c0,1.8,0.4,3.1,1.1,3.8
		c0.7,0.7,1.7,1,2.8,1c1.4,0,2.6-0.2,3.6-0.6c1-0.4,1.6-0.6,1.9-0.8L209.4,42.3z"/>
	<path class="st1" d="M229.9,27.3c0-0.7-0.1-1.4-0.3-2.1c-0.2-0.7-0.5-1.3-0.9-1.8c-0.4-0.5-1-1-1.6-1.3c-0.7-0.3-1.5-0.5-2.4-0.5
		c-0.9,0-1.7,0.2-2.4,0.5c-0.7,0.3-1.2,0.7-1.7,1.3c-0.4,0.5-0.8,1.2-1,1.8c-0.3,0.7-0.4,1.4-0.5,2.1H229.9z M211.7,30.1
		c0-2.4,0.4-4.5,1.1-6.3c0.7-1.8,1.7-3.3,2.9-4.5c1.2-1.2,2.6-2.1,4.1-2.7c1.5-0.6,3.1-0.9,4.7-0.9c4,0,7,1.2,9.1,3.5
		c2.1,2.4,3.1,5.8,3.1,10.4c0,0.5,0,0.9,0,1.4c0,0.5,0,0.9-0.1,1.2H219c0,1.8,0.7,3.2,2.2,4.2c1.5,1,3.3,1.5,5.7,1.5
		c1.4,0,2.8-0.2,4.1-0.5c1.3-0.3,2.4-0.6,3.3-0.9l1,6.1c-1.2,0.4-2.5,0.8-3.9,1.1c-1.4,0.3-2.9,0.4-4.7,0.4c-2.3,0-4.4-0.3-6.2-0.9
		c-1.8-0.6-3.4-1.5-4.7-2.7c-1.3-1.2-2.3-2.6-3-4.4C212,34.4,211.7,32.4,211.7,30.1"/>
	<path class="st1" d="M250.5,38.1c1.7,0,3.1-0.1,4-0.4c0.9-0.2,1.4-0.8,1.4-1.5c0-0.5-0.1-0.9-0.4-1.3c-0.3-0.3-0.7-0.6-1.2-0.9
		c-0.5-0.2-1.1-0.5-1.8-0.7c-0.7-0.2-1.4-0.5-2.1-0.7c-1-0.3-2.1-0.7-3.2-1.1c-1.1-0.4-2.1-0.9-2.9-1.5c-0.9-0.6-1.6-1.4-2.2-2.3
		c-0.6-0.9-0.9-2.1-0.9-3.5c0-1.2,0.2-2.2,0.7-3.3c0.4-1,1.1-1.9,2.1-2.7c0.9-0.8,2.1-1.4,3.6-1.8c1.5-0.4,3.2-0.7,5.3-0.7
		c1.8,0,3.4,0.1,4.9,0.4c1.5,0.3,2.8,0.7,4,1.2l-1.1,6c-0.7-0.2-1.7-0.5-3.1-1s-2.9-0.7-4.7-0.7c-1.8,0-3,0.2-3.7,0.7
		c-0.6,0.4-1,0.9-1,1.4c0,0.4,0.1,0.8,0.4,1.1c0.3,0.3,0.7,0.6,1.2,0.9c0.5,0.3,1,0.5,1.7,0.8c0.6,0.3,1.3,0.5,2,0.7
		c1,0.3,2.1,0.7,3.2,1.2c1.1,0.4,2.1,1,3,1.6c0.9,0.6,1.6,1.4,2.2,2.4c0.6,1,0.9,2.2,0.9,3.6c0,1.1-0.2,2.2-0.6,3.2
		c-0.4,1-1.1,1.9-2.1,2.6c-1,0.7-2.3,1.3-3.8,1.7c-1.6,0.4-3.5,0.6-5.8,0.6c-2.3,0-4.3-0.3-6-0.8c-1.7-0.5-3-1-4-1.4l1.1-5.9
		c1.3,0.5,2.8,1,4.3,1.5C247.4,37.8,248.9,38.1,250.5,38.1"/>
	<path class="st1" d="M277,38.1c1.7,0,3.1-0.1,4-0.4c0.9-0.2,1.4-0.8,1.4-1.5c0-0.5-0.1-0.9-0.4-1.3c-0.3-0.3-0.7-0.6-1.2-0.9
		c-0.5-0.2-1.1-0.5-1.8-0.7c-0.7-0.2-1.4-0.5-2.1-0.7c-1-0.3-2.1-0.7-3.2-1.1c-1.1-0.4-2.1-0.9-2.9-1.5c-0.9-0.6-1.6-1.4-2.2-2.3
		c-0.6-0.9-0.9-2.1-0.9-3.5c0-1.2,0.2-2.2,0.7-3.3c0.4-1,1.1-1.9,2.1-2.7c0.9-0.8,2.1-1.4,3.6-1.8c1.5-0.4,3.2-0.7,5.3-0.7
		c1.8,0,3.4,0.1,4.9,0.4c1.5,0.3,2.8,0.7,4,1.2l-1.1,6c-0.7-0.2-1.7-0.5-3.1-1c-1.4-0.4-2.9-0.7-4.7-0.7c-1.8,0-3,0.2-3.7,0.7
		s-1,0.9-1,1.4c0,0.4,0.1,0.8,0.4,1.1c0.3,0.3,0.7,0.6,1.2,0.9c0.5,0.3,1,0.5,1.7,0.8c0.6,0.3,1.3,0.5,2,0.7c1,0.3,2.1,0.7,3.2,1.2
		c1.1,0.4,2.1,1,3,1.6c0.9,0.6,1.6,1.4,2.2,2.4c0.6,1,0.9,2.2,0.9,3.6c0,1.1-0.2,2.2-0.6,3.2c-0.4,1-1.1,1.9-2.1,2.6
		c-1,0.7-2.3,1.3-3.8,1.7c-1.6,0.4-3.5,0.6-5.8,0.6c-2.3,0-4.3-0.3-6-0.8c-1.7-0.5-3-1-4-1.4l1.1-5.9c1.3,0.5,2.8,1,4.3,1.5
		C273.9,37.8,275.4,38.1,277,38.1"/>
</g>
<polygon class="st0" points="307.8,0.7 291.6,50.5 299,50.5 315,0.7 "/>
<g>
	<defs>
		<rect id="SVGID_3_" width="479.7" height="81.8"/>
	</defs>
	<clipPath id="SVGID_4_">
		<use xlink:href="#SVGID_3_"  style="overflow:visible;"/>
	</clipPath>
	<path class="st2" d="M351.7,16h-5.8v19.8h5.8c6.3,0,9.9-4.5,9.9-9.9C361.6,20.3,358.2,16,351.7,16"/>
</g>
<polygon class="st0" points="379.7,30.4 390.2,30.4 384.9,15.9 "/>
<g>
	<defs>
		<rect id="SVGID_5_" width="479.7" height="81.8"/>
	</defs>
	<clipPath id="SVGID_6_">
		<use xlink:href="#SVGID_5_"  style="overflow:visible;"/>
	</clipPath>
	<path class="st3" d="M441.1,42.3c-6.1,0-10.5-2-13.5-5l3.7-5.1c2.2,2.3,5.7,4.3,10.1,4.3c3.7,0,5.5-1.8,5.5-3.6
		c0-2.4-2.8-3.2-6.4-4c-5.2-1.2-11.8-2.6-11.8-9.7c0-5.3,4.6-9.6,12-9.6c5,0,9.2,1.5,12.4,4.4l-3.8,4.9c-2.6-2.4-6-3.5-9.1-3.5
		c-3,0-4.7,1.3-4.7,3.2c0,2.1,2.7,2.8,6.3,3.7c5.2,1.2,11.9,2.8,11.9,9.8C453.8,37.9,449.6,42.3,441.1,42.3 M416.1,41.7h-6.8v-13
		L397.1,10h7.7l7.9,12.7l7.8-12.7h7.7l-12.1,18.7V41.7z M394,41.7l-2-5.5h-14.2l-2,5.5h-7.4L380.7,10h8.5l12.2,31.7H394z
		 M351.7,41.7h-12.5V10h12.5c9.9,0,16.8,6.3,16.8,15.9S361.6,41.7,351.7,41.7 M326.3,0l-14.7,50.9H465L479.7,0H326.3z"/>
	<path class="st3" d="M39,52.6H27.1c-0.9,0-1.7-0.8-1.7-1.7c0-0.9,0.8-1.7,1.7-1.7H39c0.9,0,1.7,0.8,1.7,1.7
		C40.7,51.9,39.9,52.6,39,52.6 M61.1,52.6H49.2c-0.9,0-1.7-0.8-1.7-1.7c0-0.9,0.8-1.7,1.7-1.7h11.9c0.9,0,1.7,0.8,1.7,1.7
		C62.8,51.9,62,52.6,61.1,52.6 M83.1,52.6H71.3c-0.9,0-1.7-0.8-1.7-1.7c0-0.9,0.8-1.7,1.7-1.7h11.9c0.9,0,1.7,0.8,1.7,1.7
		C84.8,51.9,84.1,52.6,83.1,52.6 M105.2,52.6H93.3c-0.9,0-1.7-0.8-1.7-1.7c0-0.9,0.8-1.7,1.7-1.7h11.9c0.9,0,1.7,0.8,1.7,1.7
		C106.9,51.9,106.1,52.6,105.2,52.6 M127.3,52.6h-11.9c-0.9,0-1.7-0.8-1.7-1.7c0-0.9,0.8-1.7,1.7-1.7h11.9c0.9,0,1.7,0.8,1.7,1.7
		C129,51.9,128.2,52.6,127.3,52.6 M149.3,52.6h-11.9c-0.9,0-1.7-0.8-1.7-1.7c0-0.9,0.8-1.7,1.7-1.7h11.9c0.9,0,1.7,0.8,1.7,1.7
		C151,51.9,150.3,52.6,149.3,52.6 M171.4,52.6h-11.9c-0.9,0-1.7-0.8-1.7-1.7c0-0.9,0.8-1.7,1.7-1.7h11.9c0.9,0,1.7,0.8,1.7,1.7
		C173.1,51.9,172.3,52.6,171.4,52.6 M193.5,52.6h-11.9c-0.9,0-1.7-0.8-1.7-1.7c0-0.9,0.8-1.7,1.7-1.7h11.9c0.9,0,1.7,0.8,1.7,1.7
		C195.2,51.9,194.4,52.6,193.5,52.6 M215.5,52.6h-11.9c-0.9,0-1.7-0.8-1.7-1.7c0-0.9,0.8-1.7,1.7-1.7h11.9c0.9,0,1.7,0.8,1.7,1.7
		C217.2,51.9,216.5,52.6,215.5,52.6 M237.6,52.6h-11.9c-0.9,0-1.7-0.8-1.7-1.7c0-0.9,0.8-1.7,1.7-1.7h11.9c0.9,0,1.7,0.8,1.7,1.7
		C239.3,51.9,238.5,52.6,237.6,52.6 M259.7,52.6h-11.9c-0.9,0-1.7-0.8-1.7-1.7c0-0.9,0.8-1.7,1.7-1.7h11.9c0.9,0,1.7,0.8,1.7,1.7
		C261.4,51.9,260.6,52.6,259.7,52.6 M281.7,52.6h-11.9c-0.9,0-1.7-0.8-1.7-1.7c0-0.9,0.8-1.7,1.7-1.7h11.9c0.9,0,1.7,0.8,1.7,1.7
		C283.4,51.9,282.7,52.6,281.7,52.6"/>
	<path class="st4" d="M319.6,63.2c0.3,0.6,0.7,1.3,1.1,2.1c0.4,0.8,0.8,1.8,1.3,2.8c0.4,1,0.9,2,1.3,3c0.4,1,0.9,2,1.2,2.9
		c0.4-0.9,0.8-1.9,1.2-2.9c0.4-1,0.9-2,1.3-3c0.4-1,0.9-1.9,1.3-2.8c0.4-0.8,0.8-1.6,1.1-2.1h3.7c0.2,1.2,0.3,2.6,0.5,4.1
		c0.1,1.5,0.3,3.1,0.4,4.7c0.1,1.6,0.2,3.2,0.3,4.9c0.1,1.6,0.2,3.2,0.2,4.6h-4c-0.1-1.8-0.1-3.7-0.2-5.8c-0.1-2.1-0.2-4.2-0.4-6.3
		c-0.3,0.7-0.7,1.5-1.1,2.4c-0.4,0.9-0.8,1.8-1.1,2.7c-0.4,0.9-0.7,1.7-1.1,2.6c-0.4,0.8-0.6,1.5-0.9,2.1H323
		c-0.2-0.6-0.5-1.3-0.9-2.1c-0.4-0.8-0.7-1.7-1.1-2.6c-0.4-0.9-0.8-1.8-1.1-2.7c-0.4-0.9-0.7-1.7-1.1-2.4c-0.2,2.1-0.3,4.2-0.4,6.3
		s-0.2,4-0.2,5.8h-4c0.1-1.4,0.2-3,0.2-4.6c0.1-1.6,0.2-3.2,0.3-4.9c0.1-1.6,0.2-3.2,0.4-4.7c0.1-1.5,0.3-2.8,0.5-4.1H319.6z"/>
	<path class="st4" d="M341.9,81.4H338V67.6h3.9V81.4z M342.3,63.6c0,0.7-0.2,1.3-0.7,1.7c-0.5,0.4-1,0.6-1.6,0.6
		c-0.6,0-1.2-0.2-1.6-0.6c-0.5-0.4-0.7-1-0.7-1.7s0.2-1.3,0.7-1.7c0.5-0.4,1-0.6,1.6-0.6c0.6,0,1.2,0.2,1.6,0.6
		C342,62.3,342.3,62.9,342.3,63.6"/>
	<path class="st4" d="M351.1,81.6c-1.1,0-2.1-0.1-2.8-0.4c-0.7-0.2-1.3-0.5-1.7-1c-0.4-0.4-0.7-0.9-0.8-1.5c-0.1-0.6-0.2-1.2-0.2-2
		V61.7l3.9-0.6v15c0,0.3,0,0.7,0.1,0.9c0.1,0.3,0.2,0.5,0.3,0.7c0.1,0.2,0.4,0.3,0.6,0.5c0.3,0.1,0.7,0.2,1.1,0.2L351.1,81.6z"/>
	<path class="st4" d="M359.5,78.7c0.4,0,0.8,0,1.1,0c0.4,0,0.6,0,0.8-0.1v-3c-0.2,0-0.4-0.1-0.7-0.1c-0.3,0-0.6-0.1-0.9-0.1
		c-0.4,0-0.7,0-1,0.1c-0.3,0-0.6,0.1-0.9,0.2c-0.2,0.1-0.4,0.3-0.6,0.5c-0.1,0.2-0.2,0.5-0.2,0.8c0,0.6,0.2,1,0.6,1.3
		S358.8,78.7,359.5,78.7 M359.2,67.2c1.2,0,2.1,0.1,2.9,0.4c0.8,0.3,1.4,0.6,1.8,1.1c0.5,0.5,0.8,1.1,1,1.8c0.2,0.7,0.3,1.5,0.3,2.3
		V81c-0.6,0.1-1.3,0.3-2.3,0.4c-1,0.2-2.2,0.2-3.6,0.2c-0.9,0-1.7-0.1-2.4-0.2c-0.7-0.2-1.4-0.4-1.9-0.8c-0.5-0.4-0.9-0.8-1.2-1.4
		c-0.3-0.6-0.4-1.3-0.4-2.1c0-0.8,0.2-1.5,0.5-2c0.3-0.6,0.8-1,1.3-1.3c0.5-0.3,1.2-0.6,1.9-0.7c0.7-0.1,1.4-0.2,2.2-0.2
		c0.5,0,1,0,1.4,0.1c0.4,0,0.7,0.1,1,0.2v-0.4c0-0.7-0.2-1.2-0.6-1.6c-0.4-0.4-1.1-0.6-2.1-0.6c-0.7,0-1.3,0-2,0.1
		c-0.6,0.1-1.2,0.2-1.7,0.4l-0.5-3.1c0.2-0.1,0.5-0.1,0.9-0.2c0.3-0.1,0.7-0.1,1.1-0.2c0.4-0.1,0.8-0.1,1.3-0.2
		C358.3,67.2,358.8,67.2,359.2,67.2"/>
	<path class="st4" d="M368.8,68.1c0.7-0.2,1.5-0.4,2.6-0.5c1-0.2,2.2-0.2,3.3-0.2c1.2,0,2.1,0.2,2.9,0.5c0.8,0.3,1.4,0.7,1.8,1.3
		c0.5,0.6,0.8,1.2,1,2c0.2,0.8,0.3,1.6,0.3,2.6v7.8h-3.9v-7.3c0-1.3-0.2-2.2-0.5-2.7c-0.3-0.5-1-0.8-1.9-0.8c-0.3,0-0.6,0-0.9,0
		c-0.3,0-0.6,0.1-0.8,0.1v10.6h-3.9V68.1z"/>
	<path class="st4" d="M393.1,74.5c0-1.2-0.2-2.2-0.7-2.8c-0.5-0.7-1.2-1-2.1-1c-0.9,0-1.6,0.3-2.1,1c-0.5,0.7-0.7,1.6-0.7,2.8
		c0,1.2,0.2,2.2,0.7,2.9c0.5,0.7,1.2,1.1,2.1,1.1c0.9,0,1.6-0.4,2.1-1.1C392.9,76.6,393.1,75.7,393.1,74.5 M397.1,74.5
		c0,1.1-0.2,2.1-0.5,3c-0.3,0.9-0.8,1.7-1.4,2.3c-0.6,0.6-1.3,1.1-2.1,1.5c-0.8,0.3-1.8,0.5-2.8,0.5c-1,0-1.9-0.2-2.8-0.5
		c-0.8-0.3-1.5-0.8-2.1-1.5c-0.6-0.6-1.1-1.4-1.4-2.3c-0.3-0.9-0.5-1.9-0.5-3c0-1.1,0.2-2.1,0.5-3s0.8-1.7,1.4-2.3
		c0.6-0.6,1.3-1.1,2.2-1.5c0.8-0.3,1.7-0.5,2.7-0.5c1,0,1.9,0.2,2.7,0.5c0.8,0.3,1.5,0.8,2.1,1.5c0.6,0.6,1.1,1.4,1.4,2.3
		S397.1,73.4,397.1,74.5"/>
	<path class="st4" d="M417.6,68c0,0.7-0.1,1.3-0.4,1.9c-0.3,0.6-0.6,1.2-1,1.8c-0.4,0.6-0.9,1.1-1.4,1.6c-0.5,0.5-1,1-1.5,1.5
		c-0.3,0.2-0.5,0.5-0.9,0.8c-0.3,0.3-0.6,0.6-0.9,0.9c-0.3,0.3-0.5,0.6-0.7,0.9c-0.2,0.3-0.4,0.5-0.4,0.7h7.8v3.3H406
		c0-0.2-0.1-0.4-0.1-0.7V80c0-0.8,0.1-1.6,0.4-2.3c0.3-0.7,0.6-1.3,1.1-2c0.4-0.6,0.9-1.2,1.5-1.7c0.5-0.5,1.1-1,1.6-1.6
		c0.4-0.4,0.8-0.8,1.2-1.1c0.4-0.4,0.7-0.7,1-1c0.3-0.3,0.5-0.7,0.7-1c0.2-0.3,0.2-0.7,0.2-1c0-0.8-0.2-1.3-0.7-1.6
		c-0.4-0.3-1-0.5-1.6-0.5c-0.5,0-0.9,0.1-1.3,0.2c-0.4,0.1-0.8,0.3-1.1,0.5c-0.3,0.2-0.6,0.4-0.9,0.6c-0.2,0.2-0.4,0.4-0.6,0.5
		l-1.9-2.7c0.8-0.7,1.7-1.3,2.7-1.8c1-0.5,2.1-0.7,3.3-0.7c1.1,0,2,0.1,2.8,0.4c0.8,0.2,1.4,0.6,1.9,1c0.5,0.4,0.9,1,1.1,1.6
		C417.5,66.5,417.6,67.2,417.6,68"/>
	<path class="st4" d="M429.5,72.3c0-0.9,0-1.7-0.1-2.5c-0.1-0.7-0.2-1.4-0.4-1.9c-0.2-0.5-0.5-1-0.8-1.3c-0.3-0.3-0.7-0.4-1.2-0.4
		c-0.5,0-0.9,0.1-1.2,0.4c-0.3,0.3-0.6,0.7-0.8,1.3c-0.2,0.5-0.3,1.2-0.4,1.9c-0.1,0.7-0.1,1.6-0.1,2.5c0,0.9,0,1.7,0.1,2.5
		c0.1,0.8,0.2,1.4,0.4,1.9c0.2,0.5,0.5,1,0.8,1.3c0.3,0.3,0.7,0.4,1.2,0.4c0.5,0,0.9-0.1,1.2-0.4s0.6-0.7,0.8-1.3
		c0.2-0.5,0.3-1.2,0.4-1.9C429.4,74,429.5,73.2,429.5,72.3 M433.5,72.3c0,3.1-0.6,5.4-1.7,7c-1.2,1.6-2.8,2.5-4.8,2.5
		c-2,0-3.6-0.8-4.8-2.5c-1.2-1.6-1.7-4-1.7-7c0-1.5,0.2-2.9,0.5-4c0.3-1.2,0.7-2.2,1.3-3c0.6-0.8,1.3-1.4,2.1-1.8
		c0.8-0.4,1.7-0.6,2.7-0.6c2,0,3.6,0.8,4.8,2.5C432.9,66.9,433.5,69.2,433.5,72.3"/>
	<path class="st4" d="M436.2,67c0.5-0.2,1-0.4,1.6-0.7c0.5-0.3,1.1-0.6,1.6-0.9c0.5-0.3,1-0.7,1.5-1c0.5-0.4,0.9-0.7,1.3-1.1h2.7
		v18.2H441V68.3c-0.5,0.3-1.1,0.7-1.8,1c-0.6,0.3-1.3,0.5-1.9,0.7L436.2,67z"/>
	<path class="st4" d="M458.9,67.9c0-0.2,0-0.4-0.1-0.6c-0.1-0.2-0.2-0.4-0.4-0.6c-0.2-0.2-0.4-0.4-0.7-0.5c-0.3-0.1-0.6-0.2-1-0.2
		c-0.4,0-0.7,0.1-1,0.2c-0.3,0.1-0.5,0.3-0.7,0.5c-0.2,0.2-0.3,0.4-0.4,0.6c-0.1,0.2-0.1,0.4-0.1,0.7c0,0.6,0.2,1.1,0.6,1.6
		c0.4,0.5,1.1,0.9,2.1,1.3c0.6-0.3,1-0.8,1.3-1.2C458.8,69.1,458.9,68.5,458.9,67.9 M454.1,76.5c0,0.2,0,0.4,0.1,0.7
		c0.1,0.3,0.2,0.5,0.5,0.7c0.2,0.2,0.5,0.4,0.8,0.5c0.3,0.1,0.7,0.2,1.2,0.2c0.9,0,1.6-0.2,2-0.7c0.4-0.4,0.6-0.9,0.6-1.5
		c0-0.4-0.1-0.8-0.3-1.1c-0.2-0.3-0.4-0.6-0.7-0.8c-0.3-0.2-0.7-0.4-1.1-0.6c-0.4-0.2-0.9-0.4-1.4-0.5c-0.5,0.4-0.9,0.8-1.2,1.3
		C454.2,75.2,454.1,75.8,454.1,76.5 M463.2,76.3c0,0.8-0.1,1.5-0.4,2.2c-0.3,0.7-0.7,1.2-1.2,1.7c-0.5,0.5-1.2,0.9-2,1.1
		c-0.8,0.3-1.8,0.4-2.8,0.4c-1.2,0-2.2-0.2-3.1-0.5c-0.8-0.3-1.5-0.8-2-1.3c-0.5-0.5-0.9-1.1-1.1-1.7c-0.2-0.6-0.3-1.2-0.3-1.7
		c0-0.5,0.1-1,0.2-1.4c0.1-0.4,0.3-0.8,0.6-1.2c0.2-0.4,0.5-0.7,0.8-1c0.3-0.3,0.6-0.6,1-0.8c-0.8-0.6-1.3-1.2-1.7-1.8
		c-0.4-0.6-0.5-1.4-0.5-2.3c0-0.7,0.1-1.4,0.4-2c0.3-0.6,0.7-1.2,1.2-1.7c0.5-0.5,1.2-0.9,1.9-1.2s1.6-0.4,2.5-0.4
		c1.1,0,2,0.2,2.7,0.5c0.8,0.3,1.4,0.7,1.9,1.2c0.5,0.5,0.8,1,1.1,1.6c0.2,0.6,0.3,1.2,0.3,1.7c0,0.8-0.2,1.6-0.7,2.3
		c-0.4,0.7-1,1.3-1.7,1.7c1,0.6,1.7,1.3,2.1,2C462.9,74.5,463.2,75.4,463.2,76.3"/>
</g>
</svg>
