<svg height="57" viewBox="0 0 330 57" width="330" xmlns="http://www.w3.org/2000/svg"><g fill="none" fill-rule="evenodd"><g fill="#13110c"><path d="m11.1174816.45463971-11.11727939 34.29613969h5.08102941l11.03437498-34.29613969z"/><path d="m23.2289265 26.1764816c1.1909926 0 2.1041544-.0853309 2.7390809-.2576103.6349264-.1722794.9527941-.5220956.9527941-1.0522794 0-.3433456-.0994853-.6353309-.2976471-.8735294-.1989706-.2377941-.4768015-.4424265-.833897-.6151103-.3570956-.1714706-.767978-.3372794-1.2302206-.4958088-.4634559-.1589338-.9471324-.3174633-1.4494118-.4768015-.7141912-.2111029-1.4421324-.4565809-2.1830147-.7340073-.7412868-.2778309-1.4154412-.6284559-2.0244853-1.051875-.6086397-.4230147-1.1109191-.9588603-1.5084559-1.6075368-.3967279-.6482721-.5948897-1.4623529-.5948897-2.4414338 0-.7938603.15125-1.5408089.4557721-2.2428677.304522-.7004412.7805147-1.3232353 1.4291911-1.8655514.6482721-.5423162 1.4748898-.9657353 2.4810662-1.2702574 1.0053677-.3037132 2.2093015-.4565809 3.6126103-.4565809 1.2164706 0 2.3480147.0934191 3.3934191.2782353 1.0454044.1852206 1.9512868.4501103 2.7192647.7934559l-.7542279 4.1282353c-.4505147-.1322427-1.1509559-.350625-2.10375-.6547427-.9527941-.3041176-2.0248897-.4565808-3.2154779-.4565808-1.2439706 0-2.0835295.1524632-2.5202942.4565808-.4367647.3041177-.655147.6288603-.655147.9726103 0 .2915809.0990809.5491912.297647.7740442.1985662.2252573.4630515.4302941.7942647.6151102.3304045.185625.7141912.3639706 1.1509559.5358456.4363603.1726839.9062868.3372794 1.4089706.4962133.7141912.2386029 1.4550735.5030882 2.2226471.7938603.7675735.2919853 1.4623529.6547426 2.0843382 1.0915073.6211765.4367647 1.1315441.9924265 1.5282721 1.6673897.3967279.6749633.5952941 1.5023897.5952941 2.4810662 0 .7679779-.1455882 1.4951103-.4367647 2.1834191-.2915809.6879044-.7736397 1.283603-1.448603 1.7858824-.6749632.5026838-1.5549632.9002206-2.64 1.1909926-1.0854411.2907721-2.4208088.4363603-4.0093382.4363603-1.6144118 0-2.9902206-.1852206-4.1278309-.5556618-1.1384191-.3700367-2.050772-.7004411-2.7390809-.9924264l.754228-4.088603c.9265073.37125 1.9116544.715 2.9574632 1.0324633 1.045.3174632 2.1098162.4759926 3.1952574.4759926"/><path d="m34.2568309 20.6987647c0-1.6406985.2507353-3.0824265.7542279-4.3268015.5022794-1.2431617 1.1638971-2.2825 1.9844486-3.1159926.820147-.8334927 1.7595955-1.4615441 2.8183455-1.8857721 1.0579412-.4230147 2.1433824-.6349264 3.2551103-.6349264 2.7516177 0 4.8424265.8140808 6.2716177 2.4414338 1.4291912 1.6277573 2.1433823 4.0028676 2.1433823 7.1253309 0 .3174632-.006875.6486764-.0198161.992022-.01375.3441544-.0335662.6223897-.0590442.8338971h-12.1072794c0 1.2176838.5022794 2.1769485 1.5084559 2.8777941 1.0057721.7016544 2.3023162 1.0514706 3.8900368 1.0514706.9786764 0 1.9116544-.1055515 2.7985294-.3174632.8864706-.2115074 1.6338235-.4230148 2.2424632-.6349265l.6749633 4.168272c-.8468383.2911765-1.7466545.5358456-2.6990442.7344118-.9527941.1981618-2.0244853.2972427-3.2150735.2972427-1.5885294 0-3.01125-.2050368-4.2677573-.6151103-1.2569118-.410478-2.328603-1.0187133-3.2150736-1.8259192-.886875-.8072058-1.5675-1.8065073-2.0443014-2.9970955-.4763971-1.1909927-.7141912-2.5801471-.7141912-4.1678677zm12.5036029-1.9452206c0-.501875-.0667279-.9855515-.1981617-1.4490073-.1330515-.4622427-.3445589-.8787868-.6357353-1.2500368-.2911765-.3700368-.6612133-.6680882-1.1109192-.8933456-.4505147-.2244485-1.0061764-.3376838-1.6673897-.3376838-.6353308 0-1.1849264.1067647-1.6475735.318272-.4630515.2119118-.8472426.5026839-1.1509559.8727206-.304522.37125-.5427206.7942647-.7141911 1.2706618-.1726839.4759926-.2851103.9665441-.3376839 1.4684191z"/><path d="m69.1281654 16.1736397c-.3174632-.0792647-.694375-.1589338-1.1311397-.2381985-.4363603-.0792647-.88-.1516544-1.3297058-.2183824-.4505148-.0655147-.8872795-.1124264-1.3102942-.1391176-.4234191-.0258824-.7809191-.039228-1.0716911-.039228-.6887133 0-1.3628677.0335662-2.0240809.0990809-.6620221.0659191-1.3369853.1920956-2.0244853.3769118v13.8535294h-4.9225v-17.4256985c1.2965441-.4763971 2.62625-.8597794 3.989522-1.1513603 1.3628677-.2907721 2.9574633-.4367647 4.7833824-.4367647.2636765 0 .6413971.01375 1.1307353.0396323.4897426.0270956 1.012647.0731985 1.5683088.1391177.5560662.0663235 1.1173897.1455882 1.6868015.2377941.5690073.0938235 1.0781617.2183823 1.528272.3773162z"/><path d="m79.1509853 29.8681949c-1.1909927-2.3548898-2.4018015-5.1137868-3.6324265-8.2762868-1.2302206-3.1620956-2.4009926-6.6222427-3.5127206-10.3800368h5.1202574c.2381985 1.0061765.5220956 2.0778677.8533088 3.2150736.3308088 1.1384191.6814338 2.2825 1.0522794 3.4334558.3700368 1.1513603.747353 2.2695589 1.1311397 3.3541912.3837868 1.0854412.747353 2.0778677 1.0915074 2.9776838.34375-.8998161.7275367-1.8922426 1.1509559-2.9776838.4230147-1.0846323.8403676-2.2028309 1.2508456-3.3541912.4100735-1.1509558.8068014-2.2950367 1.1909926-3.4334558.3829779-1.1372059.694375-2.2088971.9325735-3.2150736h4.961728c-1.111728 3.7577941-2.3419486 7.2179412-3.691875 10.3800368-1.3491177 3.1625-2.619375 5.921397-3.8099633 8.2762868z"/><path d="m91.4643529 20.6987647c0-1.6406985.2507353-3.0824265.754228-4.3268015.5022794-1.2431617 1.163897-2.2825 1.9844485-3.1159926.8201471-.8334927 1.7595956-1.4615441 2.8183456-1.8857721 1.0579412-.4230147 2.1433824-.6349264 3.25511-.6349264 2.751618 0 4.842427.8140808 6.271618 2.4414338 1.429191 1.6277573 2.143382 4.0028676 2.143382 7.1253309 0 .3174632-.00647.6486764-.019816.992022-.01375.3441544-.033566.6223897-.059448.8338971h-12.1068754c0 1.2176838.5022794 2.1769485 1.5084559 2.8777941 1.005772.7016544 2.3023165 1.0514706 3.8900365 1.0514706.978677 0 1.911655-.1055515 2.79853-.3174632.88647-.2115074 1.633823-.4230148 2.242463-.6349265l.674963 4.168272c-.846838.2911765-1.746654.5358456-2.699044.7344118-.952794.1981618-2.024485.2972427-3.215074.2972427-1.588529 0-3.0112495-.2050368-4.2677569-.6151103-1.2569117-.410478-2.3286029-1.0187133-3.2150735-1.8259192-.886875-.8072058-1.5675-1.8065073-2.0443015-2.9970955-.476397-1.1909927-.7141912-2.5801471-.7141912-4.1678677zm12.5036031-1.9452206c0-.501875-.066728-.9855515-.198162-1.4490073-.133051-.4622427-.344559-.8787868-.635735-1.2500368-.291177-.3700368-.661213-.6680882-1.110919-.8933456-.450515-.2244485-1.006177-.3376838-1.66739-.3376838-.6353309 0-1.1849265.1067647-1.6475735.318272-.4630515.2119118-.8472427.5026839-1.1509559.8727206-.3045221.37125-.5427206.7942647-.7141912 1.2706618-.1726838.4759926-.2851103.9665441-.3376838 1.4684191z"/><path d="m126.335688 16.1736397c-.317464-.0792647-.694375-.1589338-1.13114-.2381985-.43636-.0792647-.88-.1516544-1.329706-.2183824-.450515-.0655147-.887279-.1124264-1.310294-.1391176-.423419-.0258824-.780919-.039228-1.071691-.039228-.688714 0-1.362868.0335662-2.024081.0990809-.662022.0659191-1.336986.1920956-2.024486.3769118v13.8535294h-4.9225v-17.4256985c1.296545-.4763971 2.62625-.8597794 3.989523-1.1513603 1.362867-.2907721 2.957463-.4367647 4.783382-.4367647.263676 0 .641397.01375 1.130735.0396323.489743.0270956 1.012647.0731985 1.568309.1391177.556066.0663235 1.11739.1455882 1.686801.2377941.569008.0938235 1.078162.2183823 1.528273.3773162z"/><path d="m144.067485 29.0740919c-.079264.0537868-.25761.1459927-.535845.2782353-.277831.1326471-.641802.2713603-1.091508.4165441-.450514.1455883-.999301.2709559-1.647169.3769118-.649081.1055515-1.383492.1589338-2.203235.1589338-2.249338 0-3.890037-.6680882-4.922096-2.0042647-1.032058-1.3361765-1.548088-3.2878676-1.548088-5.8550735v-15.83797796h-5.160294v-4.049375h10.042757v20.24485296c0 1.2702573.250736 2.1304412.754228 2.580147.50228.4497059 1.137206.6741544 1.905184.6741544.978677 0 1.799228-.1314338 2.460846-.3967279.661617-.2636765 1.097978-.4367647 1.310294-.515625z"/><path d="m145.607768 20.6987647c0-1.6406985.250736-3.0824265.754228-4.3268015.50228-1.2431617 1.163897-2.2825 1.984449-3.1159926.820147-.8334927 1.759595-1.4615441 2.818345-1.8857721 1.057942-.4230147 2.143383-.6349264 3.255111-.6349264 2.751617 0 4.842426.8140808 6.271617 2.4414338 1.429192 1.6277573 2.143383 4.0028676 2.143383 7.1253309 0 .3174632-.006471.6486764-.019816.992022-.01375.3441544-.033567.6223897-.059449.8338971h-12.106875c0 1.2176838.502279 2.1769485 1.508456 2.8777941 1.005772.7016544 2.302316 1.0514706 3.890037 1.0514706.978676 0 1.911654-.1055515 2.798529-.3174632.886471-.2115074 1.633824-.4230148 2.242463-.6349265l.674964 4.168272c-.846839.2911765-1.746655.5358456-2.699045.7344118-.952794.1981618-2.024485.2972427-3.215073.2972427-1.588529 0-3.01125-.2050368-4.267757-.6151103-1.256912-.410478-2.328603-1.0187133-3.215074-1.8259192-.886875-.8072058-1.5675-1.8065073-2.044301-2.9970955-.476397-1.1909927-.714192-2.5801471-.714192-4.1678677zm12.503603-1.9452206c0-.501875-.066323-.9855515-.198161-1.4490073-.133052-.4622427-.344155-.8787868-.635736-1.2500368-.291176-.3700368-.661213-.6680882-1.110919-.8933456-.450515-.2244485-1.006176-.3376838-1.66739-.3376838-.63533 0-1.184522.1067647-1.647573.318272-.463052.2119118-.847243.5026839-1.150956.8727206-.304522.37125-.542721.7942647-.714191 1.2706618-.172684.4759926-.28511.9665441-.337684 1.4684191z"/><path d="m172.306103 26.1764816c1.191397 0 2.104559-.0853309 2.73989-.2576103.634926-.1722794.951985-.5220956.951985-1.0522794 0-.3433456-.099485-.6353309-.297647-.8735294-.198566-.2377941-.476802-.4424265-.833493-.6151103-.356691-.1714706-.768382-.3372794-1.23022-.4958088-.463861-.1589338-.947537-.3174633-1.449008-.4768015-.715-.2111029-1.442132-.4565809-2.183419-.7340073-.740882-.2778309-1.41625-.6284559-2.02489-1.051875-.608639-.4230147-1.110514-.9588603-1.508455-1.6075368-.396728-.6482721-.59489-1.4623529-.59489-2.4414338 0-.7938603.151654-1.5408089.455772-2.2428677.304522-.7004412.780919-1.3232353 1.43-1.8655514.647463-.5423162 1.474081-.9657353 2.480662-1.2702574 1.005772-.3037132 2.209706-.4565809 3.611801-.4565809 1.216875 0 2.348824.0934191 3.394228.2782353 1.045809.1852206 1.950882.4501103 2.719265.7934559l-.754633 4.1282353c-.450514-.1322427-1.150551-.350625-2.10375-.6547427-.953198-.3041176-2.024889-.4565808-3.215073-.4565808-1.243971 0-2.083934.1524632-2.520699.4565808-.436764.3041177-.654338.6288603-.654338.9726103 0 .2915809.099081.5491912.297243.7740442.198566.2252573.463051.4302941.79386.6151102.330405.185625.714596.3639706 1.15136.5358456.436765.1726839.906287.3372794 1.409375.4962133.713383.2386029 1.45467.5030882 2.221839.7938603.767573.2919853 1.462757.6547426 2.084338 1.0915073.621176.4367647 1.131948.9924265 1.528676 1.6673897.396728.6749633.595294 1.5023897.595294 2.4810662 0 .7679779-.145992 1.4951103-.436764 2.1834191-.291581.6879044-.774044 1.283603-1.449008 1.7858824-.674963.5026838-1.554963.9002206-2.639595 1.1909926-1.085037.2907721-2.421618.4363603-4.009743.4363603-1.614412 0-2.99022-.1852206-4.127022-.5556618-1.139228-.3700367-2.051581-.7004411-2.73989-.9924264l.754228-4.088603c.926508.37125 1.91125.715 2.958272 1.0324633 1.044192.3174632 2.109008.4759926 3.194449.4759926"/><path d="m190.537835 26.1764816c1.191397 0 2.104558-.0853309 2.739889-.2576103.634927-.1722794.951986-.5220956.951986-1.0522794 0-.3433456-.099486-.6353309-.297647-.8735294-.198567-.2377941-.476802-.4424265-.833493-.6151103-.356691-.1714706-.768382-.3372794-1.230221-.4958088-.46386-.1589338-.947536-.3174633-1.449007-.4768015-.715-.2111029-1.442132-.4565809-2.183419-.7340073-.741287-.2778309-1.415846-.6284559-2.02489-1.051875-.60864-.4230147-1.110515-.9588603-1.508456-1.6075368-.396728-.6482721-.594889-1.4623529-.594889-2.4414338 0-.7938603.151654-1.5408089.455772-2.2428677.304522-.7004412.780919-1.3232353 1.43-1.8655514.647463-.5423162 1.47408-.9657353 2.480661-1.2702574 1.005772-.3037132 2.209706-.4565809 3.612206-.4565809 1.216471 0 2.348419.0934191 3.393824.2782353 1.045809.1852206 1.950882.4501103 2.719264.7934559l-.754632 4.1282353c-.450515-.1322427-1.150551-.350625-2.10375-.6547427-.952794-.3041176-2.02489-.4565808-3.215073-.4565808-1.243971 0-2.083934.1524632-2.520699.4565808-.436765.3041177-.654338.6288603-.654338.9726103 0 .2915809.099081.5491912.297647.7740442.198162.2252573.462647.4302941.793456.6151102.330404.185625.714595.3639706 1.15136.5358456.436765.1726839.906287.3372794 1.409375.4962133.713382.2386029 1.454669.5030882 2.221838.7938603.767574.2919853 1.462758.6547426 2.084339 1.0915073.621176.4367647 1.131948.9924265 1.528676 1.6673897.397132.6749633.595294 1.5023897.595294 2.4810662 0 .7679779-.145993 1.4951103-.436765 2.1834191-.29158.6879044-.774044 1.283603-1.449007 1.7858824-.674963.5026838-1.554963.9002206-2.639191 1.1909926-1.085441.2907721-2.421618.4363603-4.010147.4363603-1.614412 0-2.990221-.1852206-4.127022-.5556618-1.139228-.3700367-2.051177-.7004411-2.73989-.9924264l.755037-4.088603c.925698.37125 1.910845.715 2.957463 1.0324633 1.044191.3174632 2.109007.4759926 3.194449.4759926"/><path d="m205.650217 34.7508199h-5.080221l11.11728-34.29613975h4.998125z"/></g><path d="m241.896026 10.9820037h-3.955147v13.6315073h3.955147c4.315478 0 6.831728-3.1058823 6.831728-6.799375 0-3.8576838-2.353272-6.8321323-6.831728-6.8321323" fill="#19b1a3"/><path d="m261.145904 20.9194118h7.224817l-3.595625-10.003125z" fill="#19b1a3"/><path d="m224.413386.00020221-10.094926 35.02448529h105.511838l10.094926-35.02448529zm17.482721 28.69948529h-8.597794v-21.80386029h8.597794c6.831323 0 11.572242 4.34742649 11.572242 10.91830879 0 6.5708824-4.740919 10.8855515-11.572242 10.8855515zm29.122095 0-1.372573-3.7598162h-9.741471l-1.373787 3.7598162h-5.098419l8.433199-21.80386029h5.819485l8.400441 21.80386029zm15.201434 0h-4.642647v-8.9245588l-8.400441-12.87930149h5.294559l5.427206 8.76077209 5.360882-8.76077209h5.295772l-8.335331 12.87930149zm17.174559.3922794c-4.184044 0-7.191655-1.4061397-9.251728-3.465l2.550221-3.5305147c1.535955 1.6014706 3.921985 2.9416912 6.929595 2.9416912 2.550625 0 3.792169-1.2091912 3.792169-2.4511397 0-1.6346324-1.895882-2.1902941-4.412132-2.7787133-3.564081-.8173161-8.140809-1.7980147-8.140809-6.6691544 0-3.62838232 3.139044-6.57047791 8.270625-6.57047791 3.465 0 6.34239 1.04580882 8.499522 3.03996323l-2.582169 3.39988968c-1.764853-1.6342279-4.119338-2.3860294-6.244522-2.3860294-2.092022 0-3.202537.9151838-3.202537 2.2226471 0 1.47125 1.829963 1.9290441 4.347427 2.5174632 3.595625.8165074 8.172353 1.8958824 8.172353 6.7338603 0 3.9883088-2.843824 6.9955147-8.728015 6.9955147z" fill="#19b1a3"/><path d="m193.78607 36.1925074h-8.173566c-.645441 0-1.167537-.5229045-1.167537-1.1675368 0-.6446324.522096-1.1675368 1.167537-1.1675368h8.173566c.645441 0 1.167537.5229044 1.167537 1.1675368 0 .6446323-.522096 1.1675368-1.167537 1.1675368m-15.177574 0h-8.173566c-.645037 0-1.167132-.5229045-1.167132-1.1675368 0-.6446324.522095-1.1675368 1.167132-1.1675368h8.173566c.645442 0 1.167537.5229044 1.167537 1.1675368 0 .6446323-.522095 1.1675368-1.167537 1.1675368m-15.177573 0h-8.172758c-.644632 0-1.167132-.5229045-1.167132-1.1675368 0-.6446324.5225-1.1675368 1.167132-1.1675368h8.172758c.644632 0 1.167132.5229044 1.167132 1.1675368 0 .6446323-.5225 1.1675368-1.167132 1.1675368m-15.177574 0h-8.172353c-.644632 0-1.167536-.5229045-1.167536-1.1675368 0-.6446324.522904-1.1675368 1.167536-1.1675368h8.172353c.644633 0 1.167537.5229044 1.167537 1.1675368 0 .6446323-.522904 1.1675368-1.167537 1.1675368m-15.177169 0h-8.172353c-.645037 0-1.167537-.5229045-1.167537-1.1675368 0-.6446324.5225-1.1675368 1.167537-1.1675368h8.172353c.644633 0 1.167537.5229044 1.167537 1.1675368 0 .6446323-.522904 1.1675368-1.167537 1.1675368m-15.177573 0h-8.172353c-.644633 0-1.167537-.5229045-1.167537-1.1675368 0-.6446324.522904-1.1675368 1.167537-1.1675368h8.172353c.645036 0 1.167536.5229044 1.167536 1.1675368 0 .6446323-.5225 1.1675368-1.167536 1.1675368m-15.177169 0h-8.1723534c-.6450368 0-1.1675368-.5229045-1.1675368-1.1675368 0-.6446324.5225-1.1675368 1.1675368-1.1675368h8.1723534c.644632 0 1.167536.5229044 1.167536 1.1675368 0 .6446323-.522904 1.1675368-1.167536 1.1675368m-15.177574 0h-8.172353c-.6446323 0-1.1675367-.5229045-1.1675367-1.1675368 0-.6446324.5229044-1.1675368 1.1675367-1.1675368h8.172353c.6450367 0 1.1675367.5229044 1.1675367 1.1675368 0 .6446323-.5225 1.1675368-1.1675367 1.1675368m-15.1771691 0h-8.172353c-.6450368 0-1.1675368-.5229045-1.1675368-1.1675368 0-.6446324.5225-1.1675368 1.1675368-1.1675368h8.172353c.6446323 0 1.1675367.5229044 1.1675367 1.1675368 0 .6446323-.5229044 1.1675368-1.1675367 1.1675368m-15.1775736 0h-8.1723529c-.6446324 0-1.1675368-.5229045-1.1675368-1.1675368 0-.6446324.5229044-1.1675368 1.1675368-1.1675368h8.1723529c.6450368 0 1.1675368.5229044 1.1675368 1.1675368 0 .6446323-.5225 1.1675368-1.1675368 1.1675368m-15.1771691 0h-8.1723529c-.6450368 0-1.1675368-.5229045-1.1675368-1.1675368 0-.6446324.5225-1.1675368 1.1675368-1.1675368h8.1723529c.6446324 0 1.1675368.5229044 1.1675368 1.1675368 0 .6446323-.5229044 1.1675368-1.1675368 1.1675368m-15.1775735 0h-8.172353c-.6446323 0-1.1675367-.5229045-1.1675367-1.1675368 0-.6446324.5229044-1.1675368 1.1675367-1.1675368h8.172353c.6450367 0 1.1675367.5229044 1.1675367 1.1675368 0 .6446323-.5225 1.1675368-1.1675367 1.1675368" fill="#13110c"/><g fill="#cc171a"><path d="m219.812717 43.4822721c.217573.3967279.467096.8864705.750588 1.4696323.283493.5835662.578713 1.214853.886066 1.8938603.307758.6794118.611471 1.3737868.913162 2.083125.301691.7097427.584375 1.3774265.850074 2.0022427.265294-.6248162.548382-1.2925.849669-2.0022427.301691-.7093382.606213-1.4037132.913566-2.083125.307757-.6790073.602978-1.3102941.886471-1.8938603.283088-.5831618.533014-1.0729044.750183-1.4696323h2.561544c.119706.8294485.23092 1.7583823.333236 2.786397.102316 1.0284191.1925 2.0984927.270551 3.210625.078456 1.1125368.150037 2.2275.216765 3.3456985.065515 1.1181986.123345 2.170478.171066 3.1564339h-2.741103c-.036397-1.2140441-.084926-2.536875-.144779-3.9680883-.060258-1.4308088-.150037-2.87375-.270552-4.3288235-.217169.5051103-.458603 1.0644118-.723088 1.6775-.265698.6130882-.528162 1.2265809-.78739 1.8396691-.259228.6130883-.509558 1.1994853-.750588 1.7587868-.241838.558897-.446875 1.0369118-.615515 1.4336397h-1.96625c-.168639-.3967279-.373676-.8747427-.614705-1.4336397-.241434-.5593015-.491765-1.1456985-.751398-1.7587868-.258823-.6130882-.521691-1.2265809-.78658-1.8396691-.265295-.6130882-.507133-1.1723897-.723897-1.6775-.120515 1.4550735-.210699 2.8980147-.270552 4.3288235-.060662 1.4312133-.108382 2.7540442-.143971 3.9680883h-2.741911c.048125-.9859559.105147-2.0382353.17147-3.1564339.065515-1.1181985.137905-2.2331617.216361-3.3456985.078051-1.1121323.168235-2.1822059.270551-3.210625.102316-1.0280147.213529-1.9569485.33364-2.786397z"/><path d="m235.43211 43.7527831c0 .4929779-.159338.8812132-.47761 1.1634926-.318676.2826839-.694779.4238236-1.1275.4238236-.433125 0-.808824-.1411397-1.127096-.4238236-.31908-.2822794-.478014-.6705147-.478014-1.1634926 0-.492978.158934-.8808088.478014-1.1634927.318272-.2822794.693971-.4238235 1.127096-.4238235.432721 0 .808824.1415441 1.1275.4238235.318272.2826839.47761.6705147.47761 1.1634927zm-2.939264 12.2286029h2.686911v-9.4875h-2.686911z"/><path d="m241.491938 56.161875c-.781728-.0121324-1.415846-.0966544-1.902758-.2523529-.486912-.156103-.871912-.376103-1.154191-.6587868-.282279-.2822794-.475184-.6248162-.577096-1.0280147-.102316-.4027941-.153272-.8565441-.153272-1.3616544v-10.443125l2.687316-.4327206v10.3347426c0 .240625.017795.4569853.054192.6494853.035992.1925.104742.3546691.207059.4869118.102316.1326471.249926.240625.442426.3243382.191691.0845221.450515.1387133.775257.1625736z"/><path d="m247.083618 46.2416544c.793456 0 1.454669.0901838 1.984044.2705515.528566.1803676.952794.4391912 1.271066.7756617.318676.336875.543934.7457353.676581 1.2261765.132242.48125.198162 1.0162868.198162 1.6055147v5.5913971c-.384596.0841176-.920037.1836029-1.604706.297647-.685883.1140442-1.515331.1714706-2.489155.1714706-.613088 0-1.169559-.0541911-1.668603-.1625735-.498639-.1079779-.928529-.2855147-1.289669-.5322059-.360735-.2462867-.637353-.5681985-.829448-.9649265-.1925-.3967279-.28875-.8836397-.28875-1.4611397 0-.5528308.110809-1.0215441.334044-1.4065441.222022-.3845956.519669-.6915441.892132-.9196323.372868-.2284927.799927-.3938971 1.280772-.4962133.480846-.1019117.97989-.153272 1.497537-.153272.348199 0 .657574.0149632.928934.0448897.270551.0303309.489742.0695588.657978.1172794v-.2523529c0-.4569853-.138713-.8233824-.414522-1.1-.277022-.2766177-.757868-.4149265-1.442941-.4149265-.45739 0-.908309.0327573-1.353162.0990809-.444449.0659191-.829853.1593382-1.154596.2794485l-.342132-2.1644118c.155698-.048125.351434-.0990809.585992-.153272.234559-.0537868.489743-.1019118.766765-.144375.276213-.0420589.567794-.0780515.874743-.107978.306544-.0299264.615919-.0452941.928934-.0452941m.21636 7.8637868c.264081 0 .516434-.0056618.757059-.0177941.240625-.0121324.433529-.0299265.5775-.0541912v-2.0382353c-.107978-.0238603-.270552-.0477206-.486912-.0719853-.21636-.0238603-.415331-.0359927-.595294-.0359927-.252353 0-.490147.0153677-.712574.0448898-.222831.0303308-.418161.0873529-.585588.1714705-.169044.0845221-.301287.1985662-.397132.3425368-.096655.144375-.14478.3247427-.14478.5411029 0 .4209927.14114.7125736.424228.8747427.28228.1625735.670515.2434559 1.163493.2434559"/><path d="m253.648879 46.8188309c.456176-.1322427 1.045809-.2551838 1.767279-.3696324.721471-.1140441 1.478934-.1714706 2.27239-.1714706.805992 0 1.476103.1055515 2.011139.3158456.534633.2102941.958861.5079412 1.271876.8929412.312205.3845956.534632.8415809.667279 1.3705515.132243.5289706.198566 1.1181985.198566 1.7676838v5.3568382h-2.687721v-5.0325c0-.8658456-.114044-1.4789338-.342536-1.8396691-.228493-.3607353-.655552-.5411029-1.280772-.5411029-.1925 0-.397133.0093014-.613089.0270956-.21636.0181985-.40886.0392279-.5775.0630882v7.3230882h-2.686911z"/><path d="m273.145327 51.2196801c0 .7457353-.107978 1.427978-.324338 2.0471324-.216765.6195588-.529779 1.1485294-.937831 1.5873162-.40886.4391912-.899007.7784926-1.470037 1.0191176-.571029.2402206-1.211617.3607353-1.920956.3607353-.697205 0-1.332132-.1205147-1.903161-.3607353-.57103-.240625-1.061177-.5799264-1.469228-1.0191176-.409265-.4387868-.728346-.9677574-.956434-1.5873162-.228493-.6191544-.342537-1.3013971-.342537-2.0471324 0-.7453308.11728-1.4247426.351838-2.0378308.234155-.6134927.558897-1.1363971.973824-1.5691177.414926-.433125.907904-.7695956 1.478934-1.0102206.570625-.240625 1.193014-.3607353 1.866764-.3607353.685074 0 1.313934.1201103 1.884559.3607353.57103.240625 1.061177.5770956 1.470037 1.0102206.40886.4327206.727537.955625.956434 1.5691177.228088.6130882.342132 1.2925.342132 2.0378308m-2.741507 0c0-.8294485-.165405-1.4817647-.495809-1.9569485-.330809-.4747794-.802353-.7121691-1.415846-.7121691-.613088 0-1.088272.2373897-1.424742.7121691-.33728.4751838-.504706 1.1275-.504706 1.9569485 0 .829853.167426 1.4882353.504706 1.9751471.33647.4869118.811654.7303677 1.424742.7303677.613493 0 1.085037-.2434559 1.415846-.7303677.330404-.4869118.495809-1.1452941.495809-1.9751471"/><path d="m287.232 46.7648824c0 .4569852-.090588.895772-.270551 1.3163602-.180773.4209927-.414927.8270221-.703677 1.2176839-.28875.3906617-.613088.7663603-.974228 1.1270956-.360331.3607353-.715404.7036764-1.064007 1.0284191-.179963.1686397-.375699.3575-.585993.5681985-.210698.2102941-.411691.4238235-.604595.6397794-.191692.2167647-.363567.4181618-.514008.6045956-.150037.1864338-.243051.3397059-.279448.4598162h5.375036v2.2545956h-8.3325c-.024264-.1322427-.035992-.300478-.035992-.5051103v-.4327206c0-.5770956.092206-1.1064706.279448-1.5873162.186434-.4808456.429486-.9289338.730368-1.3438603.300073-.414522.640184-.8023529 1.019118-1.1630882.378529-.3607353.753823-.7214706 1.1275-1.0822059.288345-.2766176.558897-.5378676.81125-.7849632.252353-.2458824.475183-.4865074.666875-.7214706.192904-.2341544.342941-.4687133.451323-.7032721.107978-.2341544.162169-.4715441.162169-.7125735 0-.5285662-.150037-.9014338-.450514-1.1181985-.301287-.2159559-.67375-.3247427-1.118199-.3247427-.324743 0-.62886.0517647-.91114.1536765-.283088.1023162-.541103.2228309-.775257.3607353-.234963.1383088-.435956.2766176-.604596.4149264-.168639.1383089-.294411.2495221-.378529.3336398l-1.334559-1.8756618c.528566-.4933824 1.145294-.8990074 1.848162-1.2176838.703676-.3182721 1.458309-.4780147 2.263493-.4780147.733602 0 1.365294.0841176 1.894264.2527573.528566.1682353.964522.405625 1.307463.7121691.342942.3069486.595295.6794118.757868 1.1181986.162169.4391911.243456.935.243456 1.4882353"/><path d="m298.161673 49.7047537c0 2.1041544-.399963 3.7185662-1.199485 4.8428309-.799523 1.1242647-1.902758 1.686397-3.309302 1.686397-1.406948 0-2.510588-.5621323-3.309706-1.686397-.800331-1.1242647-1.199485-2.7386765-1.199485-4.8428309 0-1.0462133.105147-1.9719118.315845-2.7779044.20989-.8051839.513603-1.4845956.910736-2.0378309.396323-.5528309.871507-.9738235 1.424742-1.2625735.553236-.2883456 1.171986-.4327206 1.857868-.4327206 1.406544 0 2.509779.5621323 3.309302 1.686397.799522 1.1242647 1.199485 2.7326103 1.199485 4.8246324m-2.741103 0c0-.6252206-.030735-1.1934191-.090588-1.7045956-.060258-.5107721-.156508-.9523897-.28875-1.3256618-.131839-.3724632-.312611-.6608088-.540699-.8658456-.228897-.2038235-.511176-.3065441-.847647-.3065441-.336875 0-.616323.1027206-.83875.3065441-.222426.2050368-.403198.4933824-.541103.8658456-.138309.3732721-.237794.8148897-.297647 1.3256618-.060662.5111765-.090588 1.079375-.090588 1.7045956 0 .625625.029926 1.1966544.090588 1.7134926.059853.5168383.159338.9620956.297647 1.3349633.137905.3724632.318677.6612132.541103.8654411.222427.2046324.501875.3065442.83875.3065442.336471 0 .61875-.1019118.847647-.3065442.228088-.2042279.40886-.4929779.540699-.8654411.132242-.3728677.228492-.818125.28875-1.3349633.059853-.5168382.090588-1.0878676.090588-1.7134926"/><path d="m300.037779 46.0792831c.348603-.144375.71217-.309375 1.091103-.4958088.37853-.1864339.748162-.3906618 1.109302-.6134927.360735-.222022.705698-.4565809 1.036912-.703272.330808-.2462868.628455-.5075368.892941-.7845589h1.876066v12.4991544h-2.687721v-9.0001838c-.361139.240625-.763529.4602206-1.208786.6583824-.444853.1985662-.877574.3696323-1.298162.5140073z"/><path d="m318.579331 52.4954779c0 .5419118-.093824 1.0385295-.280257 1.4902574-.186434.4513235-.465883.845625-.83875 1.1829044-.372464.336875-.838346.5989338-1.397648.7853677-.558897.1864338-1.205147.2798529-1.93875.2798529-.84158 0-1.541617-.1172794-2.101323-.3518382-.559302-.2349633-1.009816-.5269486-1.352757-.8763603-.342942-.3490074-.585993-.7315809-.730368-1.1469118s-.215956-.7975-.215956-1.1465074c0-.3615441.047316-.6927573.143971-.9936397.095845-.3008823.228088-.5746691.396728-.8217647.168639-.2470956.3575-.4727573.568198-.6773897.210294-.2042279.435552-.3971323.676177-.5779044-.516839-.4201838-.899008-.8343015-1.145295-1.2427573-.246286-.4080515-.369227-.9305515-.369227-1.5670956 0-.4800368.098676-.9422794.297242-1.386728.198566-.4440441.478015-.8310661.83875-1.1614706.360331-.3304044.796287-.5944852 1.307463-.792647.511177-.1981618 1.079375-.2972427 1.704596-.2972427.732794 0 1.361654.1051471 1.884559.3150368.523309.2106985.953198.4776103 1.289669.8019485.336875.3239339.580331.6870956.730368 1.0894853.150036.4019853.226066.8011397.226066 1.1974633 0 .5766911-.153677 1.11375-.460625 1.6115808-.306544.4986398-.688309.891728-1.145294 1.1800736.685882.4452573 1.17522.9123529 1.470036 1.3996691.294817.4877206.442427 1.0567279.442427 1.7066176m-6.241287.1095956c0 .1447794.033566.3045221.099485.479228.066324.1747059.171067.3344485.315846.4792279.143971.144375.330404.2648897.558897.3611397.228493.0966544.50511.1447794.829853.1447794.625221 0 1.081801-.1504411 1.370551-.4517279.288346-.3012868.433125-.6389706.433125-1.0126471 0-.2774264-.063088-.524522-.189669-.7416911-.125772-.2171692-.297647-.4064339-.514007-.5694118-.21636-.1625735-.471949-.307353-.76636-.4339338-.294816-.1265809-.610662-.2438603-.947133-.3526471-.33647.2531618-.619558.5483824-.847647.8860662-.228897.3376838-.342941.7412867-.342941 1.2116176m3.337206-5.9343382c0-.1318382-.027096-.2721691-.081287-.4222059s-.144375-.290772-.270551-.4226103c-.126581-.1322426-.285919-.2430515-.477611-.3328309-.1925-.0901838-.427058-.1350735-.703676-.1350735-.26489 0-.492978.0420588-.685882.1261765-.191692.0837132-.35103.194522-.477611.3324264-.125772.1383089-.219595.2851103-.279448.4408089-.060662.1561029-.090588.3057353-.090588.4497059 0 .3837867.141139.7433088.424228 1.0789705.282279.3360662.76636.623603 1.451838.8634192.384595-.2398162.679007-.515625.884044-.8274265.204228-.3118015.306544-.6951838.306544-1.1513603"/></g></g></svg>