<?xml version="1.0" encoding="utf-8"?>
<!-- Generator: Adobe Illustrator 21.1.0, SVG Export Plug-In . SVG Version: 6.00 Build 0)  -->
<svg version="1.1" id="Layer_1" xmlns="http://www.w3.org/2000/svg" xmlns:xlink="http://www.w3.org/1999/xlink" x="0px" y="0px"
	 viewBox="0 0 144.1 26.2" style="enable-background:new 0 0 144.1 26.2;" xml:space="preserve">
<style type="text/css">
	.st0{fill:#80CBB4;}
</style>
<g>
	<path class="st0" d="M40.5,13.2c-0.3-0.3-0.6-0.5-1-0.7s-0.7-0.3-1.1-0.5c-0.4-0.1-0.7-0.3-1.1-0.4s-0.7-0.3-1-0.4
		s-0.5-0.3-0.7-0.5s-0.3-0.5-0.3-0.8c0-0.2,0-0.5,0.1-0.7s0.2-0.4,0.4-0.5c0.2-0.1,0.4-0.3,0.6-0.3c0.3-0.1,0.5-0.1,0.9-0.1
		c0.8,0,1.4,0.1,1.8,0.2l0.2,1.6c0,0.3,0.3,0.5,0.6,0.5H41v-0.2l0,0V7c-1.2-0.5-2.5-0.7-3.8-0.7c-0.7,0-1.3,0.1-1.8,0.3
		c-0.5,0.2-1,0.5-1.3,0.8c-0.4,0.3-0.7,0.8-0.8,1.2C33.1,9.1,33,9.5,33,10c0,0.6,0.1,1.1,0.3,1.5c0.2,0.4,0.4,0.7,0.7,1
		s0.6,0.5,1,0.7s0.7,0.3,1.1,0.4s0.7,0.2,1.1,0.3c0.4,0.1,0.7,0.2,1,0.4c0.3,0.1,0.5,0.3,0.7,0.5s0.3,0.5,0.3,0.9
		c0,0.6-0.2,1.1-0.6,1.4s-0.9,0.5-1.6,0.5c-0.9,0-1.7-0.1-2.2-0.2l-0.2-1.6c0-0.3-0.3-0.5-0.6-0.5h-1.1v0.2v2.4V18v0.9
		c1.3,0.5,2.6,0.7,3.8,0.7H37c0.7,0,1.4-0.1,1.9-0.3c0.6-0.2,1.1-0.5,1.4-0.9c0.4-0.4,0.7-0.8,0.9-1.4c0.2-0.5,0.3-1.1,0.3-1.7
		c0-0.5-0.1-1-0.3-1.4C41,13.8,40.8,13.5,40.5,13.2z"/>
	<path class="st0" d="M44.5,7.3v0.1v1.1V10h1.1c0.3,0,0.5-0.2,0.6-0.5l0.1-1h2.4v9.4L47.8,18c-0.3,0-0.5,0.3-0.5,0.6v1.1h1.4h1.2H50
		h1.2h1.4v-1.1c0-0.3-0.2-0.5-0.5-0.6l-0.9-0.1V8.6h2.4l0.1,0.9c0,0.3,0.3,0.5,0.6,0.5h1.1V8.6V7.5V7.4V6.6h-11L44.5,7.3L44.5,7.3z"
		/>
	<path class="st0" d="M70.6,18l-0.9-0.1L65.2,6.5h-2.5l-4.5,11.4L57.3,18c-0.3,0-0.5,0.3-0.5,0.6v1.1h2.6h0.1h2.6v-1.1
		c0-0.3-0.2-0.5-0.5-0.6l-0.9-0.1l0.6-1.7h5.3l0.6,1.7L66.3,18c-0.3,0-0.5,0.3-0.5,0.6v1.1h2.6h0.1h2.6v-1.1
		C71,18.3,70.8,18,70.6,18z M62,14.4c0,0,1.8-5.1,2-5.7c0.2,0.6,2,5.7,2,5.7H62z"/>
	<path class="st0" d="M82.9,16.6c-0.1,0-0.1,0-0.2,0s-0.1,0.1-0.2,0.1c-0.2,0.2-0.4,0.3-0.6,0.5s-0.4,0.2-0.6,0.3
		c-0.2,0.1-0.5,0.1-0.7,0.2c-0.3,0-0.6,0.1-0.9,0.1c-0.6,0-1.1-0.1-1.6-0.3c-0.5-0.2-0.9-0.5-1.3-0.9s-0.6-0.9-0.8-1.5
		c-0.2-0.6-0.3-1.2-0.3-2c0-0.7,0.1-1.4,0.3-2c0.2-0.6,0.5-1.1,0.9-1.5s0.8-0.7,1.3-0.9s1.1-0.3,1.7-0.3s1.4,0.1,2.3,0.4l0.2,1.4
		c0,0.3,0.3,0.5,0.6,0.5h1.1l0,0l0,0V7.3c-1.7-0.6-3-0.9-4.1-0.9c-1,0-1.9,0.2-2.8,0.5c-0.8,0.3-1.5,0.8-2.1,1.4s-1.1,1.3-1.4,2.1
		c-0.3,0.8-0.5,1.8-0.5,2.7c0,1,0.1,1.9,0.4,2.7c0.3,0.8,0.7,1.5,1.3,2.1c0.5,0.6,1.2,1.1,2,1.4s1.6,0.5,2.6,0.5
		c1.1,0,2-0.2,2.8-0.5s1.4-0.9,2-1.5l-1-1.1C83.2,16.6,83.1,16.6,82.9,16.6z"/>
	<path class="st0" d="M99.8,18l-0.7-0.1l-3.3-4.4c-0.1-0.2-0.3-0.4-0.5-0.5s-0.3-0.2-0.5-0.3c0.1-0.1,0.3-0.2,0.4-0.3
		c0.1-0.1,0.3-0.3,0.4-0.4l2.9-3.7l0.8-0.1c0.3,0,0.5-0.3,0.5-0.6V6.5h-2.4h-0.1h-2.6v1.1c0,0.3,0.2,0.5,0.5,0.6l0.7,0.1l-2.6,3.3
		c-0.1,0.1-0.3,0.2-0.4,0.3C92.8,12,92.6,12,92.3,12h-0.6V8.3l0.9-0.1c0.3,0,0.5-0.3,0.5-0.6V6.5h-2.6h-0.1h-2.6v1.1
		c0,0.3,0.2,0.5,0.5,0.6l0.9,0.1v9.6L88.3,18c-0.3,0-0.5,0.3-0.5,0.6v1.1h2.6h0.1h2.6v-1.1c0-0.3-0.2-0.5-0.5-0.6l-0.9-0.1v-4h0.8
		c0.3,0,0.5,0,0.6,0.1s0.3,0.2,0.4,0.3l2.7,3.6L95.5,18c-0.3,0-0.5,0.3-0.5,0.6v1.1h2.6h0.1h2.6v-1.1C100.3,18.3,100.1,18,99.8,18z"
		/>
	<path class="st0" d="M107,6.5h-0.1h-1.2h-1.4v1.1c0,0.3,0.2,0.5,0.5,0.6l0.9,0.1v9.6l-0.9,0.1c-0.3,0-0.5,0.3-0.5,0.6v1.1h1.4h1.2
		h0.1h2.6h4.5v-0.8v-0.2v-1v-1.5H113c-0.3,0-0.5,0.2-0.6,0.5l-0.2,1h-4V14h4.5v-1.9h-4.5V8.5h4l0.2,1c0,0.3,0.3,0.5,0.6,0.5h1.1V8.5
		v-1V7.4V6.6h-4.5H107V6.5z"/>
	<path class="st0" d="M129.7,18l-1-0.2l-2.1-3c-0.2-0.3-0.5-0.6-0.8-0.8c0.5-0.1,0.9-0.3,1.2-0.6c0.4-0.2,0.7-0.5,0.9-0.8
		c0.2-0.3,0.4-0.7,0.6-1.1c0.1-0.4,0.2-0.8,0.2-1.3c0-0.6-0.1-1.1-0.3-1.5c-0.2-0.5-0.5-0.9-0.9-1.2s-0.9-0.6-1.6-0.8
		c-0.6-0.2-1.4-0.3-2.3-0.3h-0.1h-2.6h-0.1h-1.2h-1.2v1.1c0,0.3,0.2,0.5,0.5,0.6l0.9,0.1v9.6l-0.9,0.1c-0.3,0-0.5,0.3-0.5,0.6v1.1
		h1.4h1.2h0.1h1.2h1.4v-1.1c0-0.3-0.2-0.5-0.5-0.6l-0.9-0.1v-3.3h0.9c0.2,0,0.4,0,0.5,0.1s0.2,0.2,0.3,0.3l2.8,4.2
		c0.1,0.2,0.2,0.3,0.4,0.4c0.1,0.1,0.3,0.1,0.5,0.1l0,0h0.1h2.5v-1.1C130.2,18.3,130,18,129.7,18z M124.9,12.6
		c-0.3,0.1-0.7,0.2-1.2,0.2h-1.4V8.4h1.4c0.9,0,1.6,0.2,2,0.5c0.4,0.4,0.7,0.9,0.7,1.6c0,0.3-0.1,0.6-0.2,0.9s-0.3,0.5-0.5,0.7
		C125.5,12.3,125.2,12.5,124.9,12.6z"/>
	<path class="st0" d="M142.8,6.5h-1.2h-0.1h-1.3h-1.3v1.1c0,0.3,0.2,0.5,0.5,0.6l0.8,0.1l-2.4,4.2l-2.4-4.2l0.8-0.1
		c0.3,0,0.5-0.3,0.5-0.6V6.5h-1.3h-1.3H134h-1.2h-1.4v1.1c0,0.3,0.2,0.5,0.5,0.6l0.9,0.1l3.7,6.2v3.3l-0.9,0.1
		c-0.3,0-0.5,0.3-0.5,0.6v1.1h1.4h1.2h0.1h1.2h1.4v-1.1c0-0.3-0.2-0.5-0.5-0.6l-0.9-0.1v-3.3l3.7-6.2l0.9-0.1c0.3,0,0.5-0.3,0.5-0.6
		V6.5H142.8z"/>
	<path class="st0" d="M25.5,18.8c0-0.1,0-0.2-0.1-0.2l0,0c0-0.1-0.1-0.1-0.1-0.2l0,0c-0.1-0.1-0.1-0.1-0.2-0.1l0,0l-10.2-5.1
		c-0.3-0.1-0.6-0.1-0.8,0c-0.2,0.2-0.4,0.4-0.4,0.7v4.2h-0.6L1.4,12.3c-0.3-0.1-0.6-0.1-0.8,0c-0.2,0.2-0.4,0.4-0.4,0.7v8.5
		c0,0.4,0.2,0.7,0.6,0.8l11.9,3.9l0,0c0.1,0,0.2,0,0.3,0s0.2,0,0.3,0l0,0l11.9-3.9c0.3-0.1,0.6-0.4,0.6-0.8v-2.7
		C25.6,18.8,25.6,18.8,25.5,18.8C25.6,18.8,25.6,18.8,25.5,18.8z M15.3,15.1l5.9,2.9h-5.9V15.1z M1.8,14.4l10.2,5v4.9L1.8,20.9V14.4
		z M23.9,20.9l-10.2,3.4v-4.6h0.8h9.4L23.9,20.9L23.9,20.9z"/>
	<path class="st0" d="M25,3.9L13.1,0c0,0,0,0-0.1,0h-0.1h-0.1h-0.1h-0.1c0,0,0,0-0.1,0L0.6,3.9C0.3,4,0,4.3,0,4.7v2.7c0,0,0,0,0,0.1
		c0,0,0,0,0,0.1s0,0.2,0.1,0.2l0,0c0,0.1,0.1,0.1,0.1,0.2l0,0c0.1,0.1,0.1,0.1,0.2,0.1l0,0l10.2,5.1c0.1,0.1,0.2,0.1,0.4,0.1
		c0.2,0,0.3,0,0.4-0.1c0.2-0.2,0.4-0.4,0.4-0.7V8.3h0.6l11.7,5.8c0.1,0.1,0.2,0.1,0.4,0.1c0.2,0,0.3,0,0.4-0.1
		c0.2-0.2,0.4-0.4,0.4-0.7V4.9C25.6,4.3,25.3,4,25,3.9z M1.8,5.2L12,1.8v4.6h-0.8H1.8L1.8,5.2L1.8,5.2z M10.4,11L4.5,8.1h5.9V11z
		 M23.9,11.8l-10.2-5V1.9l10.2,3.4V11.8z"/>
</g>
</svg>
