<svg id="Layer_1" data-name="Layer 1" xmlns="http://www.w3.org/2000/svg" viewBox="0 0 478.32 158.27"><defs><style>.cls-1{fill:#2841f9;}.cls-2{fill:#00b1d0;}.cls-3{fill:#1ed6b3;}.cls-4{fill:#4fdb6d;}.cls-5{fill:#a2e538;}</style></defs><title>Artboard 1</title><path class="cls-1" d="M97.12,141.75H36.48A37.42,37.42,0,0,1,17.69,71.9a25.63,25.63,0,0,1-1.42-8.11,26,26,0,0,1,26-26,25.59,25.59,0,0,1,7.81,1.33A51.87,51.87,0,0,1,97.12,8.92Z"/><rect class="cls-2" x="101.56" y="8.97" width="18.25" height="18.26"/><rect class="cls-3" x="124.38" y="8.97" width="18.26" height="18.26"/><rect class="cls-2" x="101.56" y="31.88" width="18.25" height="18.25"/><rect class="cls-3" x="124.38" y="31.88" width="18.26" height="18.25"/><rect class="cls-4" x="147.2" y="31.88" width="18.25" height="18.25"/><rect class="cls-2" x="101.56" y="54.79" width="18.25" height="18.25"/><rect class="cls-3" x="124.38" y="54.79" width="18.26" height="18.25"/><rect class="cls-4" x="147.2" y="54.79" width="18.25" height="18.25"/><rect class="cls-2" x="101.56" y="77.71" width="18.25" height="18.25"/><rect class="cls-3" x="124.38" y="77.71" width="18.26" height="18.25"/><rect class="cls-4" x="147.2" y="77.71" width="18.25" height="18.25"/><rect class="cls-5" x="170.01" y="77.71" width="18.25" height="18.25"/><rect class="cls-2" x="101.56" y="100.62" width="18.25" height="18.25"/><rect class="cls-3" x="124.38" y="100.62" width="18.26" height="18.25"/><rect class="cls-4" x="147.2" y="100.62" width="18.25" height="18.25"/><rect class="cls-5" x="170.01" y="100.62" width="18.25" height="18.25"/><rect class="cls-2" x="101.56" y="123.53" width="18.25" height="18.25"/><rect class="cls-3" x="124.38" y="123.53" width="18.26" height="18.25"/><rect class="cls-4" x="147.2" y="123.53" width="18.25" height="18.25"/><path d="M213.06,63.56c0-14,8.72-22.1,20.31-22.1a21.82,21.82,0,0,1,10.85,2.47l-1.07,2.7a23.89,23.89,0,0,0-9.78-1.85c-9.51,0-16.31,6.41-16.31,18.56,0,12.93,6.58,18,14.79,18a17.69,17.69,0,0,0,10.68-3.15l1.41,2.7a21.15,21.15,0,0,1-12.54,3.76C220.43,84.65,213.06,78.13,213.06,63.56Z"/><path d="M275.89,69.3c0,10.12-5.12,15.35-13.16,15.35s-13.17-5.23-13.17-15.35,5.12-15.36,13.17-15.36S275.89,59.12,275.89,69.3Zm-3.77,0c0-8.66-3.88-12.43-9.39-12.43s-9.4,3.77-9.4,12.43,3.83,12.37,9.4,12.37S272.12,77.9,272.12,69.3Z"/><path d="M306.26,66.21V83.87h-3.6v-19c0-5.85-2.25-8-7.37-8a11.9,11.9,0,0,0-7.65,2.92V83.87H284V54.79l3.6-.51v2.59a15.25,15.25,0,0,1,9-3c5.45,0,9,2.08,9.5,7.87C306.26,63.06,306.26,64.29,306.26,66.21Z"/><path d="M330,83.25a12.33,12.33,0,0,1-5.79,1.4c-4.56,0-6.47-2.64-6.69-5.9-.12-1.52-.12-2.87-.12-4.89V57.49h-4.27V54.68h4.27V47.42l3.6-.62v7.88h8.66l-.45,2.81H321V75.32c0,4.83,1.3,6.3,4.67,6.3a8.8,8.8,0,0,0,3.6-.73Z"/><path d="M353.16,84.32l-.67-2.87a15.77,15.77,0,0,1-9.17,3.2c-4.84,0-8.49-2.25-8.49-8.83,0-5.9,4.67-8.88,11.87-8.88a28.21,28.21,0,0,1,5.68.62V63.84c0-4.38-2-7-7.15-7a15,15,0,0,0-7.2,1.91L337,56.31a18,18,0,0,1,9-2.42c5.79,0,9.56,2.87,9.9,8.21.06,1.29.06,2.59.06,4.5V77.23a26,26,0,0,0,.73,6.64Zm-8.6-2.59a13.89,13.89,0,0,0,7.82-2.64V70.26a32.42,32.42,0,0,0-5.91-.45c-4.89,0-7.93,1.68-7.93,5.73S340.62,81.73,344.56,81.73Z"/><path d="M366,43.93a7.82,7.82,0,0,1,3.6,0V48.6a7.82,7.82,0,0,1-3.6,0Zm.06,10.86,3.6-.51V83.87h-3.6Z"/><path d="M402.32,66.21V83.87h-3.6v-19c0-5.85-2.25-8-7.37-8a11.94,11.94,0,0,0-7.65,2.92V83.87h-3.6V54.79l3.6-.51v2.59a15.25,15.25,0,0,1,9-3c5.46,0,9,2.08,9.51,7.87C402.32,63.06,402.32,64.29,402.32,66.21Z"/><path d="M430.38,80l.85,2.64a21.09,21.09,0,0,1-9.34,2c-8.49,0-12.26-4.55-12.26-15,0-11.25,4.84-15.8,12.21-15.8,6.52,0,9.72,3.77,10.17,11.19.12,1.86.12,3.09.12,4.89h-19c.23,8.83,3.32,11.65,8.95,11.65A19.59,19.59,0,0,0,430.38,80ZM413.29,67.16h15.35c-.17-7.87-2.14-10.29-7-10.29C416.6,56.87,413.62,59.68,413.29,67.16Z"/><path d="M440.62,55l3.6-.51v3.6c1.41-3,3.66-4.16,5.91-4.16a4.91,4.91,0,0,1,3,.84l-.39,3a9,9,0,0,0-3-.45c-2.59,0-4.45,1.41-5.57,4V83.87h-3.6Z"/><path d="M211.86,138.89l1.59-7a25.76,25.76,0,0,0,10.35,2.2c4.51,0,6.49-2,6.49-4.29,0-2.42-1.43-3.91-7-6.28-5.78-2.47-9.9-5.11-9.9-11.66,0-6.82,6.1-12.33,14.91-12.33a24.09,24.09,0,0,1,10.78,2.37l-1.59,6.77a25.77,25.77,0,0,0-8.26-1.43c-2.86,0-5.72,1.43-5.72,3.68s1.32,4,6.16,5.84c6.66,2.58,10.73,5.72,10.73,11.66,0,8.42-7.32,13.37-17.22,13.37A23.56,23.56,0,0,1,211.86,138.89Z"/><path d="M274.36,126.68c0,10-5.94,15.29-15.41,15.29s-15.4-5.28-15.4-15.29,5.94-15.3,15.4-15.3S274.36,116.66,274.36,126.68Zm-9.9,0c0-5.4-1.71-7.82-5.51-7.82s-5.5,2.42-5.5,7.82,1.71,7.81,5.5,7.81S264.46,132.07,264.46,126.68Z"/><path d="M279,100l9.9-.55V141H279Z"/><path d="M322.94,111.87V141H313v-2.36a14.66,14.66,0,0,1-8.31,2.91c-6.44,0-9.57-3.41-10-9-.11-1.26-.11-3.13-.11-5V112.43l9.9-.56v16.24c0,4.23,1.27,5.94,4.35,5.94a6.6,6.6,0,0,0,4.18-1.71V112.43Z"/><path d="M348.86,133.94l.77,6a23.05,23.05,0,0,1-9.41,1.87c-5.39,0-7.92-2.53-8.31-6.38a60.51,60.51,0,0,1-.27-7.27V119.3h-4.19v-7.15h4.19v-5.78l9.9-2.8v8.58h8.25l-1,7.15h-7.26v9.36c0,4.29.94,5.66,4.18,5.66A13.12,13.12,0,0,0,348.86,133.94Z"/><path d="M353.86,99.38a43.22,43.22,0,0,1,9.91,0v8.48a43.22,43.22,0,0,1-9.91,0Zm0,13.05,9.91-.56V141h-9.91Z"/><path d="M399.26,126.68c0,10-5.95,15.29-15.41,15.29s-15.41-5.28-15.41-15.29,5.95-15.3,15.41-15.3S399.26,116.66,399.26,126.68Zm-9.91,0c0-5.4-1.7-7.82-5.5-7.82s-5.5,2.42-5.5,7.82,1.7,7.81,5.5,7.81S389.35,132.07,389.35,126.68Z"/><path d="M432.27,125.36V141h-9.91V124.81c0-4.24-1.1-6-4.45-6a6.42,6.42,0,0,0-4.07,1.6V141h-9.91V112.43l9.91-.56v2.26a15.75,15.75,0,0,1,8.3-2.75c6.44,0,9.52,3.41,10,9C432.27,121.61,432.27,123.48,432.27,125.36Z"/><path d="M436.56,139.39l1.32-6.5a17.26,17.26,0,0,0,8.14,1.93c2,0,2.75-.72,2.75-1.93s-1.1-2.2-3.9-3.46c-4.46-2-7.21-4.18-7.21-9.3,0-5.94,5.61-8.75,11.23-8.75a16.35,16.35,0,0,1,8.36,1.93l-.88,6.21a17.14,17.14,0,0,0-6.61-1.21c-1.76,0-2.69.77-2.69,1.82,0,1.26,1.7,2.2,4.4,3.41,5.06,2.2,6.82,4.9,6.82,9.24,0,6.33-5.28,9-11.94,9A19.57,19.57,0,0,1,436.56,139.39Z"/></svg>