<svg xmlns="http://www.w3.org/2000/svg" viewBox="0 0 980.69 160.51"><defs><style>.cls-1,.cls-2{fill:#3e65e5;}.cls-2{font-size:17px;font-family:Monda-Bold, Monda Bold;font-weight:700;}</style></defs><title>Thundra-main-blue</title><g id="Layer_2" data-name="Layer 2"><path class="cls-1" d="M380.88,751.78V749.7l11.89-3.87L381,747.11l.18-4.13s18.67,1.09,24.87-2.3,43.92-25.74,43.92-25.74-20.44.73-38.05-10l9.28-15.72-16.71,12.29a81.82,81.82,0,0,1-23-13.93l-.26-.33,17.43-16.47s-14,6.14-23.7,9.6a15.86,15.86,0,0,1-1.31-1.19c4.93-3.06,11.8-7.26,11.8-7.26l-16.5,2.14c-1-.45-4.16-3.59-7.24-8.62a66,66,0,0,1-4.62-8.89l38.46-13.06-45.07-3.67s-.78-.39-2.33-3.49a32.33,32.33,0,0,1-2.33-6.67L381.52,625l-42.34-10.47s-3.33-5.51-3.89-10.49a38.77,38.77,0,0,1,.78-12.81s33.05,1.11,66.07,12.25,37.62,32,37.62,32c.78,27.28,7.37,46.78,29.9,63.3s47,11.55,57.48,1.94c8.07-7.38-1.94-11.65-1.94-11.65s14.27-1.26,25.63.78c12.82,2.3,19.87,9.28,19.87,9.28Z" transform="translate(-335.08 -591.27)"/><path class="cls-1" d="M665.72,635.51H584.35a5.07,5.07,0,0,0-5.07,5.07v13.85a5.08,5.08,0,0,0,5.07,5.08H610a3,3,0,0,1,3,3v70a5.07,5.07,0,0,0,5.07,5.07H632A5.07,5.07,0,0,0,637,732.5v-70a3,3,0,0,1,3-3h25.66a5.08,5.08,0,0,0,5.08-5.08V640.58A5.07,5.07,0,0,0,665.72,635.51Z" transform="translate(-335.08 -591.27)"/><path class="cls-1" d="M764.94,635.51H751.09a5.07,5.07,0,0,0-5.07,5.07v30.8a3.16,3.16,0,0,1-3.16,3.16h-28.5a3.15,3.15,0,0,1-3.15-3.16v-30.8a5.08,5.08,0,0,0-5.08-5.07H692.28a5.07,5.07,0,0,0-5.07,5.07V732.5a5.07,5.07,0,0,0,5.07,5.07h13.85a5.08,5.08,0,0,0,5.08-5.07V701.69a3.15,3.15,0,0,1,3.15-3.15h28.5a3.16,3.16,0,0,1,3.16,3.15V732.5a5.07,5.07,0,0,0,5.07,5.07h13.85A5.08,5.08,0,0,0,770,732.5V640.58A5.08,5.08,0,0,0,764.94,635.51Z" transform="translate(-335.08 -591.27)"/><path class="cls-1" d="M865.63,635.51H851.77c-2.8,0-5.07,2-5.07,4.47V708.6a5,5,0,0,1-5,5H816.87a5,5,0,0,1-5-5V640c0-2.47-2.27-4.47-5.07-4.47H793c-2.81,0-5.08,2-5.08,4.47v77.57a20,20,0,0,0,20,20h42.75a20,20,0,0,0,20-20V640C870.7,637.51,868.43,635.51,865.63,635.51Z" transform="translate(-335.08 -591.27)"/><path class="cls-1" d="M997.07,640.57v75.87A73.71,73.71,0,0,1,994,737.57h65.62a20.28,20.28,0,0,0,20.28-20.28V655.73a20.22,20.22,0,0,0-20.23-20.22h-57.51A5.06,5.06,0,0,0,997.07,640.57Zm52.9,73h-26.36a2.54,2.54,0,0,1-2.54-2.54V662a2.54,2.54,0,0,1,2.54-2.53H1050a5.91,5.91,0,0,1,5.91,5.91v42.24A5.92,5.92,0,0,1,1050,713.57Z" transform="translate(-335.08 -591.27)"/><path class="cls-1" d="M1178.47,655.89a20.38,20.38,0,0,0-20.39-20.38h-57.34a5.07,5.07,0,0,0-5.08,5.08V732.5a5.07,5.07,0,0,0,5.07,5.07h13.85a5.08,5.08,0,0,0,5.08-5.07v-13a3.38,3.38,0,0,1,3.38-3.39h11.39a5.92,5.92,0,0,1,5.34,3.38l7.18,15.15a5.08,5.08,0,0,0,4.59,2.9H1166a5.07,5.07,0,0,0,4.62-7.17l-5-11.13a2.22,2.22,0,0,1,2-3.13h0a10.89,10.89,0,0,0,10.9-10.89Zm-56.28,3.62h26.37a5.91,5.91,0,0,1,5.91,5.91v20.81a5.91,5.91,0,0,1-5.91,5.91h-26.37a2.53,2.53,0,0,1-2.53-2.53V662A2.53,2.53,0,0,1,1122.19,659.51Z" transform="translate(-335.08 -591.27)"/><path class="cls-1" d="M1218.24,635.51h-3.58a20.41,20.41,0,0,0-20.42,20.41V732.5a5.07,5.07,0,0,0,5.08,5.07h13.85a5.07,5.07,0,0,0,5.07-5.07V719.42a3.28,3.28,0,0,1,3.27-3.28h28.27a3.27,3.27,0,0,1,3.27,3.28V732.5a5.07,5.07,0,0,0,5.08,5.07H1272a5.07,5.07,0,0,0,5.07-5.07V655.66a20.15,20.15,0,0,0-20.16-20.15Zm0,51.55V664.59a5.08,5.08,0,0,1,5.09-5.08h23.81a5.91,5.91,0,0,1,5.91,5.91v20.81a5.91,5.91,0,0,1-5.91,5.91h-23.81A5.08,5.08,0,0,1,1218.24,687.06Z" transform="translate(-335.08 -591.27)"/><path class="cls-1" d="M957.21,640.58v50.16a2.19,2.19,0,0,1-4,1.24l-37.57-54.21a10.19,10.19,0,0,0-8.5-4.38l-13.58.18a5,5,0,0,0-5,5V732.5a5.07,5.07,0,0,0,5.07,5.07H907.5a5.08,5.08,0,0,0,5.08-5.07V680.64a2.18,2.18,0,0,1,4-1.25l37.62,53.83a10.17,10.17,0,0,0,8.34,4.35H976.2a5,5,0,0,0,5-5v-92a5.08,5.08,0,0,0-5.08-5.07H962.28A5.07,5.07,0,0,0,957.21,640.58Z" transform="translate(-335.08 -591.27)"/><text class="cls-2" transform="translate(951.44 145.75)">TM</text></g></svg>