<?xml version="1.0" encoding="utf-8"?>
<!-- Generator: Adobe Illustrator 23.0.4, SVG Export Plug-In . SVG Version: 6.00 Build 0)  -->
<svg version="1.1" id="Layer_1" xmlns="http://www.w3.org/2000/svg" xmlns:xlink="http://www.w3.org/1999/xlink" x="0px" y="0px"
	 viewBox="0 0 354.7 211.2" style="enable-background:new 0 0 354.7 211.2;" xml:space="preserve">
<style type="text/css">
	.st0{fill:#33475B;}
	.st1{fill:#F97C00;}
</style>
<g id="New_Symbol_3">
</g>
<g id="New_Symbol_2">
</g>
<g id="New_Symbol_2_1_">
</g>
<g id="New_Symbol_3_1_">
</g>
<g>
	<path class="st0" d="M160.8,123.7h-4.3c-0.4,0-0.6-0.1-0.8-0.4c-0.1-0.2-0.1-0.5,0-0.9l14.5-26.6l-13.7-24.2
		c-0.2-0.3-0.2-0.6-0.1-0.9c0.2-0.2,0.4-0.4,0.8-0.4h4.1c0.9,0,1.5,0.4,1.8,1.2L174.3,92h0.3l10.9-20.4c0.4-0.8,1-1.2,1.8-1.2h4.3
		c0.4,0,0.6,0.1,0.8,0.4c0.1,0.2,0.1,0.5,0,0.9l-13.8,24.1l14.4,26.6c0.2,0.3,0.3,0.6,0.1,0.9c-0.1,0.2-0.4,0.4-0.8,0.4H188
		c-0.8,0-1.3-0.4-1.6-1.1l-11.8-22.2h-0.3l-11.8,22.2C162.1,123.3,161.5,123.7,160.8,123.7z"/>
	<path class="st0" d="M207.1,142h-3.7c-0.8,0-1.2-0.4-1.2-1.2V82.6c0-0.8,0.4-1.2,1.2-1.2h3.7c0.8,0,1.2,0.4,1.2,1.2v3.2h0.3
		c1.4-2.9,4.2-4.4,8.4-4.4h5c3.8,0,6.7,1.1,8.7,3.2c2.1,2.2,3.1,5.2,3.1,9v17.7c0,3.9-1,6.9-3.1,9c-2.1,2.2-5,3.2-8.7,3.2h-5
		c-4.2,0-7.1-1.5-8.4-4.4h-0.3v21.5C208.2,141.6,207.8,142,207.1,142z M215.9,118.4h4.9c4.7,0,7-2.4,7-7.2V94c0-4.8-2.3-7.2-7-7.2
		h-4.9c-2.5,0-4.4,0.7-5.7,2c-1.3,1.3-2,3.2-2,5.6v16.4c0,2.4,0.7,4.3,2,5.6C211.5,117.7,213.4,118.4,215.9,118.4z"/>
	<path class="st0" d="M244.8,74.5v-7.8c0-0.8,0.4-1.2,1.1-1.2h3.8c0.8,0,1.2,0.4,1.2,1.2v7.8c0,0.8-0.4,1.2-1.2,1.2h-3.8
		C245.2,75.7,244.8,75.3,244.8,74.5z M244.8,122.5V82.6c0-0.8,0.4-1.2,1.1-1.2h3.8c0.8,0,1.2,0.4,1.2,1.2v39.9
		c0,0.8-0.4,1.2-1.2,1.2H246C245.2,123.7,244.8,123.3,244.8,122.5z"/>
	<path class="st0" d="M269.2,123.7h-3.7c-0.8,0-1.2-0.4-1.2-1.2V82.6c0-0.8,0.4-1.2,1.2-1.2h3.7c0.8,0,1.2,0.4,1.2,1.2V86h0.3
		c0.6-1.2,1.6-2.3,3.1-3.1c1.5-0.9,3.4-1.3,5.5-1.3h3.2c0.7,0,1.1,0.4,1.1,1.2v3.1c0,0.4-0.1,0.7-0.2,0.9c-0.2,0.2-0.4,0.3-0.8,0.2
		h-4.5c-2.5,0-4.4,0.7-5.7,2.2c-1.3,1.5-2,3.5-2,6.1v27.4C270.4,123.3,270,123.7,269.2,123.7z"/>
	<path class="st0" d="M293.1,74.5v-7.8c0-0.8,0.4-1.2,1.1-1.2h3.8c0.8,0,1.2,0.4,1.2,1.2v7.8c0,0.8-0.4,1.2-1.2,1.2h-3.8
		C293.5,75.7,293.1,75.3,293.1,74.5z M293.1,122.5V82.6c0-0.8,0.4-1.2,1.1-1.2h3.8c0.8,0,1.2,0.4,1.2,1.2v39.9
		c0,0.8-0.4,1.2-1.2,1.2h-3.7C293.5,123.7,293.1,123.3,293.1,122.5z"/>
	<path class="st0" d="M314.2,86.8h-4.6c-0.8,0-1.2-0.4-1.2-1.1v-3.1c0-0.8,0.4-1.2,1.2-1.2h4.6c0.6,0,0.8-0.2,0.8-0.7v-7.1
		c0-0.8,0.4-1.2,1.2-1.2h3.7c0.7,0,1.1,0.4,1.1,1.2v7.1c0,0.5,0.3,0.7,0.9,0.7h8.8c0.8,0,1.2,0.4,1.2,1.2v3.1c0,0.7-0.4,1.1-1.2,1.1
		h-8.8c-0.6,0-0.9,0.2-0.9,0.7v23.8c0,4.7,2.4,7,7.3,7h3.2c0.8,0,1.2,0.4,1.2,1.2v3.1c0,0.7-0.4,1.1-1.2,1.1h-4
		c-3.8,0-6.8-1.1-9.1-3.2c-2.3-2.1-3.4-5.1-3.4-8.9V87.5C315.1,87,314.8,86.8,314.2,86.8z"/>
</g>
<path class="st1" d="M43.9,21.1H31.4c-3.1,0-5.2,1-6.3,3c-1.1,2-0.9,4.2,0.7,6.8c1,1.7,36.4,60.2,36.4,60.2c0.7,1.2,2,1.9,3.4,1.9
	h1.1c1.4,0,2.7-0.7,3.4-1.9l6.3-10.6c0.7-1.1,0.7-2.5,0.2-3.8L53.1,27C51.7,23.2,48.3,21.1,43.9,21.1z"/>
<path class="st1" d="M66.8,110h-1.1c-1.4,0-2.7,0.7-3.4,2l-39.8,67.8c-1.1,1.8-0.5,4.2,1.3,5.4c0.7,0.4,1.4,0.6,2.2,0.6
	c1.2,0,2.5-0.6,3.2-1.7l44.4-61.9c0.9-1.3,1-3,0.2-4.3l-3.4-5.9C69.5,110.7,68.2,110,66.8,110z"/>
<path class="st1" d="M143.3,21.1h-13c-2.4,0-5.8,1-8.6,5.9L76.4,98.1c-0.8,1.3-0.8,2.9-0.1,4.2l48.9,81.5c0.7,1.2,2.1,1.9,3.4,1.9
	c0.6,0,1.3-0.1,1.9-0.5c1.9-1,2.6-3.3,1.7-5.2l-37.1-79.6l53.2-69.3c0-0.1,0.1-0.1,0.1-0.2c2-2.9,1.3-5.4,0.8-6.6
	C148.7,23.2,147.2,21.1,143.3,21.1z"/>
</svg>
